<svg width="202" height="62" viewBox="0 0 202 62" fill="none" xmlns="http://www.w3.org/2000/svg">
<g id="galaxy_store_white 1">
<g clip-path="url(#clip0_1522_13401)">
<path id="Vector" d="M200.168 1H1V60.82H200.168V1Z" fill="white"/>
<path id="Vector_2" d="M40.393 51.2671H29.607C22.092 51.2671 16 44.74 16 36.6882V25.1318C16 17.08 22.092 10.5529 29.607 10.5529H40.394C47.908 10.5529 54 17.08 54 25.1318V36.6893C54 44.74 47.908 51.2671 40.393 51.2671Z" fill="url(#paint0_linear_1522_13401)"/>
<path id="Vector_3" opacity="0.05" d="M39.303 43.7671H30.698C27.529 43.7671 24.907 41.1271 24.709 37.7393L24.002 25.6193C23.966 25.0032 24.423 24.4814 25 24.4814H29C29 20.9361 31.691 18.0529 35 18.0529C38.309 18.0529 41 20.9361 41 24.4814H45C45.577 24.4814 46.034 25.0032 45.998 25.6193L45.291 37.7393C45.093 41.1282 42.471 43.7671 39.303 43.7671ZM26.064 26.6243L26.705 37.6054C26.837 39.8596 28.591 41.6243 30.697 41.6243H39.302C41.408 41.6243 43.162 39.8596 43.294 37.6054L43.936 26.6243H39H26.064ZM33 24.4814H37C37 23.2996 36.103 22.3386 35 22.3386C33.897 22.3386 33 23.2996 33 24.4814Z" fill="#222220"/>
<path id="Vector_4" opacity="0.07" d="M39.3022 43.2313H30.6972C27.7922 43.2313 25.3892 40.812 25.2072 37.706L24.5332 26.156C24.4972 25.5388 24.9542 25.0181 25.5312 25.0181H29.5002V24.746C29.5002 21.6699 31.5932 18.9174 34.4502 18.6185C37.7282 18.2756 40.5002 21.0388 40.5002 24.4824V25.0181H44.4682C45.0452 25.0181 45.5022 25.5399 45.4662 26.156L44.7922 37.706C44.6112 40.812 42.2072 43.2313 39.3022 43.2313ZM25.5322 26.0885L26.2062 37.6385C26.3542 40.1735 28.3272 42.1599 30.6972 42.1599H39.3022C41.6722 42.1599 43.6452 40.1735 43.7932 37.6385L44.4672 26.0885H39.5002V24.4813C39.5002 21.8231 37.4812 19.6599 35.0002 19.6599C32.5192 19.6599 30.5002 21.8231 30.5002 24.4813V26.0885H25.5322ZM38.5002 26.0885H31.5002V24.4813C31.5002 22.4135 33.0702 20.7313 35.0002 20.7313C36.9302 20.7313 38.5002 22.4135 38.5002 24.4813V26.0885ZM32.5002 25.017H37.5002V24.4813C37.5002 23.0038 36.3792 21.8027 35.0002 21.8027C33.6212 21.8027 32.5002 23.0038 32.5002 24.4813V25.017Z" fill="#030000"/>
<path id="Vector_5" d="M40 25.5534V24.7209C40 21.9245 38.097 19.4227 35.5 19.1505C32.52 18.8387 30 21.3512 30 24.482V25.5534H26.064C25.487 25.5534 25.03 26.0752 25.066 26.6912L25.707 37.6723C25.872 40.4955 28.057 42.6952 30.697 42.6952H39.302C41.942 42.6952 44.128 40.4955 44.292 37.6723L44.933 26.6912C44.97 26.0752 44.512 25.5534 43.936 25.5534H40ZM32 24.482C32 22.7098 33.346 21.2677 35 21.2677C36.654 21.2677 38 22.7098 38 24.482V25.5534H32V24.482Z" fill="white"/>
<g id="Clip path group">
<mask id="mask0_1522_13401" style="mask-type:luminance" maskUnits="userSpaceOnUse" x="64" y="29" width="122" height="21">
<g id="clip0_1449_39054">
<path id="Vector_6" d="M185.168 29.2076H64.1084V49.7552H185.168V29.2076Z" fill="white"/>
</g>
</mask>
<g mask="url(#mask0_1522_13401)">
<g id="Group">
<path id="Vector_7" d="M185.168 39.4887H176.334C176.514 40.8445 177.423 41.85 178.678 42.1612C180.294 42.561 181.518 41.9929 182.687 40.2583C183.342 40.6596 184.004 41.0639 184.701 41.4923C183.786 43.2389 182.443 44.2145 180.665 44.5482C178.076 45.0337 175.504 43.7185 174.428 41.3496C173.289 38.8408 173.834 35.8121 175.811 34.0129C177.494 32.4811 179.449 32.1655 181.514 32.9141C183.484 33.628 184.623 35.1732 185.034 37.3347C185.066 37.5045 185.123 37.6669 185.168 37.8338V39.4887ZM182.462 37.2325C182.447 36.1006 181.214 34.9358 179.655 34.9207C178.12 34.9057 176.792 35.8376 176.512 37.2325H182.462Z" fill="black"/>
<path id="Vector_8" d="M75.0548 38.8414H70.8429V36.3161H77.7472C78.2382 39.6546 76.522 43.2425 73.2326 44.2781C69.5682 45.431 65.7921 43.4589 64.5442 39.7643C63.2596 35.9599 64.9078 31.8128 68.3076 30.2931C71.6084 28.8171 75.7495 30.2616 77.2223 33.4512C76.505 33.9066 75.7835 34.365 75.0676 34.822C73.3585 32.4276 71.3509 31.7316 69.2315 32.7612C67.3116 33.6946 66.2873 35.9674 66.7485 38.2777C67.18 40.4422 68.9754 41.9423 71.1641 41.9648C73.118 41.9844 74.6361 40.8014 75.0548 38.8444V38.8414Z" fill="black"/>
<path id="Vector_9" d="M87.9548 34.0254V32.8349H90.4025V44.3337H87.9676C87.952 43.9444 87.935 43.5341 87.9124 42.9809C86.6108 44.3367 85.1323 44.8688 83.4232 44.5246C82.0975 44.257 81.0152 43.5386 80.1847 42.4098C78.5167 40.1415 78.6284 36.5385 80.4266 34.4131C82.3296 32.1614 84.9569 31.9991 87.9548 34.0239V34.0254ZM84.8126 42.1767C86.6235 42.1617 88.0694 40.5519 88.0624 38.5572C88.0553 36.5641 86.5938 34.9783 84.7729 34.9858C82.9408 34.9948 81.4849 36.5746 81.4807 38.5587C81.4764 40.5714 82.9705 42.1933 84.8126 42.1767Z" fill="black"/>
<path id="Vector_10" d="M107.312 44.359H104.822V42.9431C103.621 44.2253 102.283 44.7754 100.732 44.592C99.2098 44.4101 97.9634 43.6556 97.0353 42.3524C95.3686 40.012 95.5441 36.3835 97.4074 34.3137C99.3825 32.1207 102.071 31.9914 104.776 33.9996C104.797 33.6057 104.817 33.245 104.838 32.8361H107.312V44.359ZM104.94 38.5705C104.944 36.5639 103.508 34.9856 101.679 34.9871C99.8324 34.9871 98.4034 36.5353 98.3949 38.5435C98.3864 40.5907 99.8324 42.1855 101.69 42.1765C103.508 42.169 104.936 40.5832 104.94 38.5705Z" fill="black"/>
<path id="Vector_11" d="M136.29 41.9422C137.025 41.3259 137.762 40.7081 138.53 40.0633C139.177 41.1005 139.98 41.8986 141.142 41.9527C141.735 41.9798 142.436 41.825 142.923 41.4852C143.909 40.7998 143.793 39.3673 142.755 38.7871C142.156 38.4535 141.487 38.2611 140.85 38.0055C140.214 37.75 139.564 37.5216 138.942 37.2314C136.275 35.9914 136.401 32.4155 138.266 30.8341C139.918 29.4332 142.708 29.3145 144.644 30.6373C145.095 30.9455 145.495 31.3377 146.022 31.7767C145.29 32.3704 144.628 32.9085 143.925 33.4797C143.247 32.5868 142.411 32.0231 141.313 32.1329C140.927 32.1719 140.508 32.2756 140.183 32.4876C139.327 33.0437 139.298 34.3079 140.163 34.843C140.845 35.2654 141.624 35.5104 142.364 35.8245C142.867 36.038 143.384 36.2108 143.877 36.4453C145.272 37.1082 146.187 38.18 146.237 39.8754C146.288 41.6265 145.57 42.9778 144.161 43.8737C141.781 45.3874 137.892 44.4328 136.289 41.9407L136.29 41.9422Z" fill="black"/>
<path id="Vector_12" d="M159.431 44.6181C156.27 44.6287 153.763 41.9771 153.756 38.6206C153.749 35.2462 156.228 32.5736 159.375 32.5601C162.517 32.5466 165.042 35.2116 165.061 38.5605C165.079 41.902 162.565 44.6076 159.43 44.6166L159.431 44.6181ZM162.559 38.6131C162.565 36.6411 161.207 35.1064 159.438 35.0884C157.627 35.0704 156.235 36.6035 156.242 38.6086C156.248 40.5792 157.619 42.0943 159.399 42.0974C161.171 42.0989 162.554 40.5762 162.561 38.6146L162.559 38.6131Z" fill="black"/>
<path id="Vector_13" d="M121.997 49.7385C122.541 48.3286 122.964 46.9714 123.576 45.7178C124.217 44.401 124.151 43.2661 123.549 41.9314C122.318 39.2033 121.261 36.3879 120.135 33.6071C120.044 33.3817 119.966 33.1501 119.833 32.791C120.704 32.791 121.494 32.7579 122.28 32.818C122.442 32.83 122.633 33.1727 122.724 33.4012C123.554 35.4996 124.365 37.607 125.184 39.7097C125.282 39.9623 125.391 40.2103 125.539 40.5681C126.366 38.327 127.152 36.1865 127.942 34.0476C128.253 33.2038 128.826 32.7819 129.662 32.7819C130.08 32.7819 130.498 32.7819 130.998 32.7819C130.911 33.0765 130.865 33.287 130.79 33.4839C128.789 38.6952 126.777 43.9019 124.792 49.1207C124.614 49.5883 124.413 49.7881 123.928 49.7491C123.324 49.6995 122.714 49.737 121.997 49.737V49.7385Z" fill="black"/>
<path id="Vector_14" d="M119.56 44.4011C118.509 44.4011 117.642 44.4357 116.779 44.3786C116.555 44.3635 116.298 44.1065 116.142 43.8885C115.36 42.7958 114.607 41.6804 113.812 40.5261C113.027 41.6985 112.312 42.8183 111.534 43.884C111.342 44.1471 110.944 44.35 110.624 44.3801C109.859 44.4507 109.084 44.4026 108.177 44.4026C108.386 44.069 108.515 43.8479 108.661 43.6375C109.736 42.0833 110.798 40.5186 111.903 38.9884C112.192 38.5886 112.162 38.3346 111.893 37.9572C110.716 36.3008 109.566 34.6219 108.298 32.7956C109.361 32.7956 110.286 32.77 111.209 32.8181C111.383 32.8271 111.572 33.1021 111.704 33.2946C112.399 34.3047 113.078 35.3267 113.837 36.4541C114.28 35.8063 114.774 35.2591 115.071 34.6114C115.787 33.0495 116.9 32.4709 118.477 32.779C118.697 32.8226 118.928 32.8091 119.265 32.8271C117.929 34.7857 116.661 36.6435 115.382 38.5194C116.751 40.445 118.097 42.3403 119.56 44.3996V44.4011Z" fill="black"/>
<path id="Vector_15" d="M146.48 35.177V32.7991H148.183C148.25 32.6789 148.275 32.6548 148.272 32.6353C147.981 31.0856 148.97 30.4257 150.008 29.7944C150.252 29.6471 150.477 29.4637 150.836 29.2067V32.7676H153.014V35.156H150.951C150.951 37.1281 150.908 38.9995 150.992 40.8633C151.006 41.179 151.527 41.5488 151.886 41.7426C152.2 41.9126 152.616 41.8705 153.026 41.9291V44.3761C151.9 44.3987 150.798 44.3927 149.802 43.7914C148.741 43.1495 148.442 42.0268 148.39 40.8468C148.319 39.2219 148.316 37.5911 148.339 35.9646C148.347 35.347 148.189 35.0914 147.592 35.1665C147.247 35.2101 146.893 35.174 146.479 35.174L146.48 35.177Z" fill="black"/>
<path id="Vector_16" d="M166.397 32.8331H168.831V33.977C169.567 33.5966 170.261 33.1126 171.025 32.8767C171.849 32.6242 172.702 32.818 173.559 33.281C173.254 34.1047 172.957 34.9059 172.664 35.6935C172.164 35.5853 171.716 35.4275 171.26 35.3989C169.768 35.3087 168.941 36.0934 168.905 37.6942C168.859 39.6226 168.883 41.5526 168.878 43.4827C168.878 43.7532 168.878 44.0237 168.878 44.3484H166.399V32.8331H166.397Z" fill="black"/>
<path id="Vector_17" d="M92.0962 44.3321V29.7549H94.5537V44.3321H92.0962Z" fill="black"/>
</g>
</g>
</g>
<path id="Vector_18" opacity="0.8" d="M64.48 21.7076C64.416 21.7076 64.36 21.6819 64.312 21.6305C64.264 21.579 64.24 21.519 64.24 21.4505C64.24 21.3819 64.244 21.3347 64.252 21.309L67.228 12.9905C67.292 12.8019 67.42 12.7076 67.612 12.7076H68.428C68.62 12.7076 68.748 12.8019 68.812 12.9905L71.776 21.309L71.8 21.4505C71.8 21.519 71.776 21.579 71.728 21.6305C71.68 21.6819 71.624 21.7076 71.56 21.7076H70.948C70.86 21.7076 70.792 21.6862 70.744 21.6433C70.696 21.5919 70.664 21.5405 70.648 21.489L69.988 19.6633H66.052L65.392 21.489C65.376 21.5405 65.34 21.5919 65.284 21.6433C65.236 21.6862 65.172 21.7076 65.092 21.7076H64.48ZM69.64 18.5576L68.02 13.9933L66.4 18.5576H69.64ZM74.7241 21.7076C74.5161 21.7076 74.3681 21.6005 74.2801 21.3862L72.0601 15.4205L72.0361 15.2919C72.0361 15.2147 72.0601 15.1505 72.1081 15.099C72.1561 15.0476 72.2161 15.0219 72.2881 15.0219H72.8641C73.0001 15.0219 73.1001 15.0947 73.1641 15.2405L74.9881 20.3062L76.8121 15.2405C76.8841 15.0947 76.9801 15.0219 77.1001 15.0219H77.6881C77.7521 15.0219 77.8081 15.0476 77.8561 15.099C77.9121 15.1505 77.9401 15.2147 77.9401 15.2919L77.9161 15.4205L75.6841 21.3862C75.5961 21.6005 75.4481 21.7076 75.2401 21.7076H74.7241ZM80.7022 21.8362C80.3102 21.8362 79.9462 21.7505 79.6102 21.579C79.2742 21.4076 79.0062 21.1762 78.8062 20.8847C78.6142 20.5847 78.5182 20.2547 78.5182 19.8947C78.5182 19.329 78.7342 18.8662 79.1662 18.5062C79.6062 18.1376 80.1982 17.8976 80.9422 17.7862L82.7302 17.5162V17.1433C82.7302 16.269 82.2622 15.8319 81.3262 15.8319C80.9742 15.8319 80.6862 15.9133 80.4622 16.0762C80.2382 16.2305 80.0702 16.4147 79.9582 16.629C79.9342 16.7062 79.9022 16.7619 79.8622 16.7962C79.8302 16.8305 79.7822 16.8476 79.7182 16.8476H79.2022C79.1302 16.8476 79.0662 16.8219 79.0102 16.7705C78.9622 16.7105 78.9382 16.6419 78.9382 16.5647C78.9462 16.359 79.0342 16.1276 79.2022 15.8705C79.3782 15.6047 79.6462 15.3776 80.0062 15.189C80.3662 14.9919 80.8102 14.8933 81.3382 14.8933C82.2342 14.8933 82.8782 15.1205 83.2702 15.5747C83.6622 16.0205 83.8582 16.5776 83.8582 17.2462V21.4119C83.8582 21.4976 83.8302 21.5705 83.7742 21.6305C83.7262 21.6819 83.6622 21.7076 83.5822 21.7076H83.0302C82.9502 21.7076 82.8822 21.6819 82.8262 21.6305C82.7782 21.5705 82.7542 21.4976 82.7542 21.4119V20.859C82.5782 21.1333 82.3222 21.3647 81.9862 21.5533C81.6502 21.7419 81.2222 21.8362 80.7022 21.8362ZM80.9542 20.8719C81.4742 20.8719 81.8982 20.6919 82.2262 20.3319C82.5622 19.9633 82.7302 19.4362 82.7302 18.7505V18.3905L81.3382 18.609C80.7702 18.6948 80.3422 18.8405 80.0542 19.0462C79.7662 19.2433 79.6222 19.4962 79.6222 19.8047C79.6222 20.1476 79.7542 20.4133 80.0182 20.6019C80.2822 20.7819 80.5942 20.8719 80.9542 20.8719ZM85.7633 13.7748C85.6833 13.7748 85.6153 13.749 85.5593 13.6976C85.5113 13.6376 85.4873 13.5648 85.4873 13.479V12.7847C85.4873 12.699 85.5113 12.6262 85.5593 12.5662C85.6153 12.5062 85.6833 12.4762 85.7633 12.4762H86.5193C86.5993 12.4762 86.6673 12.5062 86.7233 12.5662C86.7793 12.6262 86.8073 12.699 86.8073 12.7847V13.479C86.8073 13.5648 86.7793 13.6376 86.7233 13.6976C86.6673 13.749 86.5993 13.7748 86.5193 13.7748H85.7633ZM85.8593 21.7076C85.7793 21.7076 85.7113 21.6819 85.6553 21.6305C85.6073 21.5705 85.5833 21.4976 85.5833 21.4119V15.3176C85.5833 15.2319 85.6073 15.1633 85.6553 15.1119C85.7113 15.0519 85.7793 15.0219 85.8593 15.0219H86.4353C86.5153 15.0219 86.5793 15.0519 86.6273 15.1119C86.6833 15.1633 86.7113 15.2319 86.7113 15.3176V21.4119C86.7113 21.4976 86.6833 21.5705 86.6273 21.6305C86.5793 21.6819 86.5153 21.7076 86.4353 21.7076H85.8593ZM88.7776 21.7076C88.6976 21.7076 88.6296 21.6819 88.5736 21.6305C88.5256 21.5705 88.5016 21.4976 88.5016 21.4119V12.8748C88.5016 12.789 88.5256 12.7205 88.5736 12.669C88.6296 12.609 88.6976 12.579 88.7776 12.579H89.3416C89.4216 12.579 89.4856 12.609 89.5336 12.669C89.5896 12.7205 89.6176 12.789 89.6176 12.8748V21.4119C89.6176 21.4976 89.5896 21.5705 89.5336 21.6305C89.4856 21.6819 89.4216 21.7076 89.3416 21.7076H88.7776ZM93.1475 21.8362C92.7555 21.8362 92.3915 21.7505 92.0555 21.579C91.7195 21.4076 91.4515 21.1762 91.2515 20.8847C91.0595 20.5847 90.9635 20.2547 90.9635 19.8947C90.9635 19.329 91.1795 18.8662 91.6115 18.5062C92.0515 18.1376 92.6435 17.8976 93.3875 17.7862L95.1755 17.5162V17.1433C95.1755 16.269 94.7075 15.8319 93.7715 15.8319C93.4195 15.8319 93.1315 15.9133 92.9075 16.0762C92.6835 16.2305 92.5155 16.4147 92.4035 16.629C92.3795 16.7062 92.3475 16.7619 92.3075 16.7962C92.2755 16.8305 92.2275 16.8476 92.1635 16.8476H91.6475C91.5755 16.8476 91.5115 16.8219 91.4555 16.7705C91.4075 16.7105 91.3835 16.6419 91.3835 16.5647C91.3915 16.359 91.4795 16.1276 91.6475 15.8705C91.8235 15.6047 92.0915 15.3776 92.4515 15.189C92.8115 14.9919 93.2555 14.8933 93.7835 14.8933C94.6795 14.8933 95.3235 15.1205 95.7155 15.5747C96.1075 16.0205 96.3035 16.5776 96.3035 17.2462V21.4119C96.3035 21.4976 96.2755 21.5705 96.2195 21.6305C96.1715 21.6819 96.1075 21.7076 96.0275 21.7076H95.4755C95.3955 21.7076 95.3275 21.6819 95.2715 21.6305C95.2235 21.5705 95.1995 21.4976 95.1995 21.4119V20.859C95.0235 21.1333 94.7675 21.3647 94.4315 21.5533C94.0955 21.7419 93.6675 21.8362 93.1475 21.8362ZM93.3995 20.8719C93.9195 20.8719 94.3435 20.6919 94.6715 20.3319C95.0075 19.9633 95.1755 19.4362 95.1755 18.7505V18.3905L93.7835 18.609C93.2155 18.6948 92.7875 18.8405 92.4995 19.0462C92.2115 19.2433 92.0675 19.4962 92.0675 19.8047C92.0675 20.1476 92.1995 20.4133 92.4635 20.6019C92.7275 20.7819 93.0395 20.8719 93.3995 20.8719ZM101.113 21.8362C100.249 21.8362 99.5926 21.5147 99.1446 20.8719V21.4119C99.1446 21.4976 99.1166 21.5705 99.0606 21.6305C99.0126 21.6819 98.9486 21.7076 98.8686 21.7076H98.3166C98.2366 21.7076 98.1686 21.6819 98.1126 21.6305C98.0646 21.5705 98.0406 21.4976 98.0406 21.4119V12.8748C98.0406 12.789 98.0646 12.7205 98.1126 12.669C98.1686 12.609 98.2366 12.579 98.3166 12.579H98.9046C98.9846 12.579 99.0486 12.609 99.0966 12.669C99.1446 12.7205 99.1686 12.789 99.1686 12.8748V15.8319C99.6406 15.2062 100.289 14.8933 101.113 14.8933C101.945 14.8933 102.573 15.189 102.997 15.7805C103.421 16.3633 103.649 17.0962 103.681 17.979C103.689 18.0733 103.693 18.2019 103.693 18.3647C103.693 18.5276 103.689 18.6562 103.681 18.7505C103.649 19.6419 103.421 20.379 102.997 20.9619C102.573 21.5447 101.945 21.8362 101.113 21.8362ZM100.861 20.7947C101.429 20.7947 101.841 20.6062 102.097 20.229C102.361 19.8519 102.505 19.3547 102.529 18.7376C102.537 18.6519 102.541 18.5276 102.541 18.3647C102.541 16.7448 101.981 15.9348 100.861 15.9348C100.325 15.9348 99.9126 16.1233 99.6246 16.5005C99.3366 16.8776 99.1846 17.319 99.1686 17.8247L99.1566 18.3262L99.1686 18.8147C99.1926 19.3547 99.3406 19.8219 99.6126 20.2162C99.8926 20.6019 100.309 20.7947 100.861 20.7947ZM105.453 21.7076C105.373 21.7076 105.305 21.6819 105.249 21.6305C105.201 21.5705 105.177 21.4976 105.177 21.4119V12.8748C105.177 12.789 105.201 12.7205 105.249 12.669C105.305 12.609 105.373 12.579 105.453 12.579H106.017C106.097 12.579 106.161 12.609 106.209 12.669C106.265 12.7205 106.293 12.789 106.293 12.8748V21.4119C106.293 21.4976 106.265 21.5705 106.209 21.6305C106.161 21.6819 106.097 21.7076 106.017 21.7076H105.453ZM110.579 21.8362C109.755 21.8362 109.095 21.5662 108.599 21.0262C108.111 20.4776 107.843 19.7319 107.795 18.789L107.783 18.3519L107.795 17.9276C107.851 17.0019 108.123 16.2647 108.611 15.7162C109.107 15.1676 109.759 14.8933 110.567 14.8933C111.455 14.8933 112.143 15.1976 112.631 15.8062C113.119 16.4062 113.363 17.2205 113.363 18.249V18.4676C113.363 18.5533 113.335 18.6262 113.279 18.6862C113.231 18.7376 113.167 18.7633 113.087 18.7633H108.935V18.879C108.959 19.4362 109.115 19.9119 109.403 20.3062C109.699 20.6919 110.087 20.8847 110.567 20.8847C110.935 20.8847 111.235 20.8076 111.467 20.6533C111.707 20.4905 111.883 20.3233 111.995 20.1519C112.067 20.049 112.119 19.989 112.151 19.9719C112.191 19.9462 112.259 19.9333 112.355 19.9333H112.943C113.015 19.9333 113.075 19.9548 113.123 19.9976C113.171 20.0405 113.195 20.1005 113.195 20.1776C113.195 20.3662 113.083 20.5933 112.859 20.859C112.643 21.1248 112.335 21.3562 111.935 21.5533C111.543 21.7419 111.091 21.8362 110.579 21.8362ZM112.223 17.8762V17.8376C112.223 17.2462 112.071 16.7662 111.767 16.3976C111.471 16.0205 111.071 15.8319 110.567 15.8319C110.063 15.8319 109.663 16.0205 109.367 16.3976C109.079 16.7662 108.935 17.2462 108.935 17.8376V17.8762H112.223ZM120.296 21.8362C119.416 21.8362 118.732 21.5705 118.244 21.039C117.764 20.5076 117.508 19.8005 117.476 18.9176L117.464 18.3647L117.476 17.8119C117.508 16.9376 117.768 16.2347 118.256 15.7033C118.744 15.1633 119.424 14.8933 120.296 14.8933C121.168 14.8933 121.848 15.1633 122.336 15.7033C122.824 16.2347 123.084 16.9376 123.116 17.8119C123.124 17.9062 123.128 18.0905 123.128 18.3647C123.128 18.639 123.124 18.8233 123.116 18.9176C123.084 19.8005 122.824 20.5076 122.336 21.039C121.856 21.5705 121.176 21.8362 120.296 21.8362ZM120.296 20.8462C120.8 20.8462 121.196 20.6748 121.484 20.3319C121.78 19.989 121.94 19.4962 121.964 18.8533C121.972 18.7676 121.976 18.6047 121.976 18.3647C121.976 18.1247 121.972 17.9619 121.964 17.8762C121.94 17.2333 121.78 16.7405 121.484 16.3976C121.196 16.0548 120.8 15.8833 120.296 15.8833C119.792 15.8833 119.392 16.0548 119.096 16.3976C118.8 16.7405 118.644 17.2333 118.628 17.8762L118.616 18.3647L118.628 18.8533C118.644 19.4962 118.8 19.989 119.096 20.3319C119.392 20.6748 119.792 20.8462 120.296 20.8462ZM124.906 21.7076C124.826 21.7076 124.758 21.6819 124.702 21.6305C124.654 21.5705 124.63 21.4976 124.63 21.4119V15.3176C124.63 15.2319 124.654 15.1633 124.702 15.1119C124.758 15.0519 124.826 15.0219 124.906 15.0219H125.47C125.55 15.0219 125.614 15.0519 125.662 15.1119C125.718 15.1633 125.746 15.2319 125.746 15.3176V15.8833C125.978 15.5662 126.25 15.3219 126.562 15.1505C126.882 14.979 127.278 14.8933 127.75 14.8933C128.518 14.8933 129.114 15.159 129.538 15.6905C129.97 16.2133 130.186 16.9119 130.186 17.7862V21.4119C130.186 21.4976 130.158 21.5705 130.102 21.6305C130.054 21.6819 129.99 21.7076 129.91 21.7076H129.31C129.23 21.7076 129.162 21.6819 129.106 21.6305C129.058 21.5705 129.034 21.4976 129.034 21.4119V17.8505C129.034 17.2419 128.894 16.7705 128.614 16.4362C128.342 16.1019 127.946 15.9348 127.426 15.9348C126.922 15.9348 126.522 16.1062 126.226 16.449C125.93 16.7833 125.782 17.2505 125.782 17.8505V21.4119C125.782 21.4976 125.754 21.5705 125.698 21.6305C125.65 21.6819 125.586 21.7076 125.506 21.7076H124.906ZM137.027 21.7076C135.763 21.7076 135.131 20.9533 135.131 19.4447V16.0505H134.195C134.115 16.0505 134.047 16.0247 133.991 15.9733C133.943 15.9133 133.919 15.8405 133.919 15.7548V15.3176C133.919 15.2319 133.943 15.1633 133.991 15.1119C134.047 15.0519 134.115 15.0219 134.195 15.0219H135.131V12.8748C135.131 12.789 135.155 12.7205 135.203 12.669C135.259 12.609 135.327 12.579 135.407 12.579H135.971C136.051 12.579 136.115 12.609 136.163 12.669C136.219 12.7205 136.247 12.789 136.247 12.8748V15.0219H137.735C137.815 15.0219 137.879 15.0519 137.927 15.1119C137.983 15.1633 138.011 15.2319 138.011 15.3176V15.7548C138.011 15.8405 137.983 15.9133 137.927 15.9733C137.879 16.0247 137.815 16.0505 137.735 16.0505H136.247V19.3547C136.247 19.7833 136.315 20.109 136.451 20.3319C136.587 20.5462 136.811 20.6533 137.123 20.6533H137.855C137.935 20.6533 137.999 20.6833 138.047 20.7433C138.103 20.7947 138.131 20.8633 138.131 20.949V21.4119C138.131 21.4976 138.103 21.5705 138.047 21.6305C137.999 21.6819 137.935 21.7076 137.855 21.7076H137.027ZM139.567 21.7076C139.487 21.7076 139.419 21.6819 139.363 21.6305C139.315 21.5705 139.291 21.4976 139.291 21.4119V12.8748C139.291 12.789 139.315 12.7205 139.363 12.669C139.419 12.609 139.487 12.579 139.567 12.579H140.167C140.247 12.579 140.311 12.609 140.359 12.669C140.415 12.7205 140.443 12.789 140.443 12.8748V15.8705C140.675 15.5533 140.947 15.3133 141.259 15.1505C141.571 14.979 141.959 14.8933 142.423 14.8933C143.191 14.8933 143.787 15.159 144.211 15.6905C144.643 16.2133 144.859 16.9119 144.859 17.7862V21.4119C144.859 21.4976 144.831 21.5705 144.775 21.6305C144.727 21.6819 144.663 21.7076 144.583 21.7076H143.983C143.903 21.7076 143.835 21.6819 143.779 21.6305C143.731 21.5705 143.707 21.4976 143.707 21.4119V17.8505C143.707 17.2419 143.567 16.7705 143.287 16.4362C143.015 16.1019 142.619 15.9348 142.099 15.9348C141.595 15.9348 141.191 16.1062 140.887 16.449C140.591 16.7833 140.443 17.2505 140.443 17.8505V21.4119C140.443 21.4976 140.415 21.5705 140.359 21.6305C140.311 21.6819 140.247 21.7076 140.167 21.7076H139.567ZM149.087 21.8362C148.263 21.8362 147.603 21.5662 147.107 21.0262C146.619 20.4776 146.351 19.7319 146.303 18.789L146.291 18.3519L146.303 17.9276C146.359 17.0019 146.631 16.2647 147.119 15.7162C147.615 15.1676 148.267 14.8933 149.075 14.8933C149.963 14.8933 150.651 15.1976 151.139 15.8062C151.627 16.4062 151.871 17.2205 151.871 18.249V18.4676C151.871 18.5533 151.843 18.6262 151.787 18.6862C151.739 18.7376 151.675 18.7633 151.595 18.7633H147.443V18.879C147.467 19.4362 147.623 19.9119 147.911 20.3062C148.207 20.6919 148.595 20.8847 149.075 20.8847C149.443 20.8847 149.743 20.8076 149.975 20.6533C150.215 20.4905 150.391 20.3233 150.503 20.1519C150.575 20.049 150.627 19.989 150.659 19.9719C150.699 19.9462 150.767 19.9333 150.863 19.9333H151.451C151.523 19.9333 151.583 19.9548 151.631 19.9976C151.679 20.0405 151.703 20.1005 151.703 20.1776C151.703 20.3662 151.591 20.5933 151.367 20.859C151.151 21.1248 150.843 21.3562 150.443 21.5533C150.051 21.7419 149.599 21.8362 149.087 21.8362ZM150.731 17.8762V17.8376C150.731 17.2462 150.579 16.7662 150.275 16.3976C149.979 16.0205 149.579 15.8319 149.075 15.8319C148.571 15.8319 148.171 16.0205 147.875 16.3976C147.587 16.7662 147.443 17.2462 147.443 17.8376V17.8762H150.731Z" fill="#182841"/>
</g>
<rect x="1" y="1" width="200" height="60" rx="10" stroke="#B0A6A6"/>
</g>
<defs>
<linearGradient id="paint0_linear_1522_13401" x1="20.422" y1="14.3725" x2="49.9387" y2="43.541" gradientUnits="userSpaceOnUse">
<stop stop-color="#C72CCE"/>
<stop offset="1" stop-color="#FE5B5B"/>
</linearGradient>
<clipPath id="clip0_1522_13401">
<rect x="1" y="1" width="200" height="60" rx="10" fill="white"/>
</clipPath>
</defs>
</svg>
