<svg width="206" height="62" viewBox="0 0 206 62" fill="none" xmlns="http://www.w3.org/2000/svg">
<g id="indus_store_white 1">
<g clip-path="url(#clip0_1522_13450)">
<path id="Vector" d="M205 1H1V60.716H205V1Z" fill="white"/>
<path id="Vector_2" d="M35.0362 18.5232C35.0362 23.1926 31.4088 26.9792 26.9336 26.9792C22.4584 26.9792 18.832 23.1926 18.832 18.5232C18.832 13.8537 22.4594 10.0671 26.9346 10.0671C31.4099 10.0671 35.0362 13.8527 35.0362 18.5232ZM34.5311 34.2149V26.813L26.9346 32.7805L19.3371 26.812V34.2139L26.9336 40.1813L34.5301 34.2139L34.5311 34.2149ZM34.5311 45.6813V38.2794L26.9346 44.2469L19.3371 38.2794V45.6813L26.9336 51.6489L34.5311 45.6813Z" fill="url(#paint0_linear_1522_13450)"/>
<path id="Vector_3" opacity="0.8" d="M49.3571 20.614C49.2771 20.614 49.2091 20.5896 49.1531 20.5408C49.1051 20.4838 49.0811 20.4147 49.0811 20.3333V12.3645C49.0811 12.275 49.1051 12.2059 49.1531 12.1571C49.2091 12.1001 49.2771 12.0716 49.3571 12.0716H52.0811C53.2891 12.0716 54.1611 12.3482 54.6971 12.9015C55.2331 13.4465 55.5131 14.2723 55.5371 15.3787C55.5451 15.6147 55.5491 15.932 55.5491 16.3306C55.5491 16.7293 55.5451 17.0506 55.5371 17.2947C55.5131 18.0676 55.3851 18.6981 55.1531 19.1862C54.9291 19.6662 54.5731 20.0242 54.0851 20.2601C53.5971 20.496 52.9491 20.614 52.1411 20.614H49.3571ZM52.0811 19.5767C52.6331 19.5767 53.0691 19.4994 53.3891 19.3448C53.7171 19.1903 53.9531 18.9462 54.0971 18.6126C54.2491 18.2709 54.3331 17.8154 54.3491 17.2459C54.3651 16.7577 54.3731 16.4526 54.3731 16.3306C54.3731 16.2004 54.3651 15.8994 54.3491 15.4276C54.3331 14.6221 54.1451 14.0364 53.7851 13.6703C53.4251 13.296 52.8371 13.1089 52.0211 13.1089H50.2571V19.5767H52.0811ZM59.7545 20.736C58.8745 20.736 58.1905 20.4838 57.7025 19.9794C57.2225 19.475 56.9665 18.8038 56.9345 17.9659L56.9225 17.4411L56.9345 16.9164C56.9665 16.0865 57.2265 15.4194 57.7145 14.915C58.2025 14.4025 58.8825 14.1462 59.7545 14.1462C60.6265 14.1462 61.3065 14.4025 61.7945 14.915C62.2825 15.4194 62.5425 16.0865 62.5745 16.9164C62.5825 17.0059 62.5865 17.1808 62.5865 17.4411C62.5865 17.7015 62.5825 17.8764 62.5745 17.9659C62.5425 18.8038 62.2825 19.475 61.7945 19.9794C61.3145 20.4838 60.6345 20.736 59.7545 20.736ZM59.7545 19.7964C60.2585 19.7964 60.6545 19.6337 60.9425 19.3082C61.2385 18.9828 61.3985 18.515 61.4225 17.9048C61.4305 17.8235 61.4345 17.6689 61.4345 17.4411C61.4345 17.2133 61.4305 17.0587 61.4225 16.9774C61.3985 16.3672 61.2385 15.8994 60.9425 15.574C60.6545 15.2486 60.2585 15.0859 59.7545 15.0859C59.2505 15.0859 58.8505 15.2486 58.5545 15.574C58.2585 15.8994 58.1025 16.3672 58.0865 16.9774L58.0745 17.4411L58.0865 17.9048C58.1025 18.515 58.2585 18.9828 58.5545 19.3082C58.8505 19.6337 59.2505 19.7964 59.7545 19.7964ZM65.5811 20.614C65.4771 20.614 65.3971 20.5896 65.3411 20.5408C65.2851 20.492 65.2371 20.4147 65.1971 20.3089L63.4931 14.6465L63.4691 14.5245C63.4691 14.4513 63.4931 14.3903 63.5411 14.3415C63.5971 14.2926 63.6571 14.2682 63.7211 14.2682H64.2491C64.3291 14.2682 64.3931 14.2926 64.4411 14.3415C64.4971 14.3821 64.5331 14.4269 64.5491 14.4757L65.8811 19.0764L67.3091 14.5245C67.3251 14.4594 67.3611 14.4025 67.4171 14.3537C67.4731 14.2967 67.5491 14.2682 67.6451 14.2682H68.0531C68.1491 14.2682 68.2251 14.2967 68.2811 14.3537C68.3371 14.4025 68.3731 14.4594 68.3891 14.5245L69.8171 19.0764L71.1491 14.4757C71.1571 14.435 71.1851 14.3903 71.2331 14.3415C71.2891 14.2926 71.3571 14.2682 71.4371 14.2682H71.9771C72.0411 14.2682 72.0971 14.2926 72.1451 14.3415C72.1931 14.3903 72.2171 14.4513 72.2171 14.5245L72.1931 14.6465L70.5011 20.3089C70.4611 20.4147 70.4131 20.492 70.3571 20.5408C70.3011 20.5896 70.2171 20.614 70.1051 20.614H69.6371C69.4211 20.614 69.2891 20.5123 69.2411 20.3089L67.8491 15.9401L66.4571 20.3089C66.3931 20.5123 66.2571 20.614 66.0491 20.614H65.5811ZM73.8222 20.614C73.7422 20.614 73.6742 20.5896 73.6182 20.5408C73.5702 20.4838 73.5462 20.4147 73.5462 20.3333V14.5489C73.5462 14.4676 73.5702 14.4025 73.6182 14.3537C73.6742 14.2967 73.7422 14.2682 73.8222 14.2682H74.3862C74.4662 14.2682 74.5302 14.2967 74.5782 14.3537C74.6342 14.4025 74.6622 14.4676 74.6622 14.5489V15.0859C74.8942 14.7848 75.1662 14.553 75.4782 14.3903C75.7982 14.2276 76.1942 14.1462 76.6662 14.1462C77.4342 14.1462 78.0302 14.3984 78.4542 14.9028C78.8862 15.3991 79.1022 16.0621 79.1022 16.892V20.3333C79.1022 20.4147 79.0742 20.4838 79.0182 20.5408C78.9702 20.5896 78.9062 20.614 78.8262 20.614H78.2262C78.1462 20.614 78.0782 20.5896 78.0222 20.5408C77.9742 20.4838 77.9502 20.4147 77.9502 20.3333V16.953C77.9502 16.3754 77.8102 15.9279 77.5302 15.6106C77.2582 15.2933 76.8622 15.1347 76.3422 15.1347C75.8382 15.1347 75.4382 15.2974 75.1422 15.6228C74.8462 15.9401 74.6982 16.3835 74.6982 16.953V20.3333C74.6982 20.4147 74.6702 20.4838 74.6142 20.5408C74.5662 20.5896 74.5022 20.614 74.4222 20.614H73.8222ZM81.1115 20.614C81.0315 20.614 80.9635 20.5896 80.9075 20.5408C80.8595 20.4838 80.8355 20.4147 80.8355 20.3333V12.2303C80.8355 12.1489 80.8595 12.0838 80.9075 12.035C80.9635 11.9781 81.0315 11.9496 81.1115 11.9496H81.6755C81.7555 11.9496 81.8195 11.9781 81.8675 12.035C81.9235 12.0838 81.9515 12.1489 81.9515 12.2303V20.3333C81.9515 20.4147 81.9235 20.4838 81.8675 20.5408C81.8195 20.5896 81.7555 20.614 81.6755 20.614H81.1115ZM86.2975 20.736C85.4175 20.736 84.7335 20.4838 84.2455 19.9794C83.7655 19.475 83.5095 18.8038 83.4775 17.9659L83.4655 17.4411L83.4775 16.9164C83.5095 16.0865 83.7695 15.4194 84.2575 14.915C84.7455 14.4025 85.4255 14.1462 86.2975 14.1462C87.1695 14.1462 87.8495 14.4025 88.3375 14.915C88.8255 15.4194 89.0855 16.0865 89.1175 16.9164C89.1255 17.0059 89.1295 17.1808 89.1295 17.4411C89.1295 17.7015 89.1255 17.8764 89.1175 17.9659C89.0855 18.8038 88.8255 19.475 88.3375 19.9794C87.8575 20.4838 87.1775 20.736 86.2975 20.736ZM86.2975 19.7964C86.8015 19.7964 87.1975 19.6337 87.4855 19.3082C87.7815 18.9828 87.9415 18.515 87.9655 17.9048C87.9735 17.8235 87.9775 17.6689 87.9775 17.4411C87.9775 17.2133 87.9735 17.0587 87.9655 16.9774C87.9415 16.3672 87.7815 15.8994 87.4855 15.574C87.1975 15.2486 86.8015 15.0859 86.2975 15.0859C85.7935 15.0859 85.3935 15.2486 85.0975 15.574C84.8015 15.8994 84.6455 16.3672 84.6295 16.9774L84.6175 17.4411L84.6295 17.9048C84.6455 18.515 84.8015 18.9828 85.0975 19.3082C85.3935 19.6337 85.7935 19.7964 86.2975 19.7964ZM92.3721 20.736C91.9801 20.736 91.6161 20.6547 91.2801 20.492C90.9441 20.3293 90.6761 20.1096 90.4761 19.833C90.2841 19.5482 90.1881 19.235 90.1881 18.8933C90.1881 18.3564 90.4041 17.9171 90.8361 17.5754C91.2761 17.2255 91.8681 16.9977 92.6121 16.892L94.4001 16.6357V16.2818C94.4001 15.452 93.9321 15.0371 92.9961 15.0371C92.6441 15.0371 92.3561 15.1143 92.1321 15.2689C91.9081 15.4154 91.7401 15.5903 91.6281 15.7937C91.6041 15.8669 91.5721 15.9198 91.5321 15.9523C91.5001 15.9848 91.4521 16.0011 91.3881 16.0011H90.8721C90.8001 16.0011 90.7361 15.9767 90.6801 15.9279C90.6321 15.8709 90.6081 15.8059 90.6081 15.7326C90.6161 15.5374 90.7041 15.3177 90.8721 15.0737C91.0481 14.8215 91.3161 14.6059 91.6761 14.4269C92.0361 14.2398 92.4801 14.1462 93.0081 14.1462C93.9041 14.1462 94.5481 14.3618 94.9401 14.793C95.3321 15.216 95.5281 15.7448 95.5281 16.3794V20.3333C95.5281 20.4147 95.5001 20.4838 95.4441 20.5408C95.3961 20.5896 95.3321 20.614 95.2521 20.614H94.7001C94.6201 20.614 94.5521 20.5896 94.4961 20.5408C94.4481 20.4838 94.4241 20.4147 94.4241 20.3333V19.8086C94.2481 20.0689 93.9921 20.2886 93.6561 20.4676C93.3201 20.6465 92.8921 20.736 92.3721 20.736ZM92.6241 19.8208C93.1441 19.8208 93.5681 19.6499 93.8961 19.3082C94.2321 18.9584 94.4001 18.4581 94.4001 17.8072V17.4655L93.0081 17.673C92.4401 17.7543 92.0121 17.8926 91.7241 18.0879C91.4361 18.275 91.2921 18.515 91.2921 18.8079C91.2921 19.1333 91.4241 19.3855 91.6881 19.5645C91.9521 19.7354 92.2641 19.8208 92.6241 19.8208ZM99.5332 20.736C98.7012 20.736 98.0732 20.4594 97.6492 19.9062C97.2252 19.353 97.0012 18.6533 96.9772 17.8072L96.9652 17.4411L96.9772 17.075C97.0012 16.2371 97.2252 15.5415 97.6492 14.9882C98.0732 14.4269 98.7012 14.1462 99.5332 14.1462C100.357 14.1462 101.005 14.4432 101.477 15.0371V12.2303C101.477 12.1489 101.501 12.0838 101.549 12.035C101.605 11.9781 101.673 11.9496 101.753 11.9496H102.329C102.409 11.9496 102.473 11.9781 102.521 12.035C102.577 12.0838 102.605 12.1489 102.605 12.2303V20.3333C102.605 20.4147 102.577 20.4838 102.521 20.5408C102.473 20.5896 102.409 20.614 102.329 20.614H101.789C101.709 20.614 101.641 20.5896 101.585 20.5408C101.537 20.4838 101.513 20.4147 101.513 20.3333V19.8208C101.049 20.4309 100.389 20.736 99.5332 20.736ZM99.7852 19.7476C100.337 19.7476 100.749 19.5645 101.021 19.1984C101.301 18.8242 101.453 18.3808 101.477 17.8682C101.485 17.7787 101.489 17.6242 101.489 17.4045C101.489 17.1767 101.485 17.0181 101.477 16.9286C101.461 16.4486 101.309 16.0296 101.021 15.6716C100.733 15.3137 100.321 15.1347 99.7852 15.1347C99.2172 15.1347 98.8012 15.3137 98.5372 15.6716C98.2812 16.0296 98.1412 16.5015 98.1172 17.0872L98.1052 17.4411C98.1052 18.9787 98.6652 19.7476 99.7852 19.7476ZM109.887 20.736C109.007 20.736 108.323 20.4838 107.835 19.9794C107.355 19.475 107.099 18.8038 107.067 17.9659L107.055 17.4411L107.067 16.9164C107.099 16.0865 107.359 15.4194 107.847 14.915C108.335 14.4025 109.015 14.1462 109.887 14.1462C110.759 14.1462 111.439 14.4025 111.927 14.915C112.415 15.4194 112.675 16.0865 112.707 16.9164C112.715 17.0059 112.719 17.1808 112.719 17.4411C112.719 17.7015 112.715 17.8764 112.707 17.9659C112.675 18.8038 112.415 19.475 111.927 19.9794C111.447 20.4838 110.767 20.736 109.887 20.736ZM109.887 19.7964C110.391 19.7964 110.787 19.6337 111.075 19.3082C111.371 18.9828 111.531 18.515 111.555 17.9048C111.563 17.8235 111.567 17.6689 111.567 17.4411C111.567 17.2133 111.563 17.0587 111.555 16.9774C111.531 16.3672 111.371 15.8994 111.075 15.574C110.787 15.2486 110.391 15.0859 109.887 15.0859C109.383 15.0859 108.983 15.2486 108.687 15.574C108.391 15.8994 108.235 16.3672 108.219 16.9774L108.207 17.4411L108.219 17.9048C108.235 18.515 108.391 18.9828 108.687 19.3082C108.983 19.6337 109.383 19.7964 109.887 19.7964ZM114.498 20.614C114.418 20.614 114.35 20.5896 114.294 20.5408C114.246 20.4838 114.222 20.4147 114.222 20.3333V14.5489C114.222 14.4676 114.246 14.4025 114.294 14.3537C114.35 14.2967 114.418 14.2682 114.498 14.2682H115.062C115.142 14.2682 115.206 14.2967 115.254 14.3537C115.31 14.4025 115.338 14.4676 115.338 14.5489V15.0859C115.57 14.7848 115.842 14.553 116.154 14.3903C116.474 14.2276 116.87 14.1462 117.342 14.1462C118.11 14.1462 118.706 14.3984 119.13 14.9028C119.562 15.3991 119.778 16.0621 119.778 16.892V20.3333C119.778 20.4147 119.75 20.4838 119.694 20.5408C119.646 20.5896 119.582 20.614 119.502 20.614H118.902C118.822 20.614 118.754 20.5896 118.698 20.5408C118.65 20.4838 118.626 20.4147 118.626 20.3333V16.953C118.626 16.3754 118.486 15.9279 118.206 15.6106C117.934 15.2933 117.538 15.1347 117.018 15.1347C116.514 15.1347 116.114 15.2974 115.818 15.6228C115.522 15.9401 115.374 16.3835 115.374 16.953V20.3333C115.374 20.4147 115.346 20.4838 115.29 20.5408C115.242 20.5896 115.178 20.614 115.098 20.614H114.498Z" fill="#182841"/>
<path id="Vector_4" d="M54.6065 49.9415H50.0371V26.7157H54.6065V49.9403V49.9415Z" fill="#182841"/>
<path id="Vector_5" d="M72.2578 49.942H67.9999V41.8904C67.9999 40.7135 67.7347 39.7949 67.2067 39.1346C66.6774 38.4744 65.9478 38.1436 65.0182 38.1436C64.3657 38.1436 63.7894 38.3067 63.2898 38.6316C62.7902 38.9566 62.4019 39.4159 62.1245 40.0096C61.8473 40.6033 61.7086 41.3129 61.7086 42.1383V49.942H57.4507V34.1293H60.8922L61.0408 36.9368C61.5745 36.0286 62.2874 35.3373 63.1775 34.862C64.0677 34.3878 65.0965 34.15 66.2637 34.15C68.1232 34.15 69.5864 34.7459 70.6547 35.9378C71.7231 37.1297 72.2571 38.7637 72.2571 40.8386V49.943L72.2578 49.942Z" fill="#182841"/>
<path id="Vector_6" d="M91.1324 49.9413H87.3938L87.1713 47.8354C86.5389 48.5783 85.7797 49.1674 84.8939 49.6002C84.0082 50.0342 83.0423 50.2501 81.9937 50.2501C80.638 50.2501 79.4289 49.9022 78.3661 49.2052C77.3033 48.5082 76.4646 47.5505 75.8509 46.3335C75.2371 45.1152 74.9312 43.7373 74.9312 42.1998C74.9312 40.6622 75.2378 39.2705 75.8509 38.058C76.4639 36.8454 77.3022 35.8901 78.3661 35.1931C79.4289 34.4961 80.638 34.1483 81.9937 34.1483C82.9628 34.1483 83.8651 34.3319 84.7015 34.6981C85.5374 35.0645 86.2615 35.5731 86.8745 36.2231V26.7167H91.1324V49.9413ZM83.0916 46.2715C83.7936 46.2715 84.4295 46.1062 84.9983 45.7755C85.5675 45.4446 86.0215 44.9934 86.3638 44.4205C86.705 43.8475 86.8757 43.1953 86.8757 42.4615V41.9046C86.8757 41.172 86.705 40.521 86.3638 39.9537C86.0227 39.3866 85.5675 38.9399 84.9983 38.6149C84.4295 38.29 83.7936 38.1269 83.0916 38.1269C82.3897 38.1269 81.7217 38.3026 81.1486 38.6528C80.5756 39.0042 80.1222 39.4864 79.791 40.1008C79.4598 40.7151 79.2934 41.4144 79.2934 42.1985C79.2934 42.9828 79.4586 43.6672 79.791 44.2816C80.1222 44.8958 80.5744 45.3805 81.1486 45.7375C81.7217 46.0936 82.3699 46.2715 83.0916 46.2715Z" fill="#182841"/>
<path id="Vector_7" d="M108.787 49.9421H105.33L105.182 47.4641C104.657 48.3724 103.962 49.0648 103.096 49.539C102.231 50.0133 101.219 50.2509 100.062 50.2509C98.1628 50.2509 96.674 49.6424 95.5958 48.4241C94.5176 47.2057 93.9785 45.5338 93.9785 43.4074V34.1283H98.2364V42.3854C98.2364 43.5934 98.5107 44.5407 99.0597 45.2262C99.6086 45.9128 100.358 46.2561 101.307 46.2561C102.257 46.2561 103.08 45.8979 103.659 45.1802C104.237 44.4625 104.527 43.4901 104.527 42.2613V34.1283H108.785V49.9409L108.787 49.9421Z" fill="#182841"/>
<path id="Vector_8" d="M111.278 48.61L112.213 44.8322C112.51 45.1732 112.907 45.4879 113.408 45.7771C113.907 46.0665 114.446 46.2961 115.025 46.4662C115.604 46.6361 116.15 46.7221 116.665 46.7221C117.278 46.7221 117.757 46.6004 118.104 46.3582C118.45 46.1158 118.623 45.7876 118.623 45.3752C118.623 45.0342 118.506 44.7483 118.274 44.5164C118.042 44.2844 117.731 44.0778 117.339 43.8975C116.948 43.7171 116.516 43.5392 116.041 43.3636C115.398 43.1052 114.738 42.8067 114.06 42.4656C113.382 42.1246 112.811 41.6608 112.347 41.0717C111.882 40.4838 111.65 39.7041 111.65 38.7338C111.65 37.7634 111.882 36.9977 112.347 36.3109C112.811 35.6243 113.47 35.0927 114.32 34.716C115.171 34.3395 116.159 34.1511 117.288 34.1511C119.117 34.1511 120.942 34.631 122.762 35.591L121.561 39.1058C121.244 38.8474 120.849 38.6075 120.374 38.3859C119.899 38.1642 119.412 37.9862 118.912 37.8519C118.413 37.7176 117.965 37.6509 117.57 37.6509C117.085 37.6509 116.708 37.7544 116.435 37.9609C116.163 38.1677 116.027 38.4513 116.027 38.813C116.027 39.0817 116.12 39.3217 116.308 39.5329C116.496 39.7442 116.776 39.9463 117.146 40.1369C117.518 40.3275 117.975 40.5319 118.519 40.749C119.191 41.0073 119.871 41.3139 120.558 41.6698C121.246 42.0258 121.825 42.5012 122.295 43.0949C122.764 43.6885 123 44.475 123 45.4557C123 46.4363 122.75 47.2574 122.25 47.9795C121.751 48.7017 121.049 49.2621 120.143 49.6594C119.238 50.0567 118.178 50.2554 116.962 50.2554C114.934 50.2554 113.04 49.7087 111.279 48.6145L111.278 48.61Z" fill="#182841"/>
<path id="Vector_9" d="M130.023 46.9849H128L131.743 37.1871H133.778L137.516 46.9849H135.494L134.724 44.8805H130.793L130.023 46.9849ZM131.424 43.1175H134.096L132.756 39.4855L131.424 43.1175Z" fill="#182841"/>
<path id="Vector_10" d="M140.738 50.2507H138.936V40.4527H140.513L140.607 41.3411C140.873 41.0235 141.193 40.7743 141.567 40.594C141.941 40.4136 142.349 40.3234 142.79 40.3234C143.366 40.3234 143.877 40.4703 144.323 40.7646C144.771 41.0588 145.123 41.4607 145.382 41.9726C145.641 42.4845 145.769 43.0669 145.769 43.72C145.769 44.3731 145.639 44.9494 145.382 45.4637C145.123 45.9772 144.771 46.3811 144.323 46.6755C143.877 46.9693 143.366 47.1165 142.79 47.1165C142.381 47.1165 142.003 47.0382 141.654 46.8854C141.306 46.7303 141 46.5162 140.736 46.2422V50.2529L140.738 50.2507ZM142.333 45.43C142.647 45.43 142.922 45.3573 143.16 45.2101C143.399 45.0636 143.585 44.8613 143.721 44.6025C143.856 44.3437 143.923 44.0476 143.923 43.718C143.923 43.3886 143.856 43.0866 143.721 42.8297C143.585 42.5727 143.397 42.3708 143.16 42.2217C142.924 42.0726 142.649 42.0001 142.342 42.0001C142.05 42.0001 141.787 42.0668 141.552 42.2002C141.319 42.3335 141.129 42.5179 140.986 42.7512C140.842 42.9866 140.759 43.2573 140.738 43.5613V43.8886C140.759 44.1846 140.84 44.4496 140.983 44.6833C141.125 44.9164 141.311 45.0989 141.546 45.232C141.779 45.3652 142.043 45.432 142.336 45.432L142.333 45.43Z" fill="#182841"/>
<path id="Vector_11" d="M149.226 50.2526H147.425V40.4548H149.001L149.095 41.3431C149.362 41.0254 149.681 40.7763 150.055 40.5959C150.429 40.4154 150.837 40.3253 151.279 40.3253C151.854 40.3253 152.365 40.4724 152.812 40.7666C153.259 41.0608 153.611 41.4628 153.87 41.9746C154.129 42.4864 154.257 43.0689 154.257 43.722C154.257 44.3751 154.127 44.9514 153.87 45.4657C153.611 45.9793 153.259 46.383 152.812 46.6774C152.365 46.9711 151.854 47.1185 151.279 47.1185C150.869 47.1185 150.491 47.0402 150.142 46.8874C149.794 46.7323 149.488 46.5182 149.224 46.2443V50.2548L149.226 50.2526ZM150.822 45.4319C151.135 45.4319 151.41 45.3593 151.648 45.2121C151.887 45.0656 152.074 44.8634 152.209 44.6045C152.344 44.3455 152.412 44.0496 152.412 43.72C152.412 43.3905 152.344 43.0886 152.209 42.8316C152.074 42.5747 151.885 42.3726 151.648 42.2237C151.412 42.0746 151.137 42.0022 150.83 42.0022C150.538 42.0022 150.275 42.0686 150.041 42.202C149.807 42.3355 149.617 42.5198 149.475 42.7532C149.33 42.9884 149.247 43.2592 149.226 43.5632V43.8905C149.247 44.1867 149.328 44.4515 149.471 44.6853C149.614 44.9184 149.799 45.1008 150.034 45.234C150.267 45.3672 150.531 45.4341 150.824 45.4341L150.822 45.4319Z" fill="#182841"/>
<path id="Vector_12" d="M155.47 46.4247L155.865 44.8297C155.99 44.9734 156.157 45.1065 156.368 45.2277C156.579 45.3497 156.806 45.4476 157.05 45.518C157.294 45.5905 157.526 45.6265 157.742 45.6265C158.001 45.6265 158.202 45.5751 158.349 45.4729C158.495 45.3715 158.569 45.232 158.569 45.0593C158.569 44.9164 158.519 44.7945 158.422 44.6966C158.324 44.5986 158.193 44.5123 158.027 44.4358C157.862 44.3593 157.68 44.2849 157.479 44.2104C157.208 44.1025 156.928 43.975 156.642 43.8319C156.357 43.6886 156.116 43.4925 155.919 43.2434C155.722 42.9945 155.624 42.667 155.624 42.2571C155.624 41.8472 155.722 41.5235 155.919 41.2353C156.114 40.945 156.392 40.7215 156.752 40.5626C157.111 40.4037 157.528 40.3234 158.003 40.3234C158.775 40.3234 159.544 40.5253 160.312 40.9313L159.805 42.4138C159.672 42.3041 159.504 42.2041 159.305 42.1099C159.104 42.0159 158.9 41.9414 158.689 41.8844C158.478 41.8275 158.289 41.7999 158.123 41.7999C157.919 41.7999 157.759 41.8432 157.644 41.9314C157.529 42.0177 157.471 42.1372 157.471 42.2903C157.471 42.4042 157.51 42.5041 157.589 42.5944C157.668 42.6845 157.787 42.7687 157.943 42.8493C158.099 42.9296 158.293 43.016 158.522 43.1061C158.805 43.216 159.093 43.3455 159.382 43.4945C159.672 43.6434 159.916 43.8455 160.115 44.0946C160.315 44.3437 160.412 44.6768 160.412 45.0912C160.412 45.5047 160.307 45.8519 160.096 46.1555C159.886 46.4599 159.589 46.6973 159.207 46.8635C158.826 47.0306 158.379 47.1143 157.866 47.1143C157.011 47.1143 156.21 46.8833 155.468 46.4226L155.47 46.4247Z" fill="#182841"/>
<path id="Vector_13" d="M166.333 46.8143C165.854 47.0144 165.388 47.1145 164.937 47.1145C164.486 47.1145 164.057 47.0101 163.7 46.8045C163.344 46.5987 163.065 46.3085 162.864 45.9358C162.663 45.5631 162.563 45.1335 162.563 44.6452V42.1232H161.468V40.4503H162.657V38.8168H164.36V40.4503H166.094V42.1232H164.36V44.3059C164.36 44.6628 164.454 44.9412 164.642 45.1397C164.829 45.3377 165.063 45.4356 165.342 45.4356C165.596 45.4356 165.847 45.3532 166.087 45.1863L166.331 46.8121L166.333 46.8143Z" fill="#182841"/>
<path id="Vector_14" d="M170.863 47.1176C170.22 47.1176 169.645 46.9704 169.136 46.6765C168.627 46.3821 168.228 45.9806 167.938 45.4683C167.648 44.9563 167.503 44.374 167.503 43.7209C167.503 43.0678 167.648 42.4913 167.938 41.9795C168.227 41.4677 168.627 41.0636 169.136 40.7676C169.645 40.4715 170.22 40.3224 170.863 40.3224C171.506 40.3224 172.079 40.4715 172.581 40.7676C173.083 41.0636 173.479 41.4677 173.77 41.9795C174.059 42.4913 174.205 43.0719 174.205 43.7209C174.205 44.3702 174.059 44.9563 173.77 45.4683C173.481 45.9806 173.085 46.3821 172.581 46.6765C172.077 46.9704 171.506 47.1176 170.863 47.1176ZM170.858 45.4387C171.145 45.4387 171.402 45.3642 171.63 45.2134C171.858 45.0627 172.038 44.8583 172.167 44.5997C172.299 44.3406 172.364 44.0445 172.364 43.7151C172.364 43.3856 172.299 43.0974 172.167 42.8404C172.036 42.5835 171.858 42.3796 171.63 42.2307C171.402 42.0816 171.145 42.005 170.858 42.005C170.57 42.005 170.305 42.0795 170.078 42.2307C169.85 42.3816 169.672 42.5856 169.54 42.8404C169.409 43.0974 169.343 43.3896 169.343 43.7151C169.343 44.0406 169.409 44.3406 169.54 44.5997C169.672 44.8583 169.85 45.0627 170.078 45.2134C170.305 45.3642 170.565 45.4387 170.858 45.4387Z" fill="#182841"/>
<path id="Vector_15" d="M177.645 46.9864H175.849V40.4539H177.414L177.476 41.5834C177.685 41.1873 177.968 40.8773 178.327 40.6557C178.686 40.4341 179.098 40.3224 179.56 40.3224C179.693 40.3224 179.828 40.3323 179.963 40.3518C180.099 40.3714 180.238 40.4009 180.379 40.44L180.154 42.1246C179.877 42.0422 179.618 42.001 179.372 42.001C179.026 42.001 178.721 42.0834 178.46 42.2462C178.199 42.4089 177.999 42.6365 177.858 42.9247C177.714 43.2151 177.645 43.5523 177.645 43.9406V46.9844V46.9864Z" fill="#182841"/>
<path id="Vector_16" d="M187.484 46.2545C186.708 46.8293 185.859 47.1176 184.936 47.1176C184.252 47.1176 183.638 46.9648 183.093 46.6568C182.548 46.3489 182.119 45.9334 181.804 45.4058C181.488 44.878 181.33 44.2839 181.33 43.623C181.33 42.962 181.473 42.4265 181.759 41.9305C182.044 41.4343 182.433 41.0421 182.926 40.7539C183.418 40.4657 183.978 40.3224 184.604 40.3224C185.23 40.3224 185.82 40.4793 186.312 40.7948C186.804 41.1107 187.187 41.55 187.463 42.1149C187.74 42.6796 187.877 43.3308 187.877 44.0721V44.2819H183.264C183.339 44.5387 183.461 44.7647 183.631 44.9583C183.799 45.1528 184.012 45.3055 184.269 45.419C184.526 45.5331 184.818 45.5903 185.149 45.5903C185.787 45.5903 186.381 45.374 186.932 44.9428L187.482 46.2566L187.484 46.2545ZM183.185 43.3287H186.22C186.186 43.0463 186.101 42.7953 185.966 42.5816C185.831 42.3658 185.654 42.1971 185.434 42.0756C185.214 41.9541 184.97 41.8932 184.698 41.8932C184.425 41.8932 184.177 41.9559 183.963 42.0834C183.749 42.2109 183.574 42.3796 183.44 42.5934C183.307 42.8071 183.221 43.0523 183.183 43.3308L183.185 43.3287Z" fill="#182841"/>
</g>
<rect x="1" y="1" width="204" height="60" rx="10" stroke="#B0A6A6"/>
</g>
<defs>
<linearGradient id="paint0_linear_1522_13450" x1="26.9346" y1="14.8494" x2="26.9346" y2="40.7318" gradientUnits="userSpaceOnUse">
<stop stop-color="#FDAB04"/>
<stop offset="0.67" stop-color="#FD6B00"/>
<stop offset="1" stop-color="#DC007B"/>
</linearGradient>
<clipPath id="clip0_1522_13450">
<rect x="1" y="1" width="204" height="60" rx="10" fill="white"/>
</clipPath>
</defs>
</svg>
