<svg width="196" height="62" viewBox="0 0 196 62" fill="none" xmlns="http://www.w3.org/2000/svg">
<g id="app_store_white 1">
<g clip-path="url(#clip0_1522_13423)">
<path id="Vector" d="M194.475 1H1V60.2641H194.475V1Z" fill="white"/>
<path id="Vector_2" d="M43.8128 29.4597C43.7682 24.8145 47.611 22.5587 47.7893 22.4517C45.6138 19.2776 42.2346 18.8408 41.0488 18.8051C38.2135 18.5109 35.4674 20.4991 34.023 20.4991C32.5786 20.4991 30.3228 18.8318 27.9334 18.8764C24.8484 18.9299 21.9686 20.7131 20.3815 23.4771C17.1183 29.1298 19.5523 37.4306 22.6818 42.0045C24.2511 44.2424 26.0788 46.7389 28.4683 46.6498C30.8043 46.5517 31.6781 45.1608 34.5045 45.1608C37.3308 45.1608 38.1243 46.6498 40.5673 46.5963C43.0816 46.5517 44.6598 44.3494 46.1666 42.0937C47.9765 39.5259 48.6987 37.0026 48.7344 36.8778C48.672 36.86 43.8573 35.0233 43.8038 29.4508" fill="#182841"/>
<path id="Vector_3" d="M39.2031 15.8095C40.4603 14.2314 41.3251 12.0915 41.0844 9.91602C39.2655 9.99626 36.983 11.1732 35.6724 12.7156C34.5133 14.0709 33.4701 16.2999 33.7376 18.3862C35.7883 18.5378 37.8836 17.352 39.2031 15.8006" fill="#182841"/>
<g id="Group" opacity="0.8">
<path id="Vector_4" d="M65.7017 17.1475L64.8904 19.8044H63.125L66.1297 10.4248H68.3141L71.3634 19.8044H69.5267L68.6797 17.1475H65.7017ZM68.3854 15.8546L67.6454 13.5454C67.4671 12.9748 67.3155 12.3328 67.1729 11.789H67.1461C67.0035 12.3328 66.8697 12.9837 66.7003 13.5454L65.9781 15.8546H68.3854Z" fill="#182841"/>
<path id="Vector_5" d="M73.9223 13.0283L75.0189 16.4699C75.2151 17.0673 75.3488 17.6111 75.4826 18.1639H75.5271C75.652 17.6111 75.8035 17.0762 75.9908 16.4699L77.0785 13.0283H78.8707L76.285 19.8045H74.5999L72.0767 13.0283H73.9312H73.9223Z" fill="#182841"/>
<path id="Vector_6" d="M85.7004 18.1809C85.7004 18.7961 85.7272 19.3934 85.8074 19.8125H84.2649L84.1401 19.0636H84.0955C83.6943 19.5896 82.981 19.9641 82.0894 19.9641C80.7253 19.9641 79.9585 18.9744 79.9585 17.9491C79.9585 16.255 81.4742 15.3723 83.9796 15.3902V15.2832C83.9796 14.8374 83.8013 14.0973 82.5976 14.0973C81.9289 14.0973 81.2335 14.3024 80.7788 14.5966L80.4489 13.4821C80.9482 13.179 81.8309 12.8848 82.9008 12.8848C85.0763 12.8848 85.7004 14.2667 85.7004 15.7557V18.1898V18.1809ZM84.0331 16.4957C82.8205 16.4779 81.6704 16.7365 81.6704 17.7618C81.6704 18.4305 82.0983 18.7337 82.6422 18.7337C83.3377 18.7337 83.828 18.2879 83.9885 17.7975C84.0331 17.6727 84.0331 17.5478 84.0331 17.423V16.4868V16.4957Z" fill="#182841"/>
<path id="Vector_7" d="M88.9637 12.0557C88.393 12.0557 88.0186 11.6366 88.0186 11.1374C88.0186 10.6113 88.4109 10.2012 88.9815 10.2012C89.5521 10.2012 89.9266 10.6024 89.9444 11.1374C89.9444 11.6366 89.5699 12.0557 88.9815 12.0557H88.9637ZM88.1166 19.8037V13.0275H89.8285V19.8037H88.1166Z" fill="#182841"/>
<path id="Vector_8" d="M92.2891 9.91602H94.0009V19.8128H92.2891V9.91602Z" fill="#182841"/>
<path id="Vector_9" d="M101.74 18.1809C101.74 18.7961 101.767 19.3934 101.847 19.8125H100.305L100.18 19.0636H100.136C99.7343 19.5896 99.0211 19.9641 98.1295 19.9641C96.7653 19.9641 95.9985 18.9744 95.9985 17.9491C95.9985 16.255 97.5142 15.3723 100.02 15.3902V15.2832C100.02 14.8374 99.8413 14.0973 98.6466 14.0973C97.9779 14.0973 97.2824 14.3024 96.8277 14.5966L96.4978 13.4821C96.9971 13.179 97.8798 12.8848 98.9497 12.8848C101.116 12.8848 101.749 14.2667 101.749 15.7557V18.1898L101.74 18.1809ZM100.073 16.4957C98.8606 16.4779 97.7104 16.7365 97.7104 17.7618C97.7104 18.4305 98.1384 18.7337 98.6822 18.7337C99.3777 18.7337 99.8681 18.2879 100.029 17.7975C100.073 17.6727 100.073 17.5478 100.073 17.423V16.4868V16.4957Z" fill="#182841"/>
<path id="Vector_10" d="M104.165 9.91602H105.877V13.9639H105.904C106.323 13.313 107.063 12.8761 108.079 12.8761C109.738 12.8761 110.915 14.2581 110.906 16.3177C110.906 18.7518 109.363 19.9643 107.83 19.9643C106.956 19.9643 106.171 19.6255 105.69 18.7963H105.663L105.583 19.8128H104.121C104.147 19.3491 104.174 18.6002 104.174 17.9226V9.91602H104.165ZM105.877 17.0131C105.877 17.1558 105.895 17.2895 105.922 17.4144C106.1 18.1098 106.697 18.6091 107.437 18.6091C108.507 18.6091 109.167 17.7621 109.167 16.3801C109.167 15.1854 108.596 14.2135 107.455 14.2135C106.76 14.2135 106.118 14.7128 105.939 15.4618C105.913 15.5866 105.886 15.7382 105.886 15.9076V17.0042L105.877 17.0131Z" fill="#182841"/>
<path id="Vector_11" d="M112.912 9.91602H114.623V19.8128H112.912V9.91602Z" fill="#182841"/>
<path id="Vector_12" d="M118.315 16.8971C118.36 18.1186 119.314 18.6535 120.402 18.6535C121.195 18.6535 121.748 18.5287 122.283 18.3504L122.533 19.5184C121.944 19.768 121.142 19.9464 120.17 19.9464C117.968 19.9464 116.675 18.6 116.675 16.5226C116.675 14.6413 117.816 12.876 119.992 12.876C122.167 12.876 122.916 14.6859 122.916 16.1749C122.916 16.4959 122.889 16.7455 122.863 16.8971H118.324H118.315ZM121.293 15.7023C121.311 15.0782 121.026 14.044 119.885 14.044C118.824 14.044 118.378 15.0069 118.315 15.7023H121.293Z" fill="#182841"/>
<path id="Vector_13" d="M131.35 19.9642C129.442 19.9642 127.953 18.6535 127.953 16.4691C127.953 14.2847 129.415 12.876 131.457 12.876C133.499 12.876 134.827 14.2936 134.827 16.3532C134.827 18.8408 133.071 19.9553 131.359 19.9553H131.341L131.35 19.9642ZM131.404 18.7249C132.375 18.7249 133.062 17.7798 133.062 16.3978C133.062 15.3368 132.589 14.1153 131.421 14.1153C130.253 14.1153 129.718 15.3011 129.718 16.4245C129.718 17.7352 130.369 18.7249 131.386 18.7249H131.404Z" fill="#182841"/>
<path id="Vector_14" d="M136.843 15.0514C136.843 14.2757 136.816 13.6159 136.789 13.0363H138.278L138.358 14.0528H138.403C138.706 13.5267 139.446 12.8848 140.578 12.8848C141.711 12.8848 142.986 13.6515 142.986 15.7914V19.8125H141.274V15.9875C141.274 15.0157 140.908 14.2757 139.981 14.2757C139.303 14.2757 138.831 14.766 138.644 15.2743C138.59 15.4169 138.563 15.622 138.563 15.8181V19.8125H136.851V15.0514H136.843Z" fill="#182841"/>
<path id="Vector_15" d="M150.867 11.2892V13.0278H152.499V14.3117H150.867V17.2897C150.867 18.1278 151.09 18.5379 151.741 18.5379C152.044 18.5379 152.214 18.5201 152.41 18.4666L152.437 19.7594C152.187 19.8575 151.723 19.9377 151.197 19.9377C150.555 19.9377 150.047 19.7326 149.726 19.3849C149.352 18.9926 149.182 18.3685 149.182 17.4769V14.3028H148.219V13.0189H149.182V11.7528L150.867 11.2803V11.2892Z" fill="#182841"/>
<path id="Vector_16" d="M154.407 9.91602H156.119V13.955H156.146C156.351 13.634 156.645 13.3665 156.993 13.1882C157.341 12.992 157.742 12.885 158.179 12.885C159.329 12.885 160.542 13.6518 160.542 15.8184V19.8128H158.83V15.9967C158.83 15.0249 158.464 14.267 157.519 14.267C156.85 14.267 156.378 14.7128 156.182 15.2299C156.128 15.3815 156.11 15.5688 156.11 15.7471V19.8128H154.398V9.91602H154.407Z" fill="#182841"/>
<path id="Vector_17" d="M164.188 16.8971C164.232 18.1186 165.187 18.6535 166.274 18.6535C167.068 18.6535 167.621 18.5287 168.156 18.3504L168.405 19.5184C167.817 19.768 167.014 19.9464 166.042 19.9464C163.84 19.9464 162.547 18.6 162.547 16.5226C162.547 14.6413 163.689 12.876 165.864 12.876C168.04 12.876 168.789 14.6859 168.789 16.1749C168.789 16.4959 168.762 16.7455 168.735 16.8971H164.197H164.188ZM167.166 15.7023C167.184 15.0782 166.898 14.044 165.757 14.044C164.696 14.044 164.25 15.0069 164.188 15.7023H167.166Z" fill="#182841"/>
</g>
<path id="Vector_18" d="M78.2374 45.7399H74.9742L73.191 40.1228H66.9854L65.2825 45.7399H62.1084L68.2604 26.624H72.0587L78.2374 45.7399ZM72.656 37.769L71.0422 32.7761C70.8728 32.2678 70.5518 31.0642 70.0793 29.174H70.0258C69.8386 29.9854 69.5354 31.189 69.1164 32.7761L67.5293 37.769H72.6649H72.656Z" fill="#182841"/>
<path id="Vector_19" d="M94.0635 38.679C94.0635 41.0239 93.4305 42.8784 92.1644 44.2337C91.0321 45.4462 89.6234 46.0436 87.9382 46.0436C86.1194 46.0436 84.8176 45.3927 84.0241 44.091H83.9706V51.3486H80.9035V36.4857C80.9035 35.0145 80.8678 33.4988 80.7876 31.9474H83.4802L83.6496 34.1318H83.712C84.7285 32.4824 86.2799 31.6621 88.3573 31.6621C89.98 31.6621 91.3441 32.3041 92.423 33.588C93.5107 34.8719 94.0546 36.5659 94.0546 38.6612M90.934 38.7771C90.934 37.4397 90.6309 36.3252 90.0246 35.4603C89.3648 34.5509 88.4732 34.0962 87.3587 34.0962C86.6008 34.0962 85.9143 34.3458 85.2991 34.8451C84.6839 35.3533 84.2827 36.0042 84.0954 36.8156C83.9974 37.1989 83.9528 37.5021 83.9528 37.7517V40.0521C83.9528 41.0507 84.2559 41.8977 84.8711 42.5842C85.4863 43.2797 86.2888 43.6185 87.2695 43.6185C88.4197 43.6185 89.3202 43.1816 89.9622 42.29C90.6041 41.3984 90.9251 40.2304 90.9251 38.7682" fill="#182841"/>
<path id="Vector_20" d="M109.916 38.679C109.916 41.0239 109.283 42.8784 108.017 44.2337C106.885 45.4462 105.476 46.0436 103.791 46.0436C101.981 46.0436 100.671 45.3927 99.877 44.091H99.8235V51.3486H96.7653V36.4857C96.7653 35.0145 96.7297 33.4988 96.6494 31.9474H99.342L99.5114 34.1318H99.5739C100.59 32.4824 102.142 31.6621 104.219 31.6621C105.842 31.6621 107.197 32.3041 108.285 33.588C109.373 34.8719 109.916 36.5659 109.916 38.6612M106.796 38.7771C106.796 37.4397 106.493 36.3252 105.886 35.4603C105.227 34.5509 104.335 34.0962 103.221 34.0962C102.463 34.0962 101.776 34.3458 101.161 34.8451C100.546 35.3533 100.145 36.0042 99.9572 36.8156C99.8592 37.1989 99.8146 37.5021 99.8146 37.7517V40.0521C99.8146 41.0507 100.118 41.8977 100.733 42.5842C101.348 43.2797 102.142 43.6185 103.131 43.6185C104.282 43.6185 105.182 43.1816 105.824 42.29C106.466 41.3984 106.787 40.2304 106.787 38.7682" fill="#182841"/>
<path id="Vector_21" d="M127.641 40.3813C127.641 42.004 127.079 43.3325 125.938 44.3489C124.69 45.4634 122.96 46.0251 120.731 46.0251C118.672 46.0251 117.022 45.6328 115.774 44.8393L116.487 42.2893C117.834 43.1007 119.305 43.5108 120.918 43.5108C122.069 43.5108 122.969 43.2523 123.611 42.7351C124.253 42.2091 124.574 41.5136 124.574 40.6488C124.574 39.8731 124.307 39.2222 123.78 38.6873C123.254 38.1523 122.372 37.6619 121.141 37.2072C117.798 35.959 116.122 34.1312 116.122 31.7239C116.122 30.1547 116.71 28.8618 117.878 27.8632C119.046 26.8557 120.606 26.3564 122.559 26.3564C124.298 26.3564 125.742 26.6596 126.892 27.2659L126.125 29.7624C125.047 29.1739 123.825 28.8797 122.47 28.8797C121.391 28.8797 120.553 29.1472 119.947 29.6732C119.438 30.1457 119.18 30.7253 119.18 31.4029C119.18 32.1608 119.474 32.7849 120.054 33.2753C120.562 33.73 121.489 34.2204 122.835 34.7553C124.476 35.4151 125.689 36.1908 126.464 37.0824C127.24 37.974 127.623 39.0796 127.623 40.3991" fill="#182841"/>
<path id="Vector_22" d="M137.761 34.2554H134.39V40.9514C134.39 42.6543 134.988 43.5013 136.183 43.5013C136.726 43.5013 137.181 43.4568 137.538 43.3587L137.618 45.6858C137.021 45.9087 136.218 46.0246 135.237 46.0246C134.025 46.0246 133.08 45.659 132.402 44.919C131.725 44.179 131.377 42.9396 131.377 41.201V34.2554H129.362V31.9551H131.377V29.4319L134.382 28.5225V31.9551H137.752V34.2554H137.761Z" fill="#182841"/>
<path id="Vector_23" d="M152.998 38.7412C152.998 40.8632 152.392 42.6018 151.188 43.957C149.922 45.3568 148.237 46.0523 146.142 46.0523C144.047 46.0523 142.504 45.3836 141.309 44.0373C140.106 42.6999 139.508 41.0058 139.508 38.9641C139.508 36.8242 140.124 35.0767 141.363 33.7214C142.602 32.3573 144.269 31.6797 146.365 31.6797C148.46 31.6797 150.011 32.3484 151.242 33.6947C152.419 35.0054 152.998 36.6816 152.998 38.7412ZM149.824 38.8392C149.824 37.5732 149.548 36.4765 149.004 35.5671C148.362 34.4704 147.444 33.9176 146.258 33.9176C145.072 33.9176 144.091 34.4704 143.449 35.5671C142.896 36.4765 142.629 37.5821 142.629 38.8927C142.629 40.2034 142.896 41.2555 143.449 42.1649C144.109 43.2616 145.036 43.8144 146.231 43.8144C147.426 43.8144 148.317 43.2526 148.977 42.1381C149.548 41.2109 149.824 40.1142 149.824 38.8392Z" fill="#182841"/>
<path id="Vector_24" d="M162.949 34.6488C162.646 34.5953 162.325 34.5686 161.986 34.5686C160.907 34.5686 160.078 34.9787 159.489 35.7901C158.981 36.5123 158.723 37.4128 158.723 38.5095V45.7403H155.664L155.691 36.2983C155.691 34.7113 155.655 33.2669 155.575 31.9562H158.241L158.357 34.5953H158.437C158.758 33.6859 159.275 32.9548 159.971 32.4109C160.648 31.9205 161.388 31.6709 162.182 31.6709C162.467 31.6709 162.717 31.6887 162.949 31.7244V34.6488Z" fill="#182841"/>
<path id="Vector_25" d="M176.644 38.1977C176.644 38.7505 176.608 39.2052 176.537 39.5886H167.353C167.389 40.9527 167.835 41.987 168.682 42.7092C169.457 43.3511 170.456 43.6721 171.686 43.6721C173.041 43.6721 174.281 43.4581 175.404 43.0212L175.886 45.1521C174.584 45.7228 173.041 46.0081 171.258 46.0081C169.127 46.0081 167.442 45.375 166.23 44.1179C165.017 42.8607 164.402 41.1756 164.402 39.0536C164.402 36.9316 164.972 35.2465 166.105 33.8645C167.291 32.3933 168.904 31.6533 170.919 31.6533C172.934 31.6533 174.415 32.3933 175.431 33.8645C176.242 35.0414 176.644 36.4858 176.644 38.2066M173.728 37.4131C173.746 36.5036 173.55 35.719 173.131 35.0592C172.605 34.2122 171.784 33.7842 170.688 33.7842C169.689 33.7842 168.878 34.2033 168.254 35.0325C167.745 35.6923 167.442 36.4858 167.353 37.4131H173.728Z" fill="#182841"/>
</g>
<rect x="1" y="1" width="194" height="60" rx="10" stroke="#B0A6A6"/>
</g>
<defs>
<clipPath id="clip0_1522_13423">
<rect x="1" y="1" width="194" height="60" rx="10" fill="white"/>
</clipPath>
</defs>
</svg>
