<svg width="201" height="60" viewBox="0 0 201 60" fill="none" xmlns="http://www.w3.org/2000/svg">
<g id="galaxy_store_white 1">
<rect x="0.5" width="200" height="60" rx="10" fill="#E4E4E4" fill-opacity="0.65"/>
<path id="Vector" d="M39.893 50.2672H29.107C21.592 50.2672 15.5 43.7401 15.5 35.6883V24.1319C15.5 16.0801 21.592 9.55298 29.107 9.55298H39.894C47.408 9.55298 53.5 16.0801 53.5 24.1319V35.6894C53.5 43.7401 47.408 50.2672 39.893 50.2672Z" fill="url(#paint0_linear_1522_17143)"/>
<path id="Vector_2" opacity="0.05" d="M38.803 42.7673H30.198C27.029 42.7673 24.407 40.1273 24.209 36.7394L23.502 24.6194C23.466 24.0033 23.923 23.4815 24.5 23.4815H28.5C28.5 19.9362 31.191 17.053 34.5 17.053C37.809 17.053 40.5 19.9362 40.5 23.4815H44.5C45.077 23.4815 45.534 24.0033 45.498 24.6194L44.791 36.7394C44.593 40.1283 41.971 42.7673 38.803 42.7673ZM25.564 25.6244L26.205 36.6055C26.337 38.8598 28.091 40.6244 30.197 40.6244H38.802C40.908 40.6244 42.662 38.8598 42.794 36.6055L43.436 25.6244H38.5H25.564ZM32.5 23.4815H36.5C36.5 22.2998 35.603 21.3387 34.5 21.3387C33.397 21.3387 32.5 22.2998 32.5 23.4815Z" fill="#222220"/>
<path id="Vector_3" opacity="0.07" d="M38.8022 42.2313H30.1972C27.2922 42.2313 24.8892 39.812 24.7072 36.7059L24.0332 25.1559C23.9972 24.5388 24.4542 24.0181 25.0312 24.0181H29.0002V23.7459C29.0002 20.6698 31.0932 17.9173 33.9502 17.6184C37.2282 17.2755 40.0002 20.0388 40.0002 23.4823V24.0181H43.9682C44.5452 24.0181 45.0022 24.5398 44.9662 25.1559L44.2922 36.7059C44.1112 39.812 41.7072 42.2313 38.8022 42.2313ZM25.0322 25.0884L25.7062 36.6384C25.8542 39.1734 27.8272 41.1598 30.1972 41.1598H38.8022C41.1722 41.1598 43.1452 39.1734 43.2932 36.6384L43.9672 25.0884H39.0002V23.4813C39.0002 20.823 36.9812 18.6598 34.5002 18.6598C32.0192 18.6598 30.0002 20.823 30.0002 23.4813V25.0884H25.0322ZM38.0002 25.0884H31.0002V23.4813C31.0002 21.4134 32.5702 19.7313 34.5002 19.7313C36.4302 19.7313 38.0002 21.4134 38.0002 23.4813V25.0884ZM32.0002 24.017H37.0002V23.4813C37.0002 22.0038 35.8792 20.8027 34.5002 20.8027C33.1212 20.8027 32.0002 22.0038 32.0002 23.4813V24.017Z" fill="#030000"/>
<path id="Vector_4" d="M39.5 24.5533V23.7208C39.5 20.9244 37.597 18.4226 35 18.1505C32.02 17.8387 29.5 20.3512 29.5 23.4819V24.5533H25.564C24.987 24.5533 24.53 25.0751 24.566 25.6912L25.207 36.6723C25.372 39.4955 27.557 41.6951 30.197 41.6951H38.802C41.442 41.6951 43.628 39.4955 43.792 36.6723L44.433 25.6912C44.47 25.0751 44.012 24.5533 43.436 24.5533H39.5ZM31.5 23.4819C31.5 21.7098 32.846 20.2676 34.5 20.2676C36.154 20.2676 37.5 21.7098 37.5 23.4819V24.5533H31.5V23.4819Z" fill="white"/>
<g id="Clip path group">
<mask id="mask0_1522_17143" style="mask-type:luminance" maskUnits="userSpaceOnUse" x="63" y="28" width="122" height="21">
<g id="clip0_1449_39054">
<path id="Vector_5" d="M184.668 28.2075H63.6084V48.7552H184.668V28.2075Z" fill="white"/>
</g>
</mask>
<g mask="url(#mask0_1522_17143)">
<g id="Group">
<path id="Vector_6" d="M184.668 38.4886H175.834C176.014 39.8443 176.923 40.8499 178.178 41.161C179.794 41.5609 181.018 40.9927 182.187 39.2582C182.842 39.6594 183.504 40.0638 184.201 40.4921C183.286 42.2388 181.943 43.2143 180.165 43.5481C177.576 44.0335 175.004 42.7183 173.928 40.3494C172.789 37.8407 173.334 34.812 175.311 33.0127C176.994 31.481 178.949 31.1654 181.014 31.914C182.984 32.6279 184.123 34.1731 184.534 36.3346C184.566 36.5044 184.623 36.6667 184.668 36.8336V38.4886ZM181.962 36.2324C181.947 35.1005 180.714 33.9356 179.155 33.9205C177.62 33.9055 176.292 34.8375 176.012 36.2324H181.962Z" fill="black"/>
<path id="Vector_7" d="M74.5548 37.8412H70.3429V35.316H77.2472C77.7382 38.6544 76.022 42.2423 72.7326 43.278C69.0682 44.4308 65.2921 42.4588 64.0442 38.7642C62.7596 34.9597 64.4078 30.8127 67.8076 29.2929C71.1084 27.8169 75.2495 29.2614 76.7223 32.4511C76.005 32.9064 75.2835 33.3649 74.5676 33.8219C72.8585 31.4274 70.8509 30.7314 68.7315 31.7611C66.8116 32.6945 65.7873 34.9672 66.2485 37.2775C66.68 39.442 68.4754 40.9422 70.6641 40.9647C72.618 40.9843 74.1361 39.8013 74.5548 37.8442V37.8412Z" fill="black"/>
<path id="Vector_8" d="M87.4548 33.0251V31.8347H89.9025V43.3335H87.4676C87.452 42.9441 87.435 42.5339 87.4124 41.9807C86.1108 43.3365 84.6323 43.8685 82.9232 43.5244C81.5975 43.2567 80.5152 42.5384 79.6847 41.4095C78.0167 39.1413 78.1284 35.5383 79.9266 33.4129C81.8296 31.1612 84.4569 30.9989 87.4548 33.0236V33.0251ZM84.3126 41.1765C86.1235 41.1615 87.5694 39.5516 87.5624 37.557C87.5553 35.5639 86.0938 33.9781 84.2729 33.9856C82.4408 33.9946 80.9849 35.5744 80.9807 37.5585C80.9764 39.5711 82.4705 41.1931 84.3126 41.1765Z" fill="black"/>
<path id="Vector_9" d="M106.812 43.3588H104.322V41.943C103.121 43.2251 101.783 43.7752 100.232 43.5919C98.7098 43.41 97.4634 42.6555 96.5353 41.3523C94.8686 39.0118 95.0441 35.3833 96.9074 33.3136C98.8825 31.1206 101.571 30.9912 104.276 32.9994C104.297 32.6056 104.317 32.2448 104.338 31.836H106.812V43.3588ZM104.44 37.5703C104.444 35.5638 103.008 33.9855 101.179 33.987C99.3324 33.987 97.9034 35.5352 97.8949 37.5433C97.8864 39.5905 99.3324 41.1853 101.19 41.1763C103.008 41.1688 104.436 39.583 104.44 37.5703Z" fill="black"/>
<path id="Vector_10" d="M135.79 40.9419C136.525 40.3257 137.262 39.7079 138.03 39.0631C138.677 40.1002 139.48 40.8983 140.642 40.9524C141.235 40.9795 141.936 40.8247 142.423 40.485C143.409 39.7996 143.293 38.3671 142.255 37.7869C141.656 37.4533 140.987 37.2608 140.35 37.0053C139.714 36.7498 139.064 36.5213 138.442 36.2312C135.775 34.9911 135.901 31.4152 137.766 29.8339C139.418 28.433 142.208 28.3143 144.144 29.6371C144.595 29.9452 144.995 30.3375 145.522 30.7764C144.79 31.3701 144.128 31.9083 143.425 32.4795C142.747 31.5865 141.911 31.0229 140.813 31.1327C140.427 31.1717 140.008 31.2754 139.683 31.4873C138.827 32.0435 138.798 33.3077 139.663 33.8428C140.345 34.2651 141.124 34.5102 141.864 34.8243C142.367 35.0377 142.884 35.2105 143.377 35.4451C144.772 36.108 145.687 37.1797 145.737 38.8752C145.788 40.6263 145.07 41.9776 143.661 42.8735C141.281 44.3871 137.392 43.4326 135.789 40.9404L135.79 40.9419Z" fill="black"/>
<path id="Vector_11" d="M158.931 43.6178C155.77 43.6284 153.263 40.9769 153.256 37.6204C153.249 34.2459 155.728 31.5734 158.875 31.5599C162.017 31.5464 164.542 34.2113 164.561 37.5603C164.579 40.9018 162.065 43.6073 158.93 43.6163L158.931 43.6178ZM162.059 37.6129C162.065 35.6408 160.707 34.1061 158.938 34.0881C157.127 34.0701 155.735 35.6032 155.742 37.6084C155.748 39.579 157.119 41.0941 158.899 41.0972C160.671 41.0987 162.054 39.576 162.061 37.6144L162.059 37.6129Z" fill="black"/>
<path id="Vector_12" d="M121.497 48.7384C122.041 47.3285 122.464 45.9712 123.076 44.7176C123.717 43.4008 123.651 42.266 123.049 40.9312C121.818 38.2031 120.761 35.3877 119.635 32.607C119.544 32.3815 119.466 32.15 119.333 31.7908C120.204 31.7908 120.994 31.7577 121.78 31.8178C121.942 31.8298 122.133 32.1726 122.224 32.401C123.054 34.4994 123.865 36.6068 124.684 38.7096C124.782 38.9621 124.891 39.2102 125.039 39.5679C125.866 37.3268 126.652 35.1863 127.442 33.0474C127.753 32.2037 128.326 31.7817 129.162 31.7817C129.58 31.7817 129.998 31.7817 130.498 31.7817C130.411 32.0764 130.365 32.2868 130.29 32.4837C128.289 37.6951 126.277 42.9018 124.292 48.1206C124.114 48.5882 123.913 48.788 123.428 48.749C122.824 48.6994 122.214 48.7369 121.497 48.7369V48.7384Z" fill="black"/>
<path id="Vector_13" d="M119.06 43.4009C118.009 43.4009 117.142 43.4355 116.279 43.3784C116.055 43.3633 115.798 43.1062 115.642 42.8883C114.86 41.7956 114.107 40.6802 113.312 39.5258C112.527 40.6983 111.812 41.8181 111.034 42.8838C110.842 43.1469 110.444 43.3498 110.124 43.3799C109.359 43.4505 108.584 43.4024 107.677 43.4024C107.886 43.0687 108.015 42.8477 108.161 42.6373C109.236 41.0831 110.298 39.5183 111.403 37.9881C111.692 37.5884 111.662 37.3344 111.393 36.957C110.216 35.3006 109.066 33.6216 107.798 31.7954C108.861 31.7954 109.786 31.7698 110.709 31.8179C110.883 31.8269 111.072 32.1019 111.204 32.2943C111.899 33.3045 112.578 34.3265 113.337 35.4539C113.78 34.8061 114.274 34.2589 114.571 33.6111C115.287 32.0493 116.4 31.4706 117.977 31.7788C118.197 31.8224 118.428 31.8089 118.765 31.8269C117.429 33.7855 116.161 35.6433 114.882 37.5192C116.251 39.4447 117.597 41.3401 119.06 43.3994V43.4009Z" fill="black"/>
<path id="Vector_14" d="M145.98 34.1769V31.7989H147.683C147.75 31.6787 147.775 31.6546 147.772 31.6351C147.481 30.0854 148.47 29.4255 149.508 28.7942C149.752 28.6469 149.977 28.4636 150.336 28.2065V31.7674H152.514V34.1559H150.451C150.451 36.1279 150.408 37.9993 150.492 39.8632C150.506 40.1788 151.027 40.5487 151.386 40.7425C151.7 40.9124 152.116 40.8703 152.526 40.9289V43.3759C151.4 43.3985 150.298 43.3925 149.302 42.7913C148.241 42.1494 147.942 41.0266 147.89 39.8467C147.819 38.2217 147.816 36.5909 147.839 34.9645C147.847 34.3468 147.689 34.0913 147.092 34.1664C146.747 34.21 146.393 34.1739 145.979 34.1739L145.98 34.1769Z" fill="black"/>
<path id="Vector_15" d="M165.897 31.8328H168.331V32.9767C169.067 32.5963 169.761 32.1124 170.525 31.8764C171.349 31.6239 172.202 31.8177 173.059 32.2807C172.754 33.1044 172.457 33.9056 172.164 34.6932C171.664 34.585 171.216 34.4272 170.76 34.3986C169.268 34.3085 168.441 35.0931 168.405 36.6939C168.359 38.6224 168.383 40.5523 168.378 42.4824C168.378 42.7529 168.378 43.0235 168.378 43.3481H165.899V31.8328H165.897Z" fill="black"/>
<path id="Vector_16" d="M91.5962 43.3319V28.7546H94.0537V43.3319H91.5962Z" fill="black"/>
</g>
</g>
</g>
<path id="Vector_17" opacity="0.8" d="M63.98 20.7075C63.916 20.7075 63.86 20.6818 63.812 20.6304C63.764 20.5789 63.74 20.5189 63.74 20.4504C63.74 20.3818 63.744 20.3346 63.752 20.3089L66.728 11.9904C66.792 11.8018 66.92 11.7075 67.112 11.7075H67.928C68.12 11.7075 68.248 11.8018 68.312 11.9904L71.276 20.3089L71.3 20.4504C71.3 20.5189 71.276 20.5789 71.228 20.6304C71.18 20.6818 71.124 20.7075 71.06 20.7075H70.448C70.36 20.7075 70.292 20.6861 70.244 20.6432C70.196 20.5918 70.164 20.5404 70.148 20.4889L69.488 18.6632H65.552L64.892 20.4889C64.876 20.5404 64.84 20.5918 64.784 20.6432C64.736 20.6861 64.672 20.7075 64.592 20.7075H63.98ZM69.14 17.5575L67.52 12.9932L65.9 17.5575H69.14ZM74.2241 20.7075C74.0161 20.7075 73.8681 20.6004 73.7801 20.3861L71.5601 14.4204L71.5361 14.2918C71.5361 14.2146 71.5601 14.1504 71.6081 14.0989C71.6561 14.0475 71.7161 14.0218 71.7881 14.0218H72.3641C72.5001 14.0218 72.6001 14.0946 72.6641 14.2404L74.4881 19.3061L76.3121 14.2404C76.3841 14.0946 76.4801 14.0218 76.6001 14.0218H77.1881C77.2521 14.0218 77.3081 14.0475 77.3561 14.0989C77.4121 14.1504 77.4401 14.2146 77.4401 14.2918L77.4161 14.4204L75.1841 20.3861C75.0961 20.6004 74.9481 20.7075 74.7401 20.7075H74.2241ZM80.2022 20.8361C79.8102 20.8361 79.4462 20.7504 79.1102 20.5789C78.7742 20.4075 78.5062 20.1761 78.3062 19.8846C78.1142 19.5846 78.0182 19.2546 78.0182 18.8946C78.0182 18.3289 78.2342 17.8661 78.6662 17.5061C79.1062 17.1375 79.6982 16.8975 80.4422 16.7861L82.2302 16.5161V16.1432C82.2302 15.2689 81.7622 14.8318 80.8262 14.8318C80.4742 14.8318 80.1862 14.9132 79.9622 15.0761C79.7382 15.2304 79.5702 15.4146 79.4582 15.6289C79.4342 15.7061 79.4022 15.7618 79.3622 15.7961C79.3302 15.8304 79.2822 15.8475 79.2182 15.8475H78.7022C78.6302 15.8475 78.5662 15.8218 78.5102 15.7704C78.4622 15.7104 78.4382 15.6418 78.4382 15.5646C78.4462 15.3589 78.5342 15.1275 78.7022 14.8704C78.8782 14.6046 79.1462 14.3775 79.5062 14.1889C79.8662 13.9918 80.3102 13.8932 80.8382 13.8932C81.7342 13.8932 82.3782 14.1204 82.7702 14.5746C83.1622 15.0204 83.3582 15.5775 83.3582 16.2461V20.4118C83.3582 20.4975 83.3302 20.5704 83.2742 20.6304C83.2262 20.6818 83.1622 20.7075 83.0822 20.7075H82.5302C82.4502 20.7075 82.3822 20.6818 82.3262 20.6304C82.2782 20.5704 82.2542 20.4975 82.2542 20.4118V19.8589C82.0782 20.1332 81.8222 20.3646 81.4862 20.5532C81.1502 20.7418 80.7222 20.8361 80.2022 20.8361ZM80.4542 19.8718C80.9742 19.8718 81.3982 19.6918 81.7262 19.3318C82.0622 18.9632 82.2302 18.4361 82.2302 17.7504V17.3904L80.8382 17.6089C80.2702 17.6946 79.8422 17.8404 79.5542 18.0461C79.2662 18.2432 79.1222 18.4961 79.1222 18.8046C79.1222 19.1475 79.2542 19.4132 79.5182 19.6018C79.7822 19.7818 80.0942 19.8718 80.4542 19.8718ZM85.2633 12.7746C85.1833 12.7746 85.1153 12.7489 85.0593 12.6975C85.0113 12.6375 84.9873 12.5646 84.9873 12.4789V11.7846C84.9873 11.6989 85.0113 11.6261 85.0593 11.5661C85.1153 11.5061 85.1833 11.4761 85.2633 11.4761H86.0193C86.0993 11.4761 86.1673 11.5061 86.2233 11.5661C86.2793 11.6261 86.3073 11.6989 86.3073 11.7846V12.4789C86.3073 12.5646 86.2793 12.6375 86.2233 12.6975C86.1673 12.7489 86.0993 12.7746 86.0193 12.7746H85.2633ZM85.3593 20.7075C85.2793 20.7075 85.2113 20.6818 85.1553 20.6304C85.1073 20.5704 85.0833 20.4975 85.0833 20.4118V14.3175C85.0833 14.2318 85.1073 14.1632 85.1553 14.1118C85.2113 14.0518 85.2793 14.0218 85.3593 14.0218H85.9353C86.0153 14.0218 86.0793 14.0518 86.1273 14.1118C86.1833 14.1632 86.2113 14.2318 86.2113 14.3175V20.4118C86.2113 20.4975 86.1833 20.5704 86.1273 20.6304C86.0793 20.6818 86.0153 20.7075 85.9353 20.7075H85.3593ZM88.2776 20.7075C88.1976 20.7075 88.1296 20.6818 88.0736 20.6304C88.0256 20.5704 88.0016 20.4975 88.0016 20.4118V11.8746C88.0016 11.7889 88.0256 11.7204 88.0736 11.6689C88.1296 11.6089 88.1976 11.5789 88.2776 11.5789H88.8416C88.9216 11.5789 88.9856 11.6089 89.0336 11.6689C89.0896 11.7204 89.1176 11.7889 89.1176 11.8746V20.4118C89.1176 20.4975 89.0896 20.5704 89.0336 20.6304C88.9856 20.6818 88.9216 20.7075 88.8416 20.7075H88.2776ZM92.6475 20.8361C92.2555 20.8361 91.8915 20.7504 91.5555 20.5789C91.2195 20.4075 90.9515 20.1761 90.7515 19.8846C90.5595 19.5846 90.4635 19.2546 90.4635 18.8946C90.4635 18.3289 90.6795 17.8661 91.1115 17.5061C91.5515 17.1375 92.1435 16.8975 92.8875 16.7861L94.6755 16.5161V16.1432C94.6755 15.2689 94.2075 14.8318 93.2715 14.8318C92.9195 14.8318 92.6315 14.9132 92.4075 15.0761C92.1835 15.2304 92.0155 15.4146 91.9035 15.6289C91.8795 15.7061 91.8475 15.7618 91.8075 15.7961C91.7755 15.8304 91.7275 15.8475 91.6635 15.8475H91.1475C91.0755 15.8475 91.0115 15.8218 90.9555 15.7704C90.9075 15.7104 90.8835 15.6418 90.8835 15.5646C90.8915 15.3589 90.9795 15.1275 91.1475 14.8704C91.3235 14.6046 91.5915 14.3775 91.9515 14.1889C92.3115 13.9918 92.7555 13.8932 93.2835 13.8932C94.1795 13.8932 94.8235 14.1204 95.2155 14.5746C95.6075 15.0204 95.8035 15.5775 95.8035 16.2461V20.4118C95.8035 20.4975 95.7755 20.5704 95.7195 20.6304C95.6715 20.6818 95.6075 20.7075 95.5275 20.7075H94.9755C94.8955 20.7075 94.8275 20.6818 94.7715 20.6304C94.7235 20.5704 94.6995 20.4975 94.6995 20.4118V19.8589C94.5235 20.1332 94.2675 20.3646 93.9315 20.5532C93.5955 20.7418 93.1675 20.8361 92.6475 20.8361ZM92.8995 19.8718C93.4195 19.8718 93.8435 19.6918 94.1715 19.3318C94.5075 18.9632 94.6755 18.4361 94.6755 17.7504V17.3904L93.2835 17.6089C92.7155 17.6946 92.2875 17.8404 91.9995 18.0461C91.7115 18.2432 91.5675 18.4961 91.5675 18.8046C91.5675 19.1475 91.6995 19.4132 91.9635 19.6018C92.2275 19.7818 92.5395 19.8718 92.8995 19.8718ZM100.613 20.8361C99.7486 20.8361 99.0926 20.5146 98.6446 19.8718V20.4118C98.6446 20.4975 98.6166 20.5704 98.5606 20.6304C98.5126 20.6818 98.4486 20.7075 98.3686 20.7075H97.8166C97.7366 20.7075 97.6686 20.6818 97.6126 20.6304C97.5646 20.5704 97.5406 20.4975 97.5406 20.4118V11.8746C97.5406 11.7889 97.5646 11.7204 97.6126 11.6689C97.6686 11.6089 97.7366 11.5789 97.8166 11.5789H98.4046C98.4846 11.5789 98.5486 11.6089 98.5966 11.6689C98.6446 11.7204 98.6686 11.7889 98.6686 11.8746V14.8318C99.1406 14.2061 99.7886 13.8932 100.613 13.8932C101.445 13.8932 102.073 14.1889 102.497 14.7804C102.921 15.3632 103.149 16.0961 103.181 16.9789C103.189 17.0732 103.193 17.2018 103.193 17.3646C103.193 17.5275 103.189 17.6561 103.181 17.7504C103.149 18.6418 102.921 19.3789 102.497 19.9618C102.073 20.5446 101.445 20.8361 100.613 20.8361ZM100.361 19.7946C100.929 19.7946 101.341 19.6061 101.597 19.2289C101.861 18.8518 102.005 18.3546 102.029 17.7375C102.037 17.6518 102.041 17.5275 102.041 17.3646C102.041 15.7446 101.481 14.9346 100.361 14.9346C99.8246 14.9346 99.4126 15.1232 99.1246 15.5004C98.8366 15.8775 98.6846 16.3189 98.6686 16.8246L98.6566 17.3261L98.6686 17.8146C98.6926 18.3546 98.8406 18.8218 99.1126 19.2161C99.3926 19.6018 99.8086 19.7946 100.361 19.7946ZM104.953 20.7075C104.873 20.7075 104.805 20.6818 104.749 20.6304C104.701 20.5704 104.677 20.4975 104.677 20.4118V11.8746C104.677 11.7889 104.701 11.7204 104.749 11.6689C104.805 11.6089 104.873 11.5789 104.953 11.5789H105.517C105.597 11.5789 105.661 11.6089 105.709 11.6689C105.765 11.7204 105.793 11.7889 105.793 11.8746V20.4118C105.793 20.4975 105.765 20.5704 105.709 20.6304C105.661 20.6818 105.597 20.7075 105.517 20.7075H104.953ZM110.079 20.8361C109.255 20.8361 108.595 20.5661 108.099 20.0261C107.611 19.4775 107.343 18.7318 107.295 17.7889L107.283 17.3518L107.295 16.9275C107.351 16.0018 107.623 15.2646 108.111 14.7161C108.607 14.1675 109.259 13.8932 110.067 13.8932C110.955 13.8932 111.643 14.1975 112.131 14.8061C112.619 15.4061 112.863 16.2204 112.863 17.2489V17.4675C112.863 17.5532 112.835 17.6261 112.779 17.6861C112.731 17.7375 112.667 17.7632 112.587 17.7632H108.435V17.8789C108.459 18.4361 108.615 18.9118 108.903 19.3061C109.199 19.6918 109.587 19.8846 110.067 19.8846C110.435 19.8846 110.735 19.8075 110.967 19.6532C111.207 19.4904 111.383 19.3232 111.495 19.1518C111.567 19.0489 111.619 18.9889 111.651 18.9718C111.691 18.9461 111.759 18.9332 111.855 18.9332H112.443C112.515 18.9332 112.575 18.9546 112.623 18.9975C112.671 19.0404 112.695 19.1004 112.695 19.1775C112.695 19.3661 112.583 19.5932 112.359 19.8589C112.143 20.1246 111.835 20.3561 111.435 20.5532C111.043 20.7418 110.591 20.8361 110.079 20.8361ZM111.723 16.8761V16.8375C111.723 16.2461 111.571 15.7661 111.267 15.3975C110.971 15.0204 110.571 14.8318 110.067 14.8318C109.563 14.8318 109.163 15.0204 108.867 15.3975C108.579 15.7661 108.435 16.2461 108.435 16.8375V16.8761H111.723ZM119.796 20.8361C118.916 20.8361 118.232 20.5704 117.744 20.0389C117.264 19.5075 117.008 18.8004 116.976 17.9175L116.964 17.3646L116.976 16.8118C117.008 15.9375 117.268 15.2346 117.756 14.7032C118.244 14.1632 118.924 13.8932 119.796 13.8932C120.668 13.8932 121.348 14.1632 121.836 14.7032C122.324 15.2346 122.584 15.9375 122.616 16.8118C122.624 16.9061 122.628 17.0904 122.628 17.3646C122.628 17.6389 122.624 17.8232 122.616 17.9175C122.584 18.8004 122.324 19.5075 121.836 20.0389C121.356 20.5704 120.676 20.8361 119.796 20.8361ZM119.796 19.8461C120.3 19.8461 120.696 19.6746 120.984 19.3318C121.28 18.9889 121.44 18.4961 121.464 17.8532C121.472 17.7675 121.476 17.6046 121.476 17.3646C121.476 17.1246 121.472 16.9618 121.464 16.8761C121.44 16.2332 121.28 15.7404 120.984 15.3975C120.696 15.0546 120.3 14.8832 119.796 14.8832C119.292 14.8832 118.892 15.0546 118.596 15.3975C118.3 15.7404 118.144 16.2332 118.128 16.8761L118.116 17.3646L118.128 17.8532C118.144 18.4961 118.3 18.9889 118.596 19.3318C118.892 19.6746 119.292 19.8461 119.796 19.8461ZM124.406 20.7075C124.326 20.7075 124.258 20.6818 124.202 20.6304C124.154 20.5704 124.13 20.4975 124.13 20.4118V14.3175C124.13 14.2318 124.154 14.1632 124.202 14.1118C124.258 14.0518 124.326 14.0218 124.406 14.0218H124.97C125.05 14.0218 125.114 14.0518 125.162 14.1118C125.218 14.1632 125.246 14.2318 125.246 14.3175V14.8832C125.478 14.5661 125.75 14.3218 126.062 14.1504C126.382 13.9789 126.778 13.8932 127.25 13.8932C128.018 13.8932 128.614 14.1589 129.038 14.6904C129.47 15.2132 129.686 15.9118 129.686 16.7861V20.4118C129.686 20.4975 129.658 20.5704 129.602 20.6304C129.554 20.6818 129.49 20.7075 129.41 20.7075H128.81C128.73 20.7075 128.662 20.6818 128.606 20.6304C128.558 20.5704 128.534 20.4975 128.534 20.4118V16.8504C128.534 16.2418 128.394 15.7704 128.114 15.4361C127.842 15.1018 127.446 14.9346 126.926 14.9346C126.422 14.9346 126.022 15.1061 125.726 15.4489C125.43 15.7832 125.282 16.2504 125.282 16.8504V20.4118C125.282 20.4975 125.254 20.5704 125.198 20.6304C125.15 20.6818 125.086 20.7075 125.006 20.7075H124.406ZM136.527 20.7075C135.263 20.7075 134.631 19.9532 134.631 18.4446V15.0504H133.695C133.615 15.0504 133.547 15.0246 133.491 14.9732C133.443 14.9132 133.419 14.8404 133.419 14.7546V14.3175C133.419 14.2318 133.443 14.1632 133.491 14.1118C133.547 14.0518 133.615 14.0218 133.695 14.0218H134.631V11.8746C134.631 11.7889 134.655 11.7204 134.703 11.6689C134.759 11.6089 134.827 11.5789 134.907 11.5789H135.471C135.551 11.5789 135.615 11.6089 135.663 11.6689C135.719 11.7204 135.747 11.7889 135.747 11.8746V14.0218H137.235C137.315 14.0218 137.379 14.0518 137.427 14.1118C137.483 14.1632 137.511 14.2318 137.511 14.3175V14.7546C137.511 14.8404 137.483 14.9132 137.427 14.9732C137.379 15.0246 137.315 15.0504 137.235 15.0504H135.747V18.3546C135.747 18.7832 135.815 19.1089 135.951 19.3318C136.087 19.5461 136.311 19.6532 136.623 19.6532H137.355C137.435 19.6532 137.499 19.6832 137.547 19.7432C137.603 19.7946 137.631 19.8632 137.631 19.9489V20.4118C137.631 20.4975 137.603 20.5704 137.547 20.6304C137.499 20.6818 137.435 20.7075 137.355 20.7075H136.527ZM139.067 20.7075C138.987 20.7075 138.919 20.6818 138.863 20.6304C138.815 20.5704 138.791 20.4975 138.791 20.4118V11.8746C138.791 11.7889 138.815 11.7204 138.863 11.6689C138.919 11.6089 138.987 11.5789 139.067 11.5789H139.667C139.747 11.5789 139.811 11.6089 139.859 11.6689C139.915 11.7204 139.943 11.7889 139.943 11.8746V14.8704C140.175 14.5532 140.447 14.3132 140.759 14.1504C141.071 13.9789 141.459 13.8932 141.923 13.8932C142.691 13.8932 143.287 14.1589 143.711 14.6904C144.143 15.2132 144.359 15.9118 144.359 16.7861V20.4118C144.359 20.4975 144.331 20.5704 144.275 20.6304C144.227 20.6818 144.163 20.7075 144.083 20.7075H143.483C143.403 20.7075 143.335 20.6818 143.279 20.6304C143.231 20.5704 143.207 20.4975 143.207 20.4118V16.8504C143.207 16.2418 143.067 15.7704 142.787 15.4361C142.515 15.1018 142.119 14.9346 141.599 14.9346C141.095 14.9346 140.691 15.1061 140.387 15.4489C140.091 15.7832 139.943 16.2504 139.943 16.8504V20.4118C139.943 20.4975 139.915 20.5704 139.859 20.6304C139.811 20.6818 139.747 20.7075 139.667 20.7075H139.067ZM148.587 20.8361C147.763 20.8361 147.103 20.5661 146.607 20.0261C146.119 19.4775 145.851 18.7318 145.803 17.7889L145.791 17.3518L145.803 16.9275C145.859 16.0018 146.131 15.2646 146.619 14.7161C147.115 14.1675 147.767 13.8932 148.575 13.8932C149.463 13.8932 150.151 14.1975 150.639 14.8061C151.127 15.4061 151.371 16.2204 151.371 17.2489V17.4675C151.371 17.5532 151.343 17.6261 151.287 17.6861C151.239 17.7375 151.175 17.7632 151.095 17.7632H146.943V17.8789C146.967 18.4361 147.123 18.9118 147.411 19.3061C147.707 19.6918 148.095 19.8846 148.575 19.8846C148.943 19.8846 149.243 19.8075 149.475 19.6532C149.715 19.4904 149.891 19.3232 150.003 19.1518C150.075 19.0489 150.127 18.9889 150.159 18.9718C150.199 18.9461 150.267 18.9332 150.363 18.9332H150.951C151.023 18.9332 151.083 18.9546 151.131 18.9975C151.179 19.0404 151.203 19.1004 151.203 19.1775C151.203 19.3661 151.091 19.5932 150.867 19.8589C150.651 20.1246 150.343 20.3561 149.943 20.5532C149.551 20.7418 149.099 20.8361 148.587 20.8361ZM150.231 16.8761V16.8375C150.231 16.2461 150.079 15.7661 149.775 15.3975C149.479 15.0204 149.079 14.8318 148.575 14.8318C148.071 14.8318 147.671 15.0204 147.375 15.3975C147.087 15.7661 146.943 16.2461 146.943 16.8375V16.8761H150.231Z" fill="#182841"/>
</g>
<defs>
<linearGradient id="paint0_linear_1522_17143" x1="19.922" y1="13.3726" x2="49.4387" y2="42.5411" gradientUnits="userSpaceOnUse">
<stop stop-color="#C72CCE"/>
<stop offset="1" stop-color="#FE5B5B"/>
</linearGradient>
</defs>
</svg>
