<svg width="205" height="60" viewBox="0 0 205 60" fill="none" xmlns="http://www.w3.org/2000/svg">
<g id="indus_store_white 1">
<rect x="0.5" width="204" height="60" rx="10" fill="white" fill-opacity="0.65"/>
<path id="Vector" d="M34.5362 17.5232C34.5362 22.1926 30.9088 25.9792 26.4336 25.9792C21.9584 25.9792 18.332 22.1926 18.332 17.5232C18.332 12.8537 21.9594 9.06714 26.4346 9.06714C30.9099 9.06714 34.5362 12.8527 34.5362 17.5232ZM34.0311 33.2149V25.813L26.4346 31.7805L18.8371 25.812V33.2139L26.4336 39.1813L34.0301 33.2139L34.0311 33.2149ZM34.0311 44.6813V37.2794L26.4346 43.2469L18.8371 37.2794V44.6813L26.4336 50.6488L34.0311 44.6813Z" fill="url(#paint0_linear_1522_17192)"/>
<path id="Vector_2" opacity="0.8" d="M48.8571 19.6141C48.7771 19.6141 48.7091 19.5897 48.6531 19.5409C48.6051 19.4839 48.5811 19.4148 48.5811 19.3334V11.3646C48.5811 11.2751 48.6051 11.206 48.6531 11.1572C48.7091 11.1002 48.7771 11.0717 48.8571 11.0717H51.5811C52.7891 11.0717 53.6611 11.3484 54.1971 11.9016C54.7331 12.4467 55.0131 13.2724 55.0371 14.3789C55.0451 14.6148 55.0491 14.9321 55.0491 15.3307C55.0491 15.7294 55.0451 16.0507 55.0371 16.2948C55.0131 17.0677 54.8851 17.6982 54.6531 18.1863C54.4291 18.6663 54.0731 19.0243 53.5851 19.2602C53.0971 19.4961 52.4491 19.6141 51.6411 19.6141H48.8571ZM51.5811 18.5768C52.1331 18.5768 52.5691 18.4995 52.8891 18.345C53.2171 18.1904 53.4531 17.9463 53.5971 17.6128C53.7491 17.2711 53.8331 16.8155 53.8491 16.246C53.8651 15.7578 53.8731 15.4528 53.8731 15.3307C53.8731 15.2006 53.8651 14.8995 53.8491 14.4277C53.8331 13.6222 53.6451 13.0365 53.2851 12.6704C52.9251 12.2961 52.3371 12.109 51.5211 12.109H49.7571V18.5768H51.5811ZM59.2545 19.7361C58.3745 19.7361 57.6905 19.4839 57.2025 18.9795C56.7225 18.4751 56.4665 17.8039 56.4345 16.966L56.4225 16.4412L56.4345 15.9165C56.4665 15.0867 56.7265 14.4195 57.2145 13.9151C57.7025 13.4026 58.3825 13.1463 59.2545 13.1463C60.1265 13.1463 60.8065 13.4026 61.2945 13.9151C61.7825 14.4195 62.0425 15.0867 62.0745 15.9165C62.0825 16.006 62.0865 16.1809 62.0865 16.4412C62.0865 16.7016 62.0825 16.8765 62.0745 16.966C62.0425 17.8039 61.7825 18.4751 61.2945 18.9795C60.8145 19.4839 60.1345 19.7361 59.2545 19.7361ZM59.2545 18.7965C59.7585 18.7965 60.1545 18.6338 60.4425 18.3084C60.7385 17.9829 60.8985 17.5151 60.9225 16.905C60.9305 16.8236 60.9345 16.669 60.9345 16.4412C60.9345 16.2134 60.9305 16.0589 60.9225 15.9775C60.8985 15.3673 60.7385 14.8995 60.4425 14.5741C60.1545 14.2487 59.7585 14.086 59.2545 14.086C58.7505 14.086 58.3505 14.2487 58.0545 14.5741C57.7585 14.8995 57.6025 15.3673 57.5865 15.9775L57.5745 16.4412L57.5865 16.905C57.6025 17.5151 57.7585 17.9829 58.0545 18.3084C58.3505 18.6338 58.7505 18.7965 59.2545 18.7965ZM65.0811 19.6141C64.9771 19.6141 64.8971 19.5897 64.8411 19.5409C64.7851 19.4921 64.7371 19.4148 64.6971 19.309L62.9931 13.6467L62.9691 13.5246C62.9691 13.4514 62.9931 13.3904 63.0411 13.3416C63.0971 13.2928 63.1571 13.2684 63.2211 13.2684H63.7491C63.8291 13.2684 63.8931 13.2928 63.9411 13.3416C63.9971 13.3822 64.0331 13.427 64.0491 13.4758L65.3811 18.0765L66.8091 13.5246C66.8251 13.4595 66.8611 13.4026 66.9171 13.3538C66.9731 13.2968 67.0491 13.2684 67.1451 13.2684H67.5531C67.6491 13.2684 67.7251 13.2968 67.7811 13.3538C67.8371 13.4026 67.8731 13.4595 67.8891 13.5246L69.3171 18.0765L70.6491 13.4758C70.6571 13.4351 70.6851 13.3904 70.7331 13.3416C70.7891 13.2928 70.8571 13.2684 70.9371 13.2684H71.4771C71.5411 13.2684 71.5971 13.2928 71.6451 13.3416C71.6931 13.3904 71.7171 13.4514 71.7171 13.5246L71.6931 13.6467L70.0011 19.309C69.9611 19.4148 69.9131 19.4921 69.8571 19.5409C69.8011 19.5897 69.7171 19.6141 69.6051 19.6141H69.1371C68.9211 19.6141 68.7891 19.5124 68.7411 19.309L67.3491 14.9402L65.9571 19.309C65.8931 19.5124 65.7571 19.6141 65.5491 19.6141H65.0811ZM73.3222 19.6141C73.2422 19.6141 73.1742 19.5897 73.1182 19.5409C73.0702 19.4839 73.0462 19.4148 73.0462 19.3334V13.549C73.0462 13.4677 73.0702 13.4026 73.1182 13.3538C73.1742 13.2968 73.2422 13.2684 73.3222 13.2684H73.8862C73.9662 13.2684 74.0302 13.2968 74.0782 13.3538C74.1342 13.4026 74.1622 13.4677 74.1622 13.549V14.086C74.3942 13.785 74.6662 13.5531 74.9782 13.3904C75.2982 13.2277 75.6942 13.1463 76.1662 13.1463C76.9342 13.1463 77.5302 13.3985 77.9542 13.9029C78.3862 14.3992 78.6022 15.0622 78.6022 15.8921V19.3334C78.6022 19.4148 78.5742 19.4839 78.5182 19.5409C78.4702 19.5897 78.4062 19.6141 78.3262 19.6141H77.7262C77.6462 19.6141 77.5782 19.5897 77.5222 19.5409C77.4742 19.4839 77.4502 19.4148 77.4502 19.3334V15.9531C77.4502 15.3755 77.3102 14.928 77.0302 14.6107C76.7582 14.2934 76.3622 14.1348 75.8422 14.1348C75.3382 14.1348 74.9382 14.2975 74.6422 14.6229C74.3462 14.9402 74.1982 15.3836 74.1982 15.9531V19.3334C74.1982 19.4148 74.1702 19.4839 74.1142 19.5409C74.0662 19.5897 74.0022 19.6141 73.9222 19.6141H73.3222ZM80.6115 19.6141C80.5315 19.6141 80.4635 19.5897 80.4075 19.5409C80.3595 19.4839 80.3355 19.4148 80.3355 19.3334V11.2304C80.3355 11.149 80.3595 11.0839 80.4075 11.0351C80.4635 10.9782 80.5315 10.9497 80.6115 10.9497H81.1755C81.2555 10.9497 81.3195 10.9782 81.3675 11.0351C81.4235 11.0839 81.4515 11.149 81.4515 11.2304V19.3334C81.4515 19.4148 81.4235 19.4839 81.3675 19.5409C81.3195 19.5897 81.2555 19.6141 81.1755 19.6141H80.6115ZM85.7975 19.7361C84.9175 19.7361 84.2335 19.4839 83.7455 18.9795C83.2655 18.4751 83.0095 17.8039 82.9775 16.966L82.9655 16.4412L82.9775 15.9165C83.0095 15.0867 83.2695 14.4195 83.7575 13.9151C84.2455 13.4026 84.9255 13.1463 85.7975 13.1463C86.6695 13.1463 87.3495 13.4026 87.8375 13.9151C88.3255 14.4195 88.5855 15.0867 88.6175 15.9165C88.6255 16.006 88.6295 16.1809 88.6295 16.4412C88.6295 16.7016 88.6255 16.8765 88.6175 16.966C88.5855 17.8039 88.3255 18.4751 87.8375 18.9795C87.3575 19.4839 86.6775 19.7361 85.7975 19.7361ZM85.7975 18.7965C86.3015 18.7965 86.6975 18.6338 86.9855 18.3084C87.2815 17.9829 87.4415 17.5151 87.4655 16.905C87.4735 16.8236 87.4775 16.669 87.4775 16.4412C87.4775 16.2134 87.4735 16.0589 87.4655 15.9775C87.4415 15.3673 87.2815 14.8995 86.9855 14.5741C86.6975 14.2487 86.3015 14.086 85.7975 14.086C85.2935 14.086 84.8935 14.2487 84.5975 14.5741C84.3015 14.8995 84.1455 15.3673 84.1295 15.9775L84.1175 16.4412L84.1295 16.905C84.1455 17.5151 84.3015 17.9829 84.5975 18.3084C84.8935 18.6338 85.2935 18.7965 85.7975 18.7965ZM91.8721 19.7361C91.4801 19.7361 91.1161 19.6548 90.7801 19.4921C90.4441 19.3294 90.1761 19.1097 89.9761 18.8331C89.7841 18.5484 89.6881 18.2351 89.6881 17.8934C89.6881 17.3565 89.9041 16.9172 90.3361 16.5755C90.7761 16.2256 91.3681 15.9978 92.1121 15.8921L93.9001 15.6358V15.2819C93.9001 14.4521 93.4321 14.0372 92.4961 14.0372C92.1441 14.0372 91.8561 14.1145 91.6321 14.269C91.4081 14.4155 91.2401 14.5904 91.1281 14.7938C91.1041 14.867 91.0721 14.9199 91.0321 14.9524C91.0001 14.985 90.9521 15.0012 90.8881 15.0012H90.3721C90.3001 15.0012 90.2361 14.9768 90.1801 14.928C90.1321 14.8711 90.1081 14.806 90.1081 14.7328C90.1161 14.5375 90.2041 14.3178 90.3721 14.0738C90.5481 13.8216 90.8161 13.606 91.1761 13.427C91.5361 13.2399 91.9801 13.1463 92.5081 13.1463C93.4041 13.1463 94.0481 13.3619 94.4401 13.7931C94.8321 14.2161 95.0281 14.745 95.0281 15.3795V19.3334C95.0281 19.4148 95.0001 19.4839 94.9441 19.5409C94.8961 19.5897 94.8321 19.6141 94.7521 19.6141H94.2001C94.1201 19.6141 94.0521 19.5897 93.9961 19.5409C93.9481 19.4839 93.9241 19.4148 93.9241 19.3334V18.8087C93.7481 19.069 93.4921 19.2887 93.1561 19.4677C92.8201 19.6467 92.3921 19.7361 91.8721 19.7361ZM92.1241 18.8209C92.6441 18.8209 93.0681 18.65 93.3961 18.3084C93.7321 17.9585 93.9001 17.4582 93.9001 16.8073V16.4656L92.5081 16.6731C91.9401 16.7545 91.5121 16.8928 91.2241 17.088C90.9361 17.2751 90.7921 17.5151 90.7921 17.808C90.7921 18.1334 90.9241 18.3856 91.1881 18.5646C91.4521 18.7355 91.7641 18.8209 92.1241 18.8209ZM99.0332 19.7361C98.2012 19.7361 97.5732 19.4595 97.1492 18.9063C96.7252 18.3531 96.5012 17.6534 96.4772 16.8073L96.4652 16.4412L96.4772 16.0751C96.5012 15.2372 96.7252 14.5416 97.1492 13.9884C97.5732 13.427 98.2012 13.1463 99.0332 13.1463C99.8572 13.1463 100.505 13.4433 100.977 14.0372V11.2304C100.977 11.149 101.001 11.0839 101.049 11.0351C101.105 10.9782 101.173 10.9497 101.253 10.9497H101.829C101.909 10.9497 101.973 10.9782 102.021 11.0351C102.077 11.0839 102.105 11.149 102.105 11.2304V19.3334C102.105 19.4148 102.077 19.4839 102.021 19.5409C101.973 19.5897 101.909 19.6141 101.829 19.6141H101.289C101.209 19.6141 101.141 19.5897 101.085 19.5409C101.037 19.4839 101.013 19.4148 101.013 19.3334V18.8209C100.549 19.4311 99.8892 19.7361 99.0332 19.7361ZM99.2852 18.7477C99.8372 18.7477 100.249 18.5646 100.521 18.1985C100.801 17.8243 100.953 17.3809 100.977 16.8684C100.985 16.7789 100.989 16.6243 100.989 16.4046C100.989 16.1768 100.985 16.0182 100.977 15.9287C100.961 15.4487 100.809 15.0297 100.521 14.6717C100.233 14.3138 99.8212 14.1348 99.2852 14.1348C98.7172 14.1348 98.3012 14.3138 98.0372 14.6717C97.7812 15.0297 97.6412 15.5016 97.6172 16.0873L97.6052 16.4412C97.6052 17.9789 98.1652 18.7477 99.2852 18.7477ZM109.387 19.7361C108.507 19.7361 107.823 19.4839 107.335 18.9795C106.855 18.4751 106.599 17.8039 106.567 16.966L106.555 16.4412L106.567 15.9165C106.599 15.0867 106.859 14.4195 107.347 13.9151C107.835 13.4026 108.515 13.1463 109.387 13.1463C110.259 13.1463 110.939 13.4026 111.427 13.9151C111.915 14.4195 112.175 15.0867 112.207 15.9165C112.215 16.006 112.219 16.1809 112.219 16.4412C112.219 16.7016 112.215 16.8765 112.207 16.966C112.175 17.8039 111.915 18.4751 111.427 18.9795C110.947 19.4839 110.267 19.7361 109.387 19.7361ZM109.387 18.7965C109.891 18.7965 110.287 18.6338 110.575 18.3084C110.871 17.9829 111.031 17.5151 111.055 16.905C111.063 16.8236 111.067 16.669 111.067 16.4412C111.067 16.2134 111.063 16.0589 111.055 15.9775C111.031 15.3673 110.871 14.8995 110.575 14.5741C110.287 14.2487 109.891 14.086 109.387 14.086C108.883 14.086 108.483 14.2487 108.187 14.5741C107.891 14.8995 107.735 15.3673 107.719 15.9775L107.707 16.4412L107.719 16.905C107.735 17.5151 107.891 17.9829 108.187 18.3084C108.483 18.6338 108.883 18.7965 109.387 18.7965ZM113.998 19.6141C113.918 19.6141 113.85 19.5897 113.794 19.5409C113.746 19.4839 113.722 19.4148 113.722 19.3334V13.549C113.722 13.4677 113.746 13.4026 113.794 13.3538C113.85 13.2968 113.918 13.2684 113.998 13.2684H114.562C114.642 13.2684 114.706 13.2968 114.754 13.3538C114.81 13.4026 114.838 13.4677 114.838 13.549V14.086C115.07 13.785 115.342 13.5531 115.654 13.3904C115.974 13.2277 116.37 13.1463 116.842 13.1463C117.61 13.1463 118.206 13.3985 118.63 13.9029C119.062 14.3992 119.278 15.0622 119.278 15.8921V19.3334C119.278 19.4148 119.25 19.4839 119.194 19.5409C119.146 19.5897 119.082 19.6141 119.002 19.6141H118.402C118.322 19.6141 118.254 19.5897 118.198 19.5409C118.15 19.4839 118.126 19.4148 118.126 19.3334V15.9531C118.126 15.3755 117.986 14.928 117.706 14.6107C117.434 14.2934 117.038 14.1348 116.518 14.1348C116.014 14.1348 115.614 14.2975 115.318 14.6229C115.022 14.9402 114.874 15.3836 114.874 15.9531V19.3334C114.874 19.4148 114.846 19.4839 114.79 19.5409C114.742 19.5897 114.678 19.6141 114.598 19.6141H113.998Z" fill="#182841"/>
<path id="Vector_3" d="M54.1065 48.9414H49.5371V25.7156H54.1065V48.9402V48.9414Z" fill="#182841"/>
<path id="Vector_4" d="M71.7578 48.9419H67.4999V40.8903C67.4999 39.7134 67.2347 38.7948 66.7067 38.1345C66.1774 37.4743 65.4478 37.1435 64.5182 37.1435C63.8657 37.1435 63.2894 37.3066 62.7898 37.6315C62.2902 37.9565 61.9019 38.4158 61.6245 39.0095C61.3473 39.6032 61.2086 40.3128 61.2086 41.1382V48.9419H56.9507V33.1292H60.3922L60.5408 35.9367C61.0745 35.0285 61.7874 34.3372 62.6775 33.8619C63.5677 33.3877 64.5965 33.1499 65.7637 33.1499C67.6232 33.1499 69.0864 33.7458 70.1547 34.9377C71.2231 36.1296 71.7571 37.7636 71.7571 39.8385V48.9429L71.7578 48.9419Z" fill="#182841"/>
<path id="Vector_5" d="M90.6324 48.9414H86.8938L86.6713 46.8355C86.0389 47.5784 85.2797 48.1675 84.3939 48.6003C83.5082 49.0343 82.5423 49.2502 81.4937 49.2502C80.138 49.2502 78.9289 48.9023 77.8661 48.2053C76.8033 47.5083 75.9646 46.5506 75.3509 45.3335C74.7371 44.1152 74.4312 42.7374 74.4312 41.1998C74.4312 39.6623 74.7378 38.2706 75.3509 37.0581C75.9639 35.8455 76.8022 34.8902 77.8661 34.1932C78.9289 33.4962 80.138 33.1484 81.4937 33.1484C82.4628 33.1484 83.3651 33.332 84.2015 33.6982C85.0374 34.0646 85.7615 34.5732 86.3745 35.2231V25.7168H90.6324V48.9414ZM82.5916 45.2716C83.2936 45.2716 83.9295 45.1063 84.4983 44.7755C85.0675 44.4447 85.5215 43.9935 85.8638 43.4206C86.205 42.8476 86.3757 42.1953 86.3757 41.4616V40.9047C86.3757 40.1721 86.205 39.5211 85.8638 38.9538C85.5227 38.3867 85.0675 37.94 84.4983 37.615C83.9295 37.2901 83.2936 37.127 82.5916 37.127C81.8897 37.127 81.2217 37.3027 80.6486 37.6529C80.0756 38.0043 79.6222 38.4865 79.291 39.1009C78.9598 39.7152 78.7934 40.4145 78.7934 41.1986C78.7934 41.9829 78.9586 42.6673 79.291 43.2816C79.6222 43.8959 80.0744 44.3806 80.6486 44.7376C81.2217 45.0936 81.8699 45.2716 82.5916 45.2716Z" fill="#182841"/>
<path id="Vector_6" d="M108.287 48.9422H104.83L104.682 46.4642C104.157 47.3725 103.462 48.0649 102.596 48.5391C101.731 49.0134 100.719 49.251 99.5619 49.251C97.6628 49.251 96.174 48.6425 95.0958 47.4242C94.0176 46.2058 93.4785 44.5339 93.4785 42.4075V33.1284H97.7364V41.3854C97.7364 42.5935 98.0107 43.5408 98.5597 44.2263C99.1086 44.9129 99.8581 45.2561 100.807 45.2561C101.757 45.2561 102.58 44.898 103.159 44.1803C103.737 43.4626 104.027 42.4901 104.027 41.2614V33.1284H108.285V48.941L108.287 48.9422Z" fill="#182841"/>
<path id="Vector_7" d="M110.778 47.61L111.713 43.8322C112.01 44.1732 112.407 44.4879 112.908 44.7771C113.407 45.0665 113.946 45.2961 114.525 45.4662C115.104 45.6361 115.65 45.7221 116.165 45.7221C116.778 45.7221 117.257 45.6004 117.604 45.3582C117.95 45.1158 118.123 44.7876 118.123 44.3752C118.123 44.0342 118.006 43.7483 117.774 43.5164C117.542 43.2844 117.231 43.0778 116.839 42.8975C116.448 42.7172 116.016 42.5392 115.541 42.3636C114.898 42.1052 114.238 41.8067 113.56 41.4656C112.882 41.1246 112.311 40.6608 111.847 40.0717C111.382 39.4838 111.15 38.7041 111.15 37.7338C111.15 36.7634 111.382 35.9977 111.847 35.3109C112.311 34.6243 112.97 34.0927 113.82 33.716C114.671 33.3395 115.659 33.1511 116.788 33.1511C118.617 33.1511 120.442 33.631 122.262 34.591L121.061 38.1058C120.744 37.8474 120.349 37.6075 119.874 37.3859C119.399 37.1642 118.912 36.9862 118.412 36.8519C117.913 36.7176 117.465 36.651 117.07 36.651C116.585 36.651 116.208 36.7544 115.935 36.9609C115.663 37.1677 115.527 37.4513 115.527 37.813C115.527 38.0817 115.62 38.3217 115.808 38.5329C115.996 38.7442 116.276 38.9463 116.646 39.1369C117.018 39.3275 117.475 39.5319 118.019 39.749C118.691 40.0073 119.371 40.3139 120.058 40.6698C120.746 41.0258 121.325 41.5012 121.795 42.0949C122.264 42.6885 122.5 43.475 122.5 44.4557C122.5 45.4363 122.25 46.2574 121.75 46.9795C121.251 47.7017 120.549 48.2621 119.643 48.6594C118.738 49.0567 117.678 49.2554 116.462 49.2554C114.434 49.2554 112.54 48.7087 110.779 47.6145L110.778 47.61Z" fill="#182841"/>
<path id="Vector_8" d="M129.523 45.9848H127.5L131.243 36.187H133.278L137.016 45.9848H134.994L134.224 43.8804H130.293L129.523 45.9848ZM130.924 42.1174H133.596L132.256 38.4854L130.924 42.1174Z" fill="#182841"/>
<path id="Vector_9" d="M140.238 49.2508H138.436V39.4528H140.013L140.107 40.3411C140.373 40.0236 140.693 39.7744 141.067 39.5941C141.441 39.4137 141.849 39.3235 142.29 39.3235C142.866 39.3235 143.377 39.4704 143.823 39.7647C144.271 40.0589 144.623 40.4608 144.882 40.9727C145.141 41.4846 145.269 42.067 145.269 42.7201C145.269 43.3732 145.139 43.9495 144.882 44.4638C144.623 44.9773 144.271 45.3811 143.823 45.6756C143.377 45.9694 142.866 46.1166 142.29 46.1166C141.881 46.1166 141.503 46.0383 141.154 45.8855C140.806 45.7304 140.5 45.5163 140.236 45.2423V49.253L140.238 49.2508ZM141.833 44.4301C142.147 44.4301 142.422 44.3574 142.66 44.2102C142.899 44.0637 143.085 43.8614 143.221 43.6026C143.356 43.3438 143.423 43.0477 143.423 42.7181C143.423 42.3887 143.356 42.0867 143.221 41.8298C143.085 41.5728 142.897 41.3709 142.66 41.2218C142.424 41.0727 142.149 41.0002 141.842 41.0002C141.55 41.0002 141.287 41.0669 141.052 41.2003C140.819 41.3336 140.629 41.518 140.486 41.7513C140.342 41.9867 140.259 42.2574 140.238 42.5613V42.8887C140.259 43.1847 140.34 43.4497 140.483 43.6834C140.625 43.9165 140.811 44.099 141.046 44.2321C141.279 44.3653 141.543 44.4321 141.836 44.4321L141.833 44.4301Z" fill="#182841"/>
<path id="Vector_10" d="M148.726 49.2527H146.925V39.4549H148.501L148.595 40.3432C148.862 40.0255 149.181 39.7765 149.555 39.5961C149.929 39.4155 150.337 39.3254 150.779 39.3254C151.354 39.3254 151.865 39.4725 152.312 39.7667C152.759 40.0609 153.111 40.4629 153.37 40.9747C153.629 41.4866 153.757 42.0691 153.757 42.7222C153.757 43.3752 153.627 43.9515 153.37 44.4658C153.111 44.9794 152.759 45.3831 152.312 45.6775C151.865 45.9712 151.354 46.1187 150.779 46.1187C150.369 46.1187 149.991 46.0404 149.642 45.8875C149.294 45.7324 148.988 45.5184 148.724 45.2444V49.2549L148.726 49.2527ZM150.322 44.432C150.635 44.432 150.91 44.3594 151.148 44.2122C151.387 44.0657 151.574 43.8635 151.709 43.6047C151.844 43.3456 151.912 43.0497 151.912 42.7201C151.912 42.3906 151.844 42.0887 151.709 41.8317C151.574 41.5748 151.385 41.3728 151.148 41.2238C150.912 41.0747 150.637 41.0023 150.33 41.0023C150.038 41.0023 149.775 41.0687 149.541 41.2021C149.307 41.3356 149.117 41.5199 148.975 41.7533C148.83 41.9885 148.747 42.2593 148.726 42.5633V42.8907C148.747 43.1868 148.828 43.4516 148.971 43.6854C149.114 43.9185 149.299 44.1009 149.534 44.2342C149.767 44.3673 150.031 44.4342 150.324 44.4342L150.322 44.432Z" fill="#182841"/>
<path id="Vector_11" d="M154.97 45.4248L155.365 43.8298C155.49 43.9735 155.657 44.1066 155.868 44.2278C156.079 44.3498 156.306 44.4477 156.55 44.5181C156.794 44.5906 157.026 44.6266 157.242 44.6266C157.501 44.6266 157.702 44.5752 157.849 44.473C157.995 44.3716 158.069 44.2321 158.069 44.0594C158.069 43.9165 158.019 43.7946 157.922 43.6967C157.824 43.5987 157.693 43.5124 157.527 43.4359C157.362 43.3594 157.18 43.285 156.979 43.2105C156.708 43.1026 156.428 42.975 156.142 42.832C155.857 42.6887 155.616 42.4926 155.419 42.2435C155.222 41.9946 155.124 41.667 155.124 41.2572C155.124 40.8473 155.222 40.5236 155.419 40.2354C155.614 39.945 155.892 39.7216 156.252 39.5627C156.611 39.4038 157.028 39.3235 157.503 39.3235C158.275 39.3235 159.044 39.5254 159.812 39.9314L159.305 41.4139C159.172 41.3042 159.004 41.2042 158.805 41.11C158.604 41.016 158.4 40.9415 158.189 40.8845C157.978 40.8276 157.789 40.8 157.623 40.8C157.419 40.8 157.259 40.8433 157.144 40.9315C157.029 41.0178 156.971 41.1373 156.971 41.2904C156.971 41.4043 157.01 41.5042 157.089 41.5945C157.168 41.6846 157.287 41.7688 157.443 41.8494C157.599 41.9297 157.793 42.0161 158.022 42.1062C158.305 42.2161 158.593 42.3456 158.882 42.4946C159.172 42.6435 159.416 42.8456 159.615 43.0947C159.815 43.3438 159.912 43.6769 159.912 44.0913C159.912 44.5048 159.807 44.852 159.596 45.1556C159.386 45.46 159.089 45.6974 158.707 45.8636C158.326 46.0307 157.879 46.1144 157.366 46.1144C156.511 46.1144 155.71 45.8834 154.968 45.4227L154.97 45.4248Z" fill="#182841"/>
<path id="Vector_12" d="M165.833 45.8144C165.354 46.0145 164.888 46.1146 164.437 46.1146C163.986 46.1146 163.557 46.0103 163.2 45.8046C162.844 45.5988 162.565 45.3087 162.364 44.9359C162.163 44.5632 162.063 44.1336 162.063 43.6453V41.1233H160.968V39.4504H162.157V37.8169H163.86V39.4504H165.594V41.1233H163.86V43.306C163.86 43.6629 163.954 43.9413 164.142 44.1398C164.329 44.3378 164.563 44.4357 164.842 44.4357C165.096 44.4357 165.347 44.3533 165.587 44.1865L165.831 45.8122L165.833 45.8144Z" fill="#182841"/>
<path id="Vector_13" d="M170.363 46.1175C169.72 46.1175 169.145 45.9703 168.636 45.6764C168.127 45.382 167.728 44.9805 167.438 44.4682C167.148 43.9562 167.003 43.3739 167.003 42.7208C167.003 42.0677 167.148 41.4912 167.438 40.9794C167.727 40.4676 168.127 40.0635 168.636 39.7675C169.145 39.4714 169.72 39.3223 170.363 39.3223C171.006 39.3223 171.579 39.4714 172.081 39.7675C172.583 40.0635 172.979 40.4676 173.27 40.9794C173.559 41.4912 173.705 42.0718 173.705 42.7208C173.705 43.3701 173.559 43.9562 173.27 44.4682C172.981 44.9805 172.585 45.382 172.081 45.6764C171.577 45.9703 171.006 46.1175 170.363 46.1175ZM170.358 44.4386C170.645 44.4386 170.902 44.3641 171.13 44.2133C171.358 44.0626 171.538 43.8582 171.667 43.5996C171.799 43.3405 171.864 43.0444 171.864 42.715C171.864 42.3855 171.799 42.0973 171.667 41.8403C171.536 41.5834 171.358 41.3795 171.13 41.2306C170.902 41.0815 170.645 41.0049 170.358 41.0049C170.07 41.0049 169.805 41.0793 169.578 41.2306C169.35 41.3815 169.172 41.5855 169.04 41.8403C168.909 42.0973 168.843 42.3895 168.843 42.715C168.843 43.0405 168.909 43.3405 169.04 43.5996C169.172 43.8582 169.35 44.0626 169.578 44.2133C169.805 44.3641 170.065 44.4386 170.358 44.4386Z" fill="#182841"/>
<path id="Vector_14" d="M177.145 45.9863H175.349V39.4538H176.914L176.976 40.5833C177.185 40.1872 177.468 39.8772 177.827 39.6556C178.186 39.434 178.598 39.3223 179.06 39.3223C179.193 39.3223 179.328 39.3322 179.463 39.3517C179.599 39.3713 179.738 39.4008 179.879 39.4399L179.654 41.1245C179.377 41.0421 179.118 41.0009 178.872 41.0009C178.526 41.0009 178.221 41.0833 177.96 41.2461C177.699 41.4088 177.499 41.6364 177.358 41.9246C177.214 42.215 177.145 42.5522 177.145 42.9405V45.9843V45.9863Z" fill="#182841"/>
<path id="Vector_15" d="M186.984 45.2544C186.208 45.8292 185.359 46.1175 184.436 46.1175C183.752 46.1175 183.138 45.9647 182.593 45.6567C182.048 45.3488 181.619 44.9333 181.304 44.4057C180.988 43.8779 180.83 43.2838 180.83 42.6229C180.83 41.9619 180.973 41.4264 181.259 40.9304C181.544 40.4342 181.933 40.042 182.426 39.7538C182.918 39.4656 183.478 39.3223 184.104 39.3223C184.73 39.3223 185.32 39.4792 185.812 39.7947C186.304 40.1106 186.687 40.5499 186.963 41.1148C187.24 41.6795 187.377 42.3307 187.377 43.072V43.2818H182.764C182.839 43.5386 182.961 43.7646 183.131 43.9582C183.299 44.1527 183.512 44.3054 183.769 44.4189C184.026 44.533 184.318 44.5902 184.649 44.5902C185.287 44.5902 185.881 44.3739 186.432 43.9427L186.982 45.2565L186.984 45.2544ZM182.685 42.3286H185.72C185.686 42.0462 185.601 41.7952 185.466 41.5815C185.331 41.3657 185.154 41.197 184.934 41.0755C184.714 40.954 184.47 40.893 184.198 40.893C183.925 40.893 183.677 40.9558 183.463 41.0833C183.249 41.2108 183.074 41.3795 182.94 41.5933C182.807 41.807 182.721 42.0522 182.683 42.3307L182.685 42.3286Z" fill="#182841"/>
</g>
<defs>
<linearGradient id="paint0_linear_1522_17192" x1="26.4346" y1="13.8494" x2="26.4346" y2="39.7318" gradientUnits="userSpaceOnUse">
<stop stop-color="#FDAB04"/>
<stop offset="0.67" stop-color="#FD6B00"/>
<stop offset="1" stop-color="#DC007B"/>
</linearGradient>
</defs>
</svg>
