<svg width="28" height="23" viewBox="0 0 28 23" fill="none" xmlns="http://www.w3.org/2000/svg">
<g id="SVGRepo_iconCarrier">
<g id="Group">
<path id="Vector" d="M26.9906 3.25749H24.1985C23.5935 3.25749 22.9886 2.97828 22.5232 2.55946L20.2895 0.651498C19.8242 0.279213 19.2192 0 18.6142 0H13.1696C12.4715 0 11.82 0.279213 11.3081 0.791104L8.42294 3.16442C8.19026 3.35056 8.19026 3.72285 8.3764 3.95552L9.26058 4.79316C9.86554 5.25852 10.6566 5.35159 11.2616 4.93277L13.8211 3.3971C14.1468 3.16442 14.6122 3.25749 14.8914 3.5367L22.942 11.3547C23.1282 11.5408 23.2678 11.82 23.2678 12.0992V14.1934C23.2678 14.7518 23.6866 15.3567 24.1985 15.3567H26.9906C27.5025 15.3567 27.9213 14.9379 27.9213 14.3795V4.1882C27.9213 3.62977 27.5025 3.25749 26.9906 3.25749ZM19.0796 11.6339L14.0537 6.74766L12.6577 7.5853C11.9596 8.00412 11.1685 8.2368 10.3774 8.2368C9.40019 8.2368 8.3764 7.86451 7.5853 7.21301L5.77041 5.72388C5.35159 5.39813 5.11891 5.02584 5.07238 4.51395C4.97931 4.00206 4.60702 3.72285 4.14167 3.72285H0.930712C0.41882 3.72285 0 4.00206 0 4.56049V13.03C0 13.5884 0.41882 13.9607 0.930712 13.9607H2.79213C2.93174 13.9607 3.11788 13.4488 3.30403 13.2161C4.00206 12.2854 5.02584 11.7735 6.1427 11.6339C7.25955 11.5408 8.32987 11.9131 9.21404 12.7042L15.031 18.0093C15.5429 18.4746 15.9152 18.9865 16.1478 19.638C16.2875 19.9638 16.6597 20.0568 16.8924 19.8242L19.0796 17.637C20.1964 16.5201 21.0341 13.9141 20.0103 12.7042L19.0796 11.6339ZM7.39916 15.0775C6.79419 14.5191 5.91002 14.6122 5.44466 15.2637C4.93277 15.9152 5.02584 16.8459 5.63081 17.4043L11.4478 22.6628C11.727 22.942 12.0992 23.0351 12.4715 22.9886C12.8438 22.942 13.1696 22.7559 13.4022 22.4301C13.9141 21.7787 13.8211 20.8479 13.2161 20.2895L7.39916 15.0775Z" fill="#BABABA"/>
</g>
</g>
</svg>
