<svg width="195" height="60" viewBox="0 0 195 60" fill="none" xmlns="http://www.w3.org/2000/svg">
<g id="app_store_white 1">
<rect x="0.5" width="194" height="60" rx="10" fill="#E4E4E4" fill-opacity="0.65"/>
<path id="Vector" d="M43.3128 28.4597C43.2682 23.8145 47.111 21.5587 47.2893 21.4517C45.1138 18.2776 41.7346 17.8408 40.5488 17.8051C37.7135 17.5109 34.9674 19.4991 33.523 19.4991C32.0786 19.4991 29.8228 17.8318 27.4334 17.8764C24.3484 17.9299 21.4686 19.7131 19.8815 22.4771C16.6183 28.1298 19.0523 36.4306 22.1818 41.0045C23.7511 43.2424 25.5788 45.7389 27.9683 45.6498C30.3043 45.5517 31.1781 44.1608 34.0045 44.1608C36.8308 44.1608 37.6243 45.6498 40.0673 45.5963C42.5816 45.5517 44.1598 43.3494 45.6666 41.0937C47.4765 38.5259 48.1987 36.0026 48.2344 35.8778C48.172 35.86 43.3573 34.0233 43.3038 28.4508" fill="#182841"/>
<path id="Vector_2" d="M38.7031 14.8095C39.9603 13.2314 40.8251 11.0915 40.5844 8.91602C38.7655 8.99626 36.483 10.1732 35.1724 11.7156C34.0133 13.0709 32.9701 15.2999 33.2376 17.3862C35.2883 17.5378 37.3836 16.352 38.7031 14.8006" fill="#182841"/>
<g id="Group" opacity="0.8">
<path id="Vector_3" d="M65.2017 16.1475L64.3904 18.8044H62.625L65.6297 9.4248H67.8141L70.8634 18.8044H69.0267L68.1797 16.1475H65.2017ZM67.8854 14.8546L67.1454 12.5454C66.9671 11.9748 66.8155 11.3328 66.6729 10.789H66.6461C66.5035 11.3328 66.3697 11.9837 66.2003 12.5454L65.4781 14.8546H67.8854Z" fill="#182841"/>
<path id="Vector_4" d="M73.4223 12.0283L74.5189 15.4699C74.7151 16.0673 74.8488 16.6111 74.9826 17.1639H75.0271C75.152 16.6111 75.3035 16.0762 75.4908 15.4699L76.5785 12.0283H78.3707L75.785 18.8045H74.0999L71.5767 12.0283H73.4312H73.4223Z" fill="#182841"/>
<path id="Vector_5" d="M85.2004 17.1809C85.2004 17.7961 85.2272 18.3934 85.3074 18.8125H83.7649L83.6401 18.0636H83.5955C83.1943 18.5896 82.481 18.9641 81.5894 18.9641C80.2253 18.9641 79.4585 17.9744 79.4585 16.9491C79.4585 15.255 80.9742 14.3723 83.4796 14.3902V14.2832C83.4796 13.8374 83.3013 13.0973 82.0976 13.0973C81.4289 13.0973 80.7335 13.3024 80.2788 13.5966L79.9489 12.4821C80.4482 12.179 81.3309 11.8848 82.4008 11.8848C84.5763 11.8848 85.2004 13.2667 85.2004 14.7557V17.1898V17.1809ZM83.5331 15.4957C82.3205 15.4779 81.1704 15.7365 81.1704 16.7618C81.1704 17.4305 81.5983 17.7337 82.1422 17.7337C82.8377 17.7337 83.328 17.2879 83.4885 16.7975C83.5331 16.6727 83.5331 16.5478 83.5331 16.423V15.4868V15.4957Z" fill="#182841"/>
<path id="Vector_6" d="M88.4637 11.0557C87.893 11.0557 87.5186 10.6366 87.5186 10.1374C87.5186 9.61131 87.9109 9.20117 88.4815 9.20117C89.0521 9.20117 89.4266 9.60239 89.4444 10.1374C89.4444 10.6366 89.0699 11.0557 88.4815 11.0557H88.4637ZM87.6166 18.8037V12.0275H89.3285V18.8037H87.6166Z" fill="#182841"/>
<path id="Vector_7" d="M91.7891 8.91602H93.5009V18.8128H91.7891V8.91602Z" fill="#182841"/>
<path id="Vector_8" d="M101.24 17.1809C101.24 17.7961 101.267 18.3934 101.347 18.8125H99.805L99.6801 18.0636H99.6356C99.2343 18.5896 98.5211 18.9641 97.6295 18.9641C96.2653 18.9641 95.4985 17.9744 95.4985 16.9491C95.4985 15.255 97.0142 14.3723 99.5196 14.3902V14.2832C99.5196 13.8374 99.3413 13.0973 98.1466 13.0973C97.4779 13.0973 96.7824 13.3024 96.3277 13.5966L95.9978 12.4821C96.4971 12.179 97.3798 11.8848 98.4497 11.8848C100.616 11.8848 101.249 13.2667 101.249 14.7557V17.1898L101.24 17.1809ZM99.5731 15.4957C98.3606 15.4779 97.2104 15.7365 97.2104 16.7618C97.2104 17.4305 97.6384 17.7337 98.1822 17.7337C98.8777 17.7337 99.3681 17.2879 99.5286 16.7975C99.5731 16.6727 99.5731 16.5478 99.5731 16.423V15.4868V15.4957Z" fill="#182841"/>
<path id="Vector_9" d="M103.665 8.91602H105.377V12.9639H105.404C105.823 12.313 106.563 11.8761 107.579 11.8761C109.238 11.8761 110.415 13.2581 110.406 15.3177C110.406 17.7518 108.863 18.9643 107.33 18.9643C106.456 18.9643 105.671 18.6255 105.19 17.7963H105.163L105.083 18.8128H103.621C103.647 18.3491 103.674 17.6002 103.674 16.9226V8.91602H103.665ZM105.377 16.0131C105.377 16.1558 105.395 16.2895 105.422 16.4144C105.6 17.1098 106.197 17.6091 106.937 17.6091C108.007 17.6091 108.667 16.7621 108.667 15.3801C108.667 14.1854 108.096 13.2135 106.955 13.2135C106.26 13.2135 105.618 13.7128 105.439 14.4618C105.413 14.5866 105.386 14.7382 105.386 14.9076V16.0042L105.377 16.0131Z" fill="#182841"/>
<path id="Vector_10" d="M112.412 8.91602H114.123V18.8128H112.412V8.91602Z" fill="#182841"/>
<path id="Vector_11" d="M117.815 15.8971C117.86 17.1186 118.814 17.6535 119.902 17.6535C120.695 17.6535 121.248 17.5287 121.783 17.3504L122.033 18.5184C121.444 18.768 120.642 18.9464 119.67 18.9464C117.468 18.9464 116.175 17.6 116.175 15.5226C116.175 13.6413 117.316 11.876 119.492 11.876C121.667 11.876 122.416 13.6859 122.416 15.1749C122.416 15.4959 122.389 15.7455 122.363 15.8971H117.824H117.815ZM120.793 14.7023C120.811 14.0782 120.526 13.044 119.385 13.044C118.324 13.044 117.878 14.0069 117.815 14.7023H120.793Z" fill="#182841"/>
<path id="Vector_12" d="M130.85 18.9642C128.942 18.9642 127.453 17.6535 127.453 15.4691C127.453 13.2847 128.915 11.876 130.957 11.876C132.999 11.876 134.327 13.2936 134.327 15.3532C134.327 17.8408 132.571 18.9553 130.859 18.9553H130.841L130.85 18.9642ZM130.904 17.7249C131.875 17.7249 132.562 16.7798 132.562 15.3978C132.562 14.3368 132.089 13.1153 130.921 13.1153C129.753 13.1153 129.218 14.3011 129.218 15.4245C129.218 16.7352 129.869 17.7249 130.886 17.7249H130.904Z" fill="#182841"/>
<path id="Vector_13" d="M136.343 14.0514C136.343 13.2757 136.316 12.6159 136.289 12.0363H137.778L137.858 13.0528H137.903C138.206 12.5267 138.946 11.8848 140.078 11.8848C141.211 11.8848 142.486 12.6515 142.486 14.7914V18.8125H140.774V14.9875C140.774 14.0157 140.408 13.2757 139.481 13.2757C138.803 13.2757 138.331 13.766 138.144 14.2743C138.09 14.4169 138.063 14.622 138.063 14.8181V18.8125H136.351V14.0514H136.343Z" fill="#182841"/>
<path id="Vector_14" d="M150.367 10.2892V12.0278H151.999V13.3117H150.367V16.2897C150.367 17.1278 150.59 17.5379 151.241 17.5379C151.544 17.5379 151.714 17.5201 151.91 17.4666L151.937 18.7594C151.687 18.8575 151.223 18.9377 150.697 18.9377C150.055 18.9377 149.547 18.7326 149.226 18.3849C148.852 17.9926 148.682 17.3685 148.682 16.4769V13.3028H147.719V12.0189H148.682V10.7528L150.367 10.2803V10.2892Z" fill="#182841"/>
<path id="Vector_15" d="M153.907 8.91602H155.619V12.955H155.646C155.851 12.634 156.145 12.3665 156.493 12.1882C156.841 11.992 157.242 11.885 157.679 11.885C158.829 11.885 160.042 12.6518 160.042 14.8184V18.8128H158.33V14.9967C158.33 14.0249 157.964 13.267 157.019 13.267C156.35 13.267 155.878 13.7128 155.682 14.2299C155.628 14.3815 155.61 14.5688 155.61 14.7471V18.8128H153.898V8.91602H153.907Z" fill="#182841"/>
<path id="Vector_16" d="M163.688 15.8971C163.732 17.1186 164.687 17.6535 165.774 17.6535C166.568 17.6535 167.121 17.5287 167.656 17.3504L167.905 18.5184C167.317 18.768 166.514 18.9464 165.542 18.9464C163.34 18.9464 162.047 17.6 162.047 15.5226C162.047 13.6413 163.189 11.876 165.364 11.876C167.54 11.876 168.289 13.6859 168.289 15.1749C168.289 15.4959 168.262 15.7455 168.235 15.8971H163.697H163.688ZM166.666 14.7023C166.684 14.0782 166.398 13.044 165.257 13.044C164.196 13.044 163.75 14.0069 163.688 14.7023H166.666Z" fill="#182841"/>
</g>
<path id="Vector_17" d="M77.7374 44.7399H74.4742L72.691 39.1228H66.4854L64.7825 44.7399H61.6084L67.7604 25.624H71.5587L77.7374 44.7399ZM72.156 36.769L70.5422 31.7761C70.3728 31.2678 70.0518 30.0642 69.5793 28.174H69.5258C69.3386 28.9854 69.0354 30.189 68.6164 31.7761L67.0293 36.769H72.1649H72.156Z" fill="#182841"/>
<path id="Vector_18" d="M93.5635 37.679C93.5635 40.0239 92.9305 41.8784 91.6644 43.2337C90.5321 44.4462 89.1234 45.0436 87.4382 45.0436C85.6194 45.0436 84.3176 44.3927 83.5241 43.091H83.4706V50.3486H80.4035V35.4857C80.4035 34.0145 80.3678 32.4988 80.2876 30.9474H82.9802L83.1496 33.1318H83.212C84.2285 31.4824 85.7799 30.6621 87.8573 30.6621C89.48 30.6621 90.8441 31.3041 91.923 32.588C93.0107 33.8719 93.5546 35.5659 93.5546 37.6612M90.434 37.7771C90.434 36.4397 90.1309 35.3252 89.5246 34.4603C88.8648 33.5509 87.9732 33.0962 86.8587 33.0962C86.1008 33.0962 85.4143 33.3458 84.7991 33.8451C84.1839 34.3533 83.7827 35.0042 83.5954 35.8156C83.4974 36.1989 83.4528 36.5021 83.4528 36.7517V39.0521C83.4528 40.0507 83.7559 40.8977 84.3711 41.5842C84.9863 42.2797 85.7888 42.6185 86.7695 42.6185C87.9197 42.6185 88.8202 42.1816 89.4622 41.29C90.1041 40.3984 90.4251 39.2304 90.4251 37.7682" fill="#182841"/>
<path id="Vector_19" d="M109.416 37.679C109.416 40.0239 108.783 41.8784 107.517 43.2337C106.385 44.4462 104.976 45.0436 103.291 45.0436C101.481 45.0436 100.171 44.3927 99.377 43.091H99.3235V50.3486H96.2653V35.4857C96.2653 34.0145 96.2297 32.4988 96.1494 30.9474H98.842L99.0114 33.1318H99.0739C100.09 31.4824 101.642 30.6621 103.719 30.6621C105.342 30.6621 106.697 31.3041 107.785 32.588C108.873 33.8719 109.416 35.5659 109.416 37.6612M106.296 37.7771C106.296 36.4397 105.993 35.3252 105.386 34.4603C104.727 33.5509 103.835 33.0962 102.721 33.0962C101.963 33.0962 101.276 33.3458 100.661 33.8451C100.046 34.3533 99.6445 35.0042 99.4572 35.8156C99.3592 36.1989 99.3146 36.5021 99.3146 36.7517V39.0521C99.3146 40.0507 99.6177 40.8977 100.233 41.5842C100.848 42.2797 101.642 42.6185 102.631 42.6185C103.782 42.6185 104.682 42.1816 105.324 41.29C105.966 40.3984 106.287 39.2304 106.287 37.7682" fill="#182841"/>
<path id="Vector_20" d="M127.141 39.3813C127.141 41.004 126.579 42.3325 125.438 43.3489C124.19 44.4634 122.46 45.0251 120.231 45.0251C118.172 45.0251 116.522 44.6328 115.274 43.8393L115.987 41.2893C117.334 42.1007 118.805 42.5108 120.418 42.5108C121.569 42.5108 122.469 42.2523 123.111 41.7351C123.753 41.2091 124.074 40.5136 124.074 39.6488C124.074 38.8731 123.807 38.2222 123.28 37.6873C122.754 37.1523 121.872 36.6619 120.641 36.2072C117.298 34.959 115.622 33.1312 115.622 30.7239C115.622 29.1547 116.21 27.8618 117.378 26.8632C118.546 25.8557 120.106 25.3564 122.059 25.3564C123.798 25.3564 125.242 25.6596 126.392 26.2659L125.625 28.7624C124.547 28.1739 123.325 27.8797 121.97 27.8797C120.891 27.8797 120.053 28.1472 119.447 28.6732C118.938 29.1457 118.68 29.7253 118.68 30.4029C118.68 31.1608 118.974 31.7849 119.554 32.2753C120.062 32.73 120.989 33.2204 122.335 33.7553C123.976 34.4151 125.189 35.1908 125.964 36.0824C126.74 36.974 127.123 38.0796 127.123 39.3991" fill="#182841"/>
<path id="Vector_21" d="M137.261 33.2554H133.89V39.9514C133.89 41.6543 134.488 42.5013 135.683 42.5013C136.226 42.5013 136.681 42.4568 137.038 42.3587L137.118 44.6858C136.521 44.9087 135.718 45.0246 134.737 45.0246C133.525 45.0246 132.58 44.659 131.902 43.919C131.225 43.179 130.877 41.9396 130.877 40.201V33.2554H128.862V30.9551H130.877V28.4319L133.882 27.5225V30.9551H137.252V33.2554H137.261Z" fill="#182841"/>
<path id="Vector_22" d="M152.498 37.7412C152.498 39.8632 151.892 41.6018 150.688 42.957C149.422 44.3568 147.737 45.0523 145.642 45.0523C143.547 45.0523 142.004 44.3836 140.809 43.0373C139.606 41.6999 139.008 40.0058 139.008 37.9641C139.008 35.8242 139.624 34.0767 140.863 32.7214C142.102 31.3573 143.769 30.6797 145.865 30.6797C147.96 30.6797 149.511 31.3484 150.742 32.6947C151.919 34.0054 152.498 35.6816 152.498 37.7412ZM149.324 37.8392C149.324 36.5732 149.048 35.4765 148.504 34.5671C147.862 33.4704 146.944 32.9176 145.758 32.9176C144.572 32.9176 143.591 33.4704 142.949 34.5671C142.396 35.4765 142.129 36.5821 142.129 37.8927C142.129 39.2034 142.396 40.2555 142.949 41.1649C143.609 42.2616 144.536 42.8144 145.731 42.8144C146.926 42.8144 147.817 42.2526 148.477 41.1381C149.048 40.2109 149.324 39.1142 149.324 37.8392Z" fill="#182841"/>
<path id="Vector_23" d="M162.449 33.6488C162.146 33.5953 161.825 33.5686 161.486 33.5686C160.407 33.5686 159.578 33.9787 158.989 34.7901C158.481 35.5123 158.223 36.4128 158.223 37.5095V44.7403H155.164L155.191 35.2983C155.191 33.7113 155.155 32.2669 155.075 30.9562H157.741L157.857 33.5953H157.937C158.258 32.6859 158.775 31.9548 159.471 31.4109C160.148 30.9205 160.888 30.6709 161.682 30.6709C161.967 30.6709 162.217 30.6887 162.449 30.7244V33.6488Z" fill="#182841"/>
<path id="Vector_24" d="M176.144 37.1977C176.144 37.7505 176.108 38.2052 176.037 38.5886H166.853C166.889 39.9527 167.335 40.987 168.182 41.7092C168.957 42.3511 169.956 42.6721 171.186 42.6721C172.541 42.6721 173.781 42.4581 174.904 42.0212L175.386 44.1521C174.084 44.7228 172.541 45.0081 170.758 45.0081C168.627 45.0081 166.942 44.375 165.73 43.1179C164.517 41.8607 163.902 40.1756 163.902 38.0536C163.902 35.9316 164.472 34.2465 165.605 32.8645C166.791 31.3933 168.404 30.6533 170.419 30.6533C172.434 30.6533 173.915 31.3933 174.931 32.8645C175.742 34.0414 176.144 35.4858 176.144 37.2066M173.228 36.4131C173.246 35.5036 173.05 34.719 172.631 34.0592C172.105 33.2122 171.284 32.7842 170.188 32.7842C169.189 32.7842 168.378 33.2033 167.754 34.0325C167.245 34.6923 166.942 35.4858 166.853 36.4131H173.228Z" fill="#182841"/>
</g>
</svg>
