<svg width="78" height="78" viewBox="0 0 78 78" fill="none" xmlns="http://www.w3.org/2000/svg">
<g id="fi_9405872" clip-path="url(#clip0_1522_17351)">
<g id="Group">
<g id="Group_2">
<path id="Vector" d="M39 0C17.4609 0 0 17.4609 0 39C0 60.5391 17.4609 78 39 78C60.5391 78 78 60.5391 78 39C78 17.4609 60.5391 0 39 0ZM63.2141 14.7859C69.6819 21.2536 73.2438 29.8531 73.2438 39C73.2438 47.3495 70.2743 55.242 64.8372 61.4742L16.5258 13.1627C22.758 7.72566 30.6503 4.75617 39 4.75617C48.1469 4.75617 56.7462 8.31812 63.2141 14.7859ZM14.7859 63.2141C8.31812 56.7464 4.75617 48.1469 4.75617 39C4.75617 30.6505 7.72566 22.758 13.1628 16.5258L61.4744 64.8373C55.242 70.2743 47.3497 73.2438 39 73.2438C29.8531 73.2438 21.2538 69.6819 14.7859 63.2141Z" fill="#FE646F"/>
</g>
<g id="Group_3">
<path id="Vector_2" d="M63.4763 8.63892C68.2009 14.4921 71.2669 21.7386 71.9617 29.6662C72.8061 32.6654 73.244 35.7989 73.244 39.0001C73.244 47.3496 70.2745 55.2421 64.8373 61.4743L62.3209 58.9579C61.269 60.1459 60.1458 61.269 58.9578 62.321L61.4742 64.8375C55.242 70.2745 47.3496 73.2439 39 73.2439C35.7988 73.2439 32.6652 72.8061 29.666 71.9617C21.7385 71.2668 14.4921 68.2011 8.63879 63.4763C15.7881 72.3334 26.7314 78.0001 39 78.0001C60.5391 78.0001 78 60.5392 78 39.0001C78 26.7316 72.3333 15.7883 63.4763 8.63892Z" fill="#FD4755"/>
</g>
<g id="Group_4">
<g id="Group_5">
<path id="Vector_3" d="M62.7805 54.8535H15.2194C13.4682 54.8535 12.0487 53.434 12.0487 51.6828V26.317C12.0487 24.5658 13.4682 23.1462 15.2194 23.1462H62.7804C64.5316 23.1462 65.9511 24.5658 65.9511 26.317V51.6828C65.9513 53.434 64.5316 54.8535 62.7805 54.8535Z" fill="#A2E62E"/>
</g>
<g id="Group_6">
<path id="Vector_4" d="M62.7806 23.1462H57.549C59.3001 23.1462 60.7197 24.5658 60.7197 26.317V51.6828C60.7197 53.434 59.3001 54.8535 57.549 54.8535H62.7806C64.5318 54.8535 65.9513 53.434 65.9513 51.6828V26.317C65.9513 24.5658 64.5316 23.1462 62.7806 23.1462Z" fill="#8BC727"/>
</g>
</g>
<g id="Group_7">
<path id="Vector_5" d="M56.4391 51.2402H21.561C20.9299 51.2402 20.4184 50.7288 20.4184 50.0976C20.4184 48.1051 18.7973 46.484 16.8049 46.484C16.1739 46.484 15.6624 45.9726 15.6624 45.3414V32.6585C15.6624 32.0274 16.1739 31.5159 16.8049 31.5159C18.7974 31.5159 20.4184 29.8948 20.4184 27.9023C20.4184 27.2712 20.9299 26.7598 21.561 26.7598H56.439C57.07 26.7598 57.5816 27.2712 57.5816 27.9023C57.5816 29.8948 59.2027 31.5159 61.195 31.5159C61.826 31.5159 62.3376 32.0274 62.3376 32.6585V45.3414C62.3376 45.9726 61.826 46.484 61.195 46.484C59.2025 46.484 57.5816 48.1051 57.5816 50.0976C57.5817 50.7286 57.0701 51.2402 56.4391 51.2402ZM22.5925 48.955H55.4075C55.8682 46.6173 57.7149 44.7708 60.0524 44.3101V33.69C57.7147 33.2293 55.8682 31.3826 55.4075 29.0451H22.5925C22.1318 31.3828 20.2851 33.2293 17.9475 33.69V44.3101C20.2852 44.7708 22.1318 46.6173 22.5925 48.955Z" fill="#81B823"/>
</g>
<g id="Group_8">
<path id="Vector_6" d="M39 46.484C34.8733 46.484 31.516 43.1266 31.516 38.9999C31.516 34.8732 34.8733 31.5159 39 31.5159C43.1267 31.5159 46.4841 34.8732 46.4841 38.9999C46.4841 43.1266 43.1267 46.484 39 46.484ZM39 33.801C36.1334 33.801 33.8011 36.1333 33.8011 38.9999C33.8011 41.8666 36.1334 44.1988 39 44.1988C41.8667 44.1988 44.1989 41.8666 44.1989 38.9999C44.1989 36.1333 41.8667 33.801 39 33.801Z" fill="#81B823"/>
</g>
</g>
</g>
<defs>
<clipPath id="clip0_1522_17351">
<rect width="78" height="78" fill="white"/>
</clipPath>
</defs>
</svg>
