<svg width="32" height="32" viewBox="0 0 32 32" fill="none" xmlns="http://www.w3.org/2000/svg">
<rect width="32" height="32" rx="4" fill="#F1592F"/>
<path fill-rule="evenodd" clip-rule="evenodd" d="M11.892 11.501C14.4541 9.88071 17.3609 10.9711 18.7051 12.6233C19.4557 13.558 20.1744 14.43 21.7995 13.9627C22.8935 13.6512 23.7999 12.4982 23.4871 10.9711C23.1437 9.35083 20.3302 7.26833 18.58 6.515C14.1733 4.64573 8.95336 6.14089 6.23427 10.0684C3.70283 13.6831 3.67219 18.6065 6.32874 22.0706C9.98483 26.9263 16.7366 27.7358 21.4229 23.7228C22.0484 23.1929 23.1731 22.0718 23.4552 21.1691C24.142 18.9564 21.2672 16.1831 18.7983 19.2373C18.0476 20.14 17.2345 20.7324 16.0473 21.0759C12.8278 22.0105 9.48314 19.5169 9.35931 16.2138C9.31634 15.2726 9.52914 14.3374 9.9751 13.5076C10.4211 12.6778 11.0835 11.9843 11.892 11.501V11.501Z" fill="white"/>
<path fill-rule="evenodd" clip-rule="evenodd" d="M18.8583 14.992C18.4346 14.6907 18.0735 14.31 17.7949 13.8709C17.4957 13.4247 17.1032 13.0487 16.6446 12.769C16.1859 12.4892 15.672 12.3124 15.1384 12.2506C12.5444 12.0017 10.5134 14.0893 10.9499 16.7374C11.3253 18.9808 13.9818 20.5398 16.2643 19.4481C18.5468 18.3564 20.6046 13.9641 23.3276 17.4856C23.7654 18.0462 24.3897 18.5135 25.2029 18.576C26.8624 18.6692 28.2973 17.3299 27.9219 15.5219C27.8439 15.1431 27.6805 14.7872 27.4442 14.4811C27.2079 14.175 26.9049 13.9269 26.5582 13.7557C26.2116 13.5844 25.8304 13.4945 25.4438 13.4928C25.0572 13.4911 24.6753 13.5776 24.3271 13.7458C22.1084 14.7749 22.0765 17.2047 18.8583 14.992Z" fill="white"/>
</svg>
