<svg width="83" height="72" viewBox="0 0 83 72" fill="none" xmlns="http://www.w3.org/2000/svg">
<path d="M20.4265 70.4544V50.4309C20.4265 47.9414 19.4375 45.5537 17.6771 43.7933C15.9167 42.0329 13.5291 41.0439 11.0395 41.0439C8.54988 41.0439 6.16226 42.0329 4.40185 43.7933C2.64145 45.5537 1.65247 47.9414 1.65247 50.4309V70.4544H20.4265Z" stroke="#F1592F" stroke-width="2" stroke-miterlimit="10"/>
<path d="M16.3 70.4542V58.3057C16.3403 56.8597 15.8139 55.4552 14.833 54.3919C13.8522 53.3287 12.4946 52.6909 11.05 52.6147C9.59145 52.6695 8.21362 53.2983 7.21655 54.3642C6.21947 55.4301 5.68391 56.8468 5.72648 58.3057V70.4542H16.3Z" stroke="#F1592F" stroke-width="2" stroke-miterlimit="10"/>
<path d="M2.38745 46.9448H19.6914" stroke="#F1592F" stroke-width="2" stroke-miterlimit="10"/>
<path d="M10.7875 36.2456V40.8761" stroke="#F1592F" stroke-width="2" stroke-miterlimit="10"/>
<path d="M17.1715 25.8818H33.6775" stroke="#F1592F" stroke-width="2" stroke-miterlimit="10"/>
<path d="M20.4265 20.1069H30.8005V70.4544H20.4265V20.1069Z" stroke="#F1592F" stroke-width="2" stroke-miterlimit="10"/>
<path d="M19.5024 8.68311H31.4514H19.5024Z" fill="white"/>
<path d="M19.5024 8.68311H31.4514" stroke="#F1592F" stroke-width="2" stroke-miterlimit="10"/>
<path d="M25.939 0.54541V3.96841V0.54541Z" fill="white"/>
<path d="M25.939 0.54541V3.96841" stroke="#F1592F" stroke-width="2" stroke-miterlimit="10"/>
<path d="M8.56152 44.0679V45.9054V44.0679Z" fill="white"/>
<path d="M8.56152 44.0679V45.9054" stroke="#F1592F" stroke-width="2" stroke-miterlimit="10"/>
<path d="M13.3915 44.0679V45.9054V44.0679Z" fill="white"/>
<path d="M13.3915 44.0679V45.9054" stroke="#F1592F" stroke-width="2" stroke-miterlimit="10"/>
<path d="M28.564 20.107V6.45703C28.564 5.76084 28.2874 5.09316 27.7951 4.60088C27.3028 4.10859 26.6352 3.83203 25.939 3.83203C25.2428 3.83203 24.5751 4.10859 24.0828 4.60088C23.5905 5.09316 23.314 5.76084 23.314 6.45703V20.107H28.564Z" stroke="#F1592F" stroke-width="2" stroke-miterlimit="10"/>
<path d="M20.4265 34.9751H30.79" stroke="#F1592F" stroke-width="2" stroke-miterlimit="10"/>
<path d="M30.79 39.9624L20.4265 45.2754" stroke="#F1592F" stroke-width="2" stroke-miterlimit="10"/>
<path d="M30.79 50.6724L20.4265 55.9854" stroke="#F1592F" stroke-width="2" stroke-miterlimit="10"/>
<path d="M30.79 61.3823L20.4265 66.6953" stroke="#F1592F" stroke-width="2" stroke-miterlimit="10"/>
<path d="M62.5735 70.4544V50.4309C62.5735 47.9414 63.5625 45.5537 65.3229 43.7933C67.0833 42.0329 69.4709 41.0439 71.9605 41.0439C74.4501 41.0439 76.8377 42.0329 78.5981 43.7933C80.3585 45.5537 81.3475 47.9414 81.3475 50.4309V70.4544H62.5735Z" stroke="#F1592F" stroke-width="2" stroke-miterlimit="10"/>
<path d="M66.7001 70.4548V58.3063C66.6436 57.572 66.7394 56.8341 66.9816 56.1386C67.2238 55.4432 67.6071 54.8053 68.1074 54.265C68.6078 53.7247 69.2144 53.2936 69.8892 52.9988C70.564 52.7039 71.2924 52.5518 72.0288 52.5518C72.7652 52.5518 73.4937 52.7039 74.1685 52.9988C74.8433 53.2936 75.4499 53.7247 75.9502 54.265C76.4506 54.8053 76.8339 55.4432 77.076 56.1386C77.3182 56.8341 77.4141 57.572 77.3576 58.3063V70.4548H66.7001Z" stroke="#F1592F" stroke-width="2" stroke-miterlimit="10"/>
<path d="M80.6125 46.9448H63.3085" stroke="#F1592F" stroke-width="2" stroke-miterlimit="10"/>
<path d="M72.2125 36.2456V40.8761" stroke="#F1592F" stroke-width="2" stroke-miterlimit="10"/>
<path d="M65.839 25.8818H49.3225" stroke="#F1592F" stroke-width="2" stroke-miterlimit="10"/>
<path d="M52.21 20.1069H62.584V70.4544H52.21V20.1069Z" stroke="#F1592F" stroke-width="2" stroke-miterlimit="10"/>
<path d="M63.4975 8.68311H51.559H63.4975Z" fill="white"/>
<path d="M63.4975 8.68311H51.559" stroke="#F1592F" stroke-width="2" stroke-miterlimit="10"/>
<path d="M57.0714 0.54541V3.96841V0.54541Z" fill="white"/>
<path d="M57.0714 0.54541V3.96841" stroke="#F1592F" stroke-width="2" stroke-miterlimit="10"/>
<path d="M74.4385 44.0679V45.9054V44.0679Z" fill="white"/>
<path d="M74.4385 44.0679V45.9054" stroke="#F1592F" stroke-width="2" stroke-miterlimit="10"/>
<path d="M69.6084 44.0679V45.9054V44.0679Z" fill="white"/>
<path d="M69.6084 44.0679V45.9054" stroke="#F1592F" stroke-width="2" stroke-miterlimit="10"/>
<path d="M54.4464 20.107V6.45703C54.4464 5.76084 54.723 5.09316 55.2153 4.60088C55.7075 4.10859 56.3752 3.83203 57.0714 3.83203C57.7676 3.83203 58.4353 4.10859 58.9276 4.60088C59.4199 5.09316 59.6964 5.76084 59.6964 6.45703V20.107H54.4464Z" stroke="#F1592F" stroke-width="2" stroke-miterlimit="10"/>
<path d="M62.584 34.9751H52.21" stroke="#F1592F" stroke-width="2" stroke-miterlimit="10"/>
<path d="M62.5735 39.9624L52.21 45.2754" stroke="#F1592F" stroke-width="2" stroke-miterlimit="10"/>
<path d="M62.5735 50.6724L52.21 55.9854" stroke="#F1592F" stroke-width="2" stroke-miterlimit="10"/>
<path d="M62.5735 61.3823L52.21 66.6953" stroke="#F1592F" stroke-width="2" stroke-miterlimit="10"/>
<path d="M52.1889 70.4543V38.0618C52.1889 35.2241 51.0617 32.5027 49.0551 30.4961C47.0486 28.4896 44.3271 27.3623 41.4894 27.3623C38.6517 27.3623 35.9303 28.4896 33.9237 30.4961C31.9172 32.5027 30.7899 35.2241 30.7899 38.0618V70.4543H52.1889Z" stroke="#F1592F" stroke-width="2" stroke-miterlimit="10"/>
<path d="M30.8635 36.8125H52.105" stroke="#F1592F" stroke-width="2" stroke-miterlimit="10"/>
<path d="M41.4895 24.0444V27.3624" stroke="#F1592F" stroke-width="2" stroke-miterlimit="10"/>
<path d="M45.1434 70.2444V47.9634C45.1434 46.9302 44.733 45.9394 44.0025 45.2088C43.2719 44.4783 42.2811 44.0679 41.2479 44.0679C40.2148 44.0679 39.2239 44.4783 38.4934 45.2088C37.7628 45.9394 37.3524 46.9302 37.3524 47.9634V70.2444H45.1434Z" stroke="#F1592F" stroke-width="2" stroke-miterlimit="10"/>
</svg>
