<svg width="30" height="30" viewBox="0 0 30 30" fill="none" xmlns="http://www.w3.org/2000/svg">
<g clip-path="url(#clip0_1795_27184)">
<path d="M15 0C6.72902 0 0 6.72902 0 15C0 23.271 6.72902 30 15 30C23.271 30 30 23.271 30 15C30 6.72902 23.271 0 15 0ZM15 28.4211C7.59943 28.4211 1.57893 22.4006 1.57893 15C1.57893 7.59943 7.59943 1.57893 15 1.57893C22.4006 1.57893 28.4211 7.59943 28.4211 15C28.4211 22.4006 22.4006 28.4211 15 28.4211Z" fill="#F1592F"/>
<path d="M20.2949 9.70492C19.9865 9.39654 19.487 9.39654 19.1785 9.70492L9.70492 19.1786C9.39654 19.487 9.39654 19.9865 9.70492 20.295C9.85914 20.4492 10.0611 20.5262 10.2631 20.5262C10.4651 20.5262 10.6671 20.4491 10.8212 20.295L20.2949 10.8213C20.6034 10.5129 20.6034 10.0133 20.2949 9.70492Z" fill="#F1592F"/>
<path d="M14.2136 11.054C14.2136 9.31156 12.7966 7.89453 11.0542 7.89453C9.31181 7.89453 7.89478 9.31156 7.89478 11.054C7.89478 12.7964 9.31181 14.2134 11.0542 14.2134C12.7966 14.2134 14.2136 12.7964 14.2136 11.054ZM9.4737 11.054C9.4737 10.1827 10.183 9.47346 11.0542 9.47346C11.9254 9.47346 12.6347 10.1827 12.6347 11.054C12.6347 11.9252 11.9254 12.6345 11.0542 12.6345C10.183 12.6345 9.4737 11.9251 9.4737 11.054Z" fill="#F1592F"/>
<path d="M18.9458 15.7866C17.2034 15.7866 15.7864 17.2037 15.7864 18.9461C15.7864 20.6885 17.2034 22.1055 18.9458 22.1055C20.6882 22.1055 22.1052 20.6885 22.1052 18.9461C22.1052 17.2037 20.6882 15.7866 18.9458 15.7866ZM18.9458 20.5266C18.0746 20.5266 17.3653 19.8173 17.3653 18.9461C17.3653 18.0748 18.0746 17.3655 18.9458 17.3655C19.817 17.3655 20.5263 18.0748 20.5263 18.9461C20.5263 19.8173 19.817 20.5266 18.9458 20.5266Z" fill="#F1592F"/>
</g>
<defs>
<clipPath id="clip0_1795_27184">
<rect width="30" height="30" fill="white"/>
</clipPath>
</defs>
</svg>
