<svg width="91" height="88" viewBox="0 0 91 88" fill="none" xmlns="http://www.w3.org/2000/svg">
<path d="M46.091 41.4916C45.5257 41.4916 44.9605 41.3503 44.5365 40.9263C43.406 40.0785 43.1234 38.3827 43.9713 37.2522L67.5705 5.03285C68.4184 3.90235 70.1142 3.61973 71.2447 4.4676C72.3752 5.31548 72.6578 7.01124 71.8099 8.14174L48.2107 40.5024C47.7867 41.209 46.9388 41.4916 46.091 41.4916Z" stroke="#F1592F" stroke-width="2.5" stroke-miterlimit="10" stroke-linecap="round" stroke-linejoin="round"/>
<path d="M70.3966 44.1765C65.4507 44.1765 61.4939 40.2198 61.4939 35.2738C61.4939 30.3279 65.4507 26.3711 70.3966 26.3711C75.3426 26.3711 79.2993 30.3279 79.2993 35.2738C79.2993 40.2198 75.3426 44.1765 70.3966 44.1765ZM70.3966 31.5997C68.4182 31.5997 66.7225 33.2954 66.7225 35.2738C66.7225 37.2522 68.4182 38.9479 70.3966 38.9479C72.375 38.9479 74.0708 37.2522 74.0708 35.2738C74.0708 33.2954 72.375 31.5997 70.3966 31.5997Z" stroke="#F1592F" stroke-width="2.5" stroke-miterlimit="10" stroke-linecap="round" stroke-linejoin="round"/>
<path d="M45.3842 19.3054C40.4382 19.3054 36.4814 15.3487 36.4814 10.4027C36.4814 5.45676 40.4382 1.5 45.3842 1.5C50.3301 1.5 54.2869 5.45676 54.2869 10.4027C54.2869 15.3487 50.3301 19.3054 45.3842 19.3054ZM45.3842 6.72858C43.4058 6.72858 41.71 8.42433 41.71 10.4027C41.71 12.3811 43.4058 14.0769 45.3842 14.0769C47.3625 14.0769 49.0583 12.3811 49.0583 10.4027C49.0583 8.28302 47.5039 6.72858 45.3842 6.72858Z" stroke="#F1592F" stroke-width="2.5" stroke-miterlimit="10" stroke-linecap="round" stroke-linejoin="round"/>
<path d="M63.3313 64.6671L81.9846 52.3728C84.2456 50.8184 87.3545 51.525 88.7677 53.786C90.3221 56.047 89.6155 59.1559 87.3545 60.569L62.9074 76.82C60.3637 78.5157 56.9722 78.9397 54.0047 77.9505L31.3946 70.4609L26.166 73.8524" stroke="#F1592F" stroke-width="2.5" stroke-miterlimit="10" stroke-linecap="round" stroke-linejoin="round"/>
<path d="M42.9817 62.9713L56.8304 68.0586C59.374 69.0478 62.2003 67.776 63.1895 65.2323C64.1787 62.6887 62.7655 59.8624 60.2219 58.8733L35.9161 49.8292C33.0898 48.84 30.1223 49.1227 27.5786 50.8184L15.991 58.4493" stroke="#F1592F" stroke-width="2.5" stroke-miterlimit="10" stroke-linecap="round" stroke-linejoin="round"/>
<path d="M18.6626 85.9092L1.99982 60.658L12.7375 53.5724L29.4003 78.8236L18.6626 85.9092Z" stroke="#F1592F" stroke-width="2.5" stroke-miterlimit="10" stroke-linecap="round" stroke-linejoin="round"/>
<path d="M10.6216 61.9819L12.176 64.5256" stroke="#F1592F" stroke-width="2.5" stroke-miterlimit="10" stroke-linecap="round" stroke-linejoin="round"/>
</svg>
