<svg width="75" height="79" viewBox="0 0 75 79" fill="none" xmlns="http://www.w3.org/2000/svg">
<path d="M9.0701 32.2117L9.06913 32.2117C7.67622 32.2153 6.34152 32.7709 5.35742 33.7566C4.37333 34.7424 3.82009 36.0781 3.8189 37.471V37.4713L3.8189 53.9941L3.8189 53.9944C3.8201 55.3889 4.37458 56.7259 5.36063 57.712C6.34667 58.698 7.6837 59.2525 9.07817 59.2537H9.0785H11.5985C12.9934 59.2537 14.3312 58.6996 15.3176 57.7132C16.304 56.7269 16.8581 55.3891 16.8581 53.9941V37.4713C16.8581 36.0764 16.304 34.7386 15.3176 33.7522C14.3312 32.7659 12.9934 32.2117 11.5985 32.2117L9.0701 32.2117ZM11.5899 62.7037H9.07096C6.76327 62.6984 4.55174 61.7788 2.92071 60.1462C1.28974 58.5137 0.372154 56.3015 0.368896 53.9939V37.4716C0.37216 35.1626 1.29085 32.9491 2.92356 31.3164C4.55627 29.6837 6.76977 28.765 9.07876 28.7617H11.5982C13.9072 28.765 16.1207 29.6837 17.7534 31.3164C19.3862 32.9492 20.3049 35.1628 20.3081 37.4718V53.9936C20.3049 56.3041 19.3851 58.5189 17.7506 60.1519C16.1161 61.7849 13.9005 62.7026 11.5901 62.7037C11.59 62.7037 11.59 62.7037 11.5899 62.7037Z" fill="#F1592F" stroke="white" stroke-width="0.75"/>
<path d="M65.9213 59.2537H65.9216C67.3161 59.2525 68.6531 58.698 69.6391 57.712C70.6252 56.7259 71.1797 55.3889 71.1809 53.9944V53.9941V37.4713V37.471C71.1797 36.0765 70.6252 34.7395 69.6391 33.7534C68.6531 32.7674 67.3161 32.2129 65.9216 32.2117H65.9213H63.4013C62.0063 32.2117 60.6685 32.7659 59.6822 33.7522C58.6958 34.7386 58.1417 36.0764 58.1417 37.4713V53.9941C58.1417 55.3891 58.6958 56.7269 59.6822 57.7132C60.6685 58.6996 62.0063 59.2537 63.4013 59.2537H65.9213ZM65.9207 62.7037H63.4018C61.0927 62.7005 58.8791 61.7818 57.2463 60.1491C55.6136 58.5163 54.6949 56.3029 54.6917 53.9939V37.4716C54.6949 35.1626 55.6136 32.9491 57.2463 31.3164C58.879 29.6837 61.0925 28.765 63.4015 28.7617H65.921C68.23 28.765 70.4435 29.6837 72.0762 31.3164C73.709 32.9492 74.6277 35.1628 74.6309 37.4718V53.9936C74.6277 56.3027 73.709 58.5163 72.0762 60.1491C70.4434 61.7818 68.2298 62.7005 65.9207 62.7037Z" fill="#F1592F" stroke="white" stroke-width="0.75"/>
<path d="M62.9406 27.2404V27.24C62.9349 21.1273 60.5041 15.2665 56.1818 10.9441C51.8594 6.62179 45.9987 4.191 39.8859 4.18535H39.8856L35.1144 4.18535L35.114 4.18535C29.0013 4.191 23.1405 6.62179 18.8182 10.9441C14.4958 15.2665 12.065 21.1273 12.0594 27.24V27.2404V30.487C12.0594 30.9445 11.8776 31.3832 11.5541 31.7067C11.2306 32.0302 10.7919 32.212 10.3344 32.212C9.87688 32.212 9.43812 32.0302 9.11462 31.7067C8.79112 31.3832 8.60938 30.9445 8.60938 30.487V27.2405C8.61711 20.2133 11.4121 13.4761 16.3811 8.50708C21.3501 3.53807 28.0873 0.743083 35.1146 0.735352H39.8854C46.9126 0.743083 53.6498 3.53807 58.6188 8.50708C63.5879 13.4761 66.3829 20.2134 66.3906 27.2408V30.487C66.3906 30.9445 66.2088 31.3832 65.8853 31.7067C65.5618 32.0302 65.1231 32.212 64.6656 32.212C64.2081 32.212 63.7693 32.0302 63.4458 31.7067C63.1223 31.3832 62.9406 30.9445 62.9406 30.487V27.2404Z" fill="#F1592F" stroke="white" stroke-width="0.75"/>
<path d="M54.7409 71.2112H54.7411C56.9131 71.21 58.9959 70.3467 60.5317 68.8108C62.0676 67.275 62.9309 65.1922 62.9321 63.0202V63.02V60.9872C62.9321 60.5297 63.1138 60.091 63.4373 59.7675C63.7609 59.444 64.1996 59.2622 64.6571 59.2622C65.1146 59.2622 65.5534 59.444 65.8769 59.7675C66.2004 60.091 66.3821 60.5297 66.3821 60.9872V63.0198C66.38 66.1066 65.1528 69.0664 62.97 71.2491C60.7873 73.4319 57.8275 74.6591 54.7406 74.6612H41.1161C40.6586 74.6612 40.2199 74.4795 39.8964 74.156C39.5729 73.8325 39.3911 73.3937 39.3911 72.9362C39.3911 72.4787 39.5729 72.04 39.8964 71.7165C40.2199 71.393 40.6586 71.2112 41.1161 71.2112H54.7409Z" fill="#F1592F" stroke="white" stroke-width="0.75"/>
<path d="M39.3784 72.9327C39.3791 72.6857 39.331 72.4409 39.2371 72.2123C39.1431 71.9837 39.005 71.7757 38.8307 71.6004C38.6563 71.4251 38.4492 71.2858 38.221 71.1905C37.988 71.0933 37.7427 71.0501 37.5009 71.0494C37.1283 71.0484 36.7637 71.1579 36.4534 71.3642C36.1431 71.5704 35.901 71.8641 35.7577 72.2081C35.6144 72.552 35.5763 72.9307 35.6484 73.2963C35.7204 73.6619 35.8993 73.9979 36.1624 74.2617C36.4255 74.5255 36.761 74.7054 37.1264 74.7784C37.4918 74.8515 37.8706 74.8145 38.2149 74.6722C38.5593 74.5298 38.8536 74.2885 39.0608 73.9788C39.2678 73.6692 39.3783 73.3052 39.3784 72.9327ZM39.3784 72.9327C39.3784 72.9329 39.3784 72.9331 39.3784 72.9333L39.0034 72.9322L39.3784 72.9322C39.3784 72.9324 39.3784 72.9326 39.3784 72.9327ZM37.4996 78.2608C36.4445 78.2616 35.4129 77.9494 34.5353 77.3637C33.6578 76.778 32.9736 75.9452 32.5695 74.9706C32.1654 73.996 32.0595 72.9234 32.2651 71.8886C32.4708 70.8538 32.9787 69.9032 33.7248 69.1572C34.4708 68.4111 35.4214 67.9031 36.4562 67.6975C37.4911 67.4919 38.5636 67.5978 39.5382 68.0019C40.5128 68.406 41.3457 69.0901 41.9313 69.9677C42.517 70.8453 42.8292 71.8769 42.8284 72.9319C42.8274 74.3449 42.2656 75.6997 41.2665 76.6989C40.2674 77.698 38.9126 78.2598 37.4996 78.2608Z" fill="#F1592F" stroke="white" stroke-width="0.75"/>
</svg>
