<svg width="30" height="26" viewBox="0 0 30 26" fill="none" xmlns="http://www.w3.org/2000/svg">
<path d="M29.9579 14.6983C29.9578 14.6982 29.9578 14.6981 29.9577 14.698L24.2936 0.475847C24.1734 0.173663 23.8309 0.0261421 23.5287 0.146353C23.5285 0.146427 23.5283 0.1465 23.5281 0.146647L0.549451 9.29651C0.455741 9.337 0.374472 9.40163 0.313888 9.48378C0.122787 9.58309 0.00206118 9.77964 0 9.99496V25.3066C0 25.6318 0.263684 25.8955 0.588908 25.8955H25.323C25.6483 25.8955 25.9119 25.6318 25.9119 25.3066V16.9441L29.6291 15.4636C29.9312 15.343 30.0784 15.0005 29.9579 14.6983ZM24.7341 24.7177H1.17782V10.5839H24.7341V24.7177ZM9.82593 9.40899L19.6866 5.4798C20.5667 6.40483 21.7861 6.93057 23.0628 6.93558L24.0463 9.40899H9.82593ZM25.9119 15.6791V9.99496C25.9119 9.66973 25.6483 9.40605 25.323 9.40605H25.3136L24.0657 6.27188C24.0519 6.24575 24.0358 6.22087 24.0174 6.19768C23.9543 5.91404 23.6916 5.72051 23.402 5.74422C22.214 5.8525 21.0519 5.35208 20.3144 4.41446C20.1309 4.18795 19.8083 4.13164 19.5588 4.28255C19.5308 4.28586 19.5031 4.29101 19.4758 4.29786L7.43732 9.09157C7.29164 9.14869 7.17511 9.26199 7.11401 9.40605H3.45807L23.4173 1.45873L28.6462 14.5884L25.9119 15.6791Z" fill="#F1592F"/>
<path d="M2.77619 20.742C3.91956 21.0799 4.81426 21.9735 5.15361 23.1165C5.22804 23.3659 5.45749 23.5369 5.71779 23.5369C5.74834 23.535 5.77867 23.5305 5.80848 23.5234C5.83491 23.5309 5.86192 23.5364 5.88916 23.5399H20.023C20.0472 23.5367 20.0712 23.5318 20.0948 23.5252C20.389 23.5967 20.6855 23.4163 20.7572 23.122C20.7574 23.1209 20.7577 23.1199 20.7579 23.1188C21.0964 21.9747 21.9912 21.0799 23.1353 20.7414C23.4128 20.6566 23.5852 20.3801 23.5393 20.0936C23.5472 20.065 23.5529 20.0359 23.5564 20.0064V15.2952C23.5529 15.2656 23.5471 15.2365 23.5387 15.208C23.5849 14.9214 23.4124 14.6448 23.1347 14.5602C21.9906 14.2218 21.096 13.3266 20.7585 12.1822C20.6733 11.9028 20.394 11.73 20.106 11.7782C20.0788 11.7706 20.051 11.7651 20.023 11.7617H5.88916C5.85949 11.7653 5.83012 11.7711 5.80141 11.7794C5.51498 11.7337 5.23864 11.9061 5.15361 12.1834C4.81492 13.3273 3.92015 14.2218 2.77619 14.5602C2.49874 14.645 2.32634 14.9215 2.3722 15.208C2.36455 15.2366 2.35903 15.2657 2.35571 15.2952V20.0064C2.3591 20.0341 2.36462 20.0615 2.3722 20.0883C2.32391 20.3766 2.49668 20.6562 2.77619 20.742ZM3.53353 15.5343C4.71606 15.0593 5.6533 14.1221 6.12826 12.9395H19.7833C20.2584 14.1221 21.1959 15.0593 22.3786 15.5343V19.7673C21.1964 20.2428 20.2593 21.1799 19.7839 22.3621H6.12826C5.65279 21.1799 4.71569 20.2428 3.53353 19.7673V15.5343Z" fill="#F1592F"/>
<path d="M12.9561 21.1841C14.9075 21.1841 16.4895 19.6021 16.4895 17.6506C16.4895 15.6991 14.9075 14.1172 12.9561 14.1172C11.0046 14.1172 9.42261 15.6991 9.42261 17.6506C9.42452 19.6013 11.0054 21.1822 12.9561 21.1841ZM12.9561 15.295C14.257 15.295 15.3117 16.3497 15.3117 17.6506C15.3117 18.9516 14.257 20.0063 12.9561 20.0063C11.6551 20.0063 10.6004 18.9516 10.6004 17.6506C10.6004 16.3497 11.6551 15.295 12.9561 15.295Z" fill="#F1592F"/>
<path d="M6.47809 18.5343C6.96592 18.5343 7.36145 18.1388 7.36145 17.6509C7.36145 17.1631 6.96592 16.7676 6.47809 16.7676C5.99025 16.7676 5.59473 17.1631 5.59473 17.6509C5.59473 18.1389 5.99025 18.5343 6.47809 18.5343ZM6.47809 17.3565C6.6407 17.3565 6.77254 17.4883 6.77254 17.6509C6.77254 17.8136 6.6407 17.9454 6.47809 17.9454C6.31548 17.9454 6.18363 17.8136 6.18363 17.6509C6.18363 17.4883 6.31548 17.3565 6.47809 17.3565Z" fill="#F1592F"/>
<path d="M19.4339 18.5343C19.9217 18.5343 20.3173 18.1388 20.3173 17.6509C20.3173 17.1631 19.9217 16.7676 19.4339 16.7676C18.9461 16.7676 18.5505 17.1631 18.5505 17.6509C18.5505 18.1389 18.9461 18.5343 19.4339 18.5343ZM19.4339 17.3565C19.5965 17.3565 19.7284 17.4883 19.7284 17.6509C19.7284 17.8136 19.5965 17.9454 19.4339 17.9454C19.2713 17.9454 19.1394 17.8136 19.1394 17.6509C19.1394 17.4883 19.2713 17.3565 19.4339 17.3565Z" fill="#F1592F"/>
</svg>
