<svg width="13" height="22" viewBox="0 0 13 22" fill="none" xmlns="http://www.w3.org/2000/svg">
<path d="M1.61888 21.5C1.83283 21.5011 2.04492 21.4631 2.24299 21.3882C2.44106 21.3132 2.62121 21.2027 2.77312 21.0631L12.5273 12.0247C12.83 11.7424 13 11.3606 13 10.9627C13 10.5647 12.83 10.1829 12.5273 9.90066L2.77312 0.862226C2.46212 0.615437 2.06207 0.486479 1.65293 0.501123C1.24378 0.515767 0.855664 0.672934 0.566138 0.941216C0.276611 1.2095 0.106998 1.56914 0.0911942 1.94826C0.0753908 2.32739 0.214561 2.69808 0.480892 2.98626L9.0808 10.9551L0.480892 18.924C0.252609 19.1338 0.09659 19.4016 0.0325623 19.6936C-0.0314655 19.9856 -0.000626564 20.2886 0.121179 20.5643C0.242985 20.84 0.450287 21.0761 0.716873 21.2426C0.98346 21.4092 1.29736 21.4987 1.61888 21.5Z" fill="#C8C8C8"/>
</svg>
