<svg width="114" height="114" viewBox="0 0 114 114" fill="none" xmlns="http://www.w3.org/2000/svg">
<g clip-path="url(#clip0_2205_73272)">
<path d="M63.9912 113.748C64.8745 114.084 65.8499 114.084 66.7332 113.748C79.6121 108.851 91.0811 100.352 99.3842 89.4729C108.946 76.9449 114 62.04 114 46.3693V24.5236C114 23.01 113.05 21.6624 111.619 21.1065C102.854 17.7023 95.8544 10.8732 92.3652 2.32297C91.7947 0.925359 90.4298 0 88.8986 0H41.8255C40.2943 0 38.9294 0.925359 38.359 2.3232C34.8697 10.8736 27.8697 17.7027 19.1052 21.1067C17.674 21.6627 16.7242 23.0102 16.7242 24.5238V46.3695C16.7242 62.0403 21.7782 76.9451 31.34 89.4729C39.6433 100.352 51.1123 108.851 63.9912 113.748Z" fill="#FECA9C"/>
<path d="M19.1054 21.1067C27.8698 17.7027 34.8699 10.8736 38.3592 2.3232C38.9296 0.925359 40.2945 0 41.8257 0H48.7069C47.1757 0 45.8108 0.925359 45.2404 2.3232C41.7511 10.8736 34.751 17.7027 25.9866 21.1067C24.5554 21.6627 23.6055 23.0102 23.6055 24.5238V46.3695C23.6055 62.04 28.6596 76.9451 38.2213 89.4729C46.0769 99.7654 56.7668 107.925 68.8027 112.923C68.117 113.208 67.4274 113.484 66.7331 113.748C65.8499 114.084 64.8744 114.084 63.9911 113.748C51.1122 108.851 39.6432 100.352 31.3402 89.4729C21.7784 76.9451 16.7243 62.04 16.7243 46.3695V24.5238C16.7243 23.0102 17.6742 21.6627 19.1054 21.1067Z" fill="#FDB97E"/>
<path d="M64.7455 102.129C65.1365 102.304 65.5876 102.304 65.9786 102.129C75.5704 97.8366 84.1622 91.0897 90.4378 82.867C98.5342 72.2594 102.813 59.6388 102.813 46.3694V30.0708C102.813 29.5357 102.514 29.0483 102.039 28.7872C94.7591 24.7833 88.7015 18.8685 84.5973 11.7562C84.3306 11.2937 83.8376 11.0029 83.297 11.0029H47.4266C46.886 11.0029 46.3931 11.2937 46.1263 11.7562C42.0223 18.8683 35.9643 24.7836 28.6848 28.7872C28.2098 29.0483 27.9106 29.5357 27.9106 30.0708V46.3694C27.9106 59.6391 32.19 72.2597 40.2856 82.8668C46.5616 91.0893 55.1541 97.8364 64.7455 102.129Z" fill="white"/>
<path d="M54.5714 65.175H76.1533C77.1034 65.175 77.8735 64.4048 77.8735 63.4547V41.2379C77.8735 34.3881 72.3009 28.8154 65.4511 28.8154H65.2734C58.4236 28.8154 52.851 34.3881 52.851 41.2379V63.4547C52.851 64.4048 53.6211 65.175 54.5714 65.175ZM74.4328 61.7345H56.2917V41.2381C56.2917 36.2855 60.3209 32.2564 65.2734 32.2564H65.4511C70.4036 32.2564 74.4328 36.2855 74.4328 41.2381V61.7345Z" fill="#685E68"/>
<path d="M52.3264 71.8655H78.3981C80.4405 71.8655 82.0962 70.2098 82.0962 68.1674V54.3358C82.0962 52.2934 80.4405 50.6377 78.3981 50.6377H52.3264C50.284 50.6377 48.6283 52.2934 48.6283 54.3358V68.1674C48.6283 70.2098 50.284 71.8655 52.3264 71.8655Z" fill="#D6ECA4"/>
<path d="M52.3263 50.6377H59.2075C57.1651 50.6377 55.5094 52.2934 55.5094 54.3358V68.1674C55.5094 70.2098 57.1651 71.8655 59.2075 71.8655H52.3263C50.2839 71.8655 48.6282 70.2096 48.6282 68.1674V54.3358C48.6282 52.2936 50.2839 50.6377 52.3263 50.6377Z" fill="#9EC448"/>
<path d="M31.1251 114C13.9353 114 0.000209808 100.122 0.000209808 83.0029C0.000209808 65.8837 13.9353 52.0059 31.1251 52.0059C48.3149 52.0059 62.25 65.8837 62.25 83.0029C62.25 100.122 48.3149 114 31.1251 114Z" fill="#FFF8EB"/>
<path d="M31.1252 52.0059C32.2884 52.0059 33.4359 52.0715 34.5659 52.1953C18.9953 53.9009 6.88173 67.0423 6.88173 83.0032C6.88173 98.9641 18.9956 112.105 34.5659 113.811C33.4359 113.935 32.2884 114 31.1252 114C13.9355 114 0.000312805 100.122 0.000312805 83.0032C0.000312805 65.8838 13.9355 52.0059 31.1252 52.0059Z" fill="#FFD787"/>
<path d="M31.1253 91.0928C40.7997 91.0928 48.7628 98.407 49.7939 107.807C44.5931 111.696 38.1297 114 31.1253 114C24.121 114 17.6577 111.696 12.4567 107.807C13.4878 98.4073 21.4509 91.0928 31.1253 91.0928Z" fill="#F58A97"/>
<path d="M13.8384 102.533C18.8651 108.694 26.2181 112.897 34.5659 113.811L34.5648 113.812C33.4353 113.936 32.2879 114 31.1252 114C24.1209 114 17.6576 111.696 12.4566 107.807C12.6599 105.954 13.1361 104.184 13.8384 102.533Z" fill="#F07281"/>
<path d="M31.1251 93.3055C36.1856 93.3055 40.2881 89.203 40.2881 84.1425V79.9628C40.2881 74.9022 36.1856 70.7998 31.1251 70.7998C26.0646 70.7998 21.9621 74.9022 21.9621 79.9628V84.1425C21.9621 89.203 26.0646 93.3055 31.1251 93.3055Z" fill="#FFCEBF"/>
</g>
<defs>
<clipPath id="clip0_2205_73272">
<rect width="114" height="114" fill="white" transform="matrix(-1 0 0 1 114 0)"/>
</clipPath>
</defs>
</svg>
