<svg width="370" height="367" viewBox="0 0 370 367" fill="none" xmlns="http://www.w3.org/2000/svg">
<path fill-rule="evenodd" clip-rule="evenodd" d="M185.629 0.637695C83.42 0.637736 0.307617 82.8139 0.307617 183.898C0.307617 278.963 74.0794 358.431 169.854 366.526C171.281 366.641 172.717 366.477 174.081 366.043C175.444 365.609 176.707 364.914 177.798 363.997C178.89 363.08 179.788 361.959 180.441 360.699C181.094 359.438 181.49 358.063 181.605 356.651C181.836 353.817 180.924 351.008 179.07 348.835C177.216 346.663 174.569 345.302 171.706 345.05C87.0149 337.892 22.129 267.962 22.129 183.898C22.129 94.4658 95.2016 22.1977 185.629 22.1977C239.007 22.1977 288.459 47.8648 318.856 90.1622L292.947 86.7304C291.527 86.5472 290.084 86.6426 288.701 87.0112C287.318 87.3798 286.022 88.0144 284.887 88.8787C283.752 89.743 282.801 90.82 282.087 92.0482C281.373 93.2764 280.911 94.6317 280.727 96.0366C280.346 98.8641 281.113 101.726 282.861 103.995C284.608 106.264 287.194 107.756 290.052 108.143L342.678 115.133C344.129 115.327 345.605 115.229 347.017 114.847C348.429 114.464 349.748 113.804 350.897 112.906C352.045 112.008 352.999 110.89 353.701 109.62C354.403 108.349 354.839 106.952 354.984 105.511L360.135 53.6324C360.273 52.2221 360.129 50.7987 359.71 49.4437C359.292 48.0886 358.607 46.8285 357.695 45.7354C356.784 44.6423 355.663 43.7376 354.398 43.0731C353.133 42.4086 351.747 41.9973 350.321 41.8628C347.455 41.5862 344.594 42.443 342.364 44.2459C340.134 46.0488 338.716 48.6513 338.421 51.4848L335.93 76.6872C301.422 29.3533 245.671 0.637736 185.629 0.637695ZM180.711 87.2146C179.28 87.2201 177.863 87.5044 176.543 88.0513C175.223 88.5981 174.024 89.3968 173.016 90.4017C172.008 91.4067 171.21 92.5981 170.667 93.9082C170.125 95.2182 169.848 96.621 169.854 98.0367V200.215C169.849 202.038 170.31 203.832 171.197 205.43C172.083 207.028 173.364 208.377 174.921 209.353L225.205 240.387C227.65 241.887 230.595 242.371 233.399 241.732C236.203 241.093 238.637 239.383 240.172 236.977C240.936 235.776 241.453 234.438 241.693 233.039C241.934 231.64 241.892 230.209 241.572 228.826C241.252 227.443 240.658 226.136 239.826 224.98C238.994 223.824 237.939 222.843 236.723 222.091L191.654 194.236V98.0367C191.659 96.6139 191.38 95.2042 190.832 93.8887C190.284 92.5731 189.479 91.3779 188.461 90.3719C187.444 89.3658 186.235 88.5689 184.905 88.027C183.575 87.4851 182.15 87.209 180.711 87.2146ZM355.239 133.366C354.424 133.354 353.61 133.432 352.812 133.599C349.998 134.218 347.546 135.915 345.994 138.318C344.442 140.721 343.915 143.635 344.531 146.421L345.829 152.548L346.936 158.443L347.745 164.317L348 166.465C348.143 167.878 348.568 169.249 349.249 170.499C349.929 171.749 350.853 172.854 351.967 173.75C353.08 174.646 354.362 175.315 355.738 175.72C357.114 176.125 358.558 176.257 359.986 176.108C362.856 175.796 365.483 174.37 367.291 172.143C369.099 169.917 369.94 167.072 369.63 164.233L369.395 161.938C369.395 161.945 369.395 161.931 369.395 161.938C369.395 161.931 369.395 161.902 369.395 161.895C369.395 161.902 369.395 161.888 369.395 161.895C369.395 161.888 369.395 161.859 369.395 161.852C369.395 161.859 369.395 161.845 369.395 161.852C369.395 161.845 369.395 161.816 369.395 161.809C369.395 161.816 369.395 161.802 369.395 161.809C369.395 161.802 369.395 161.773 369.395 161.766C369.395 161.773 369.395 161.758 369.395 161.766C369.395 161.758 369.395 161.73 369.395 161.723C369.395 161.73 369.395 161.715 369.395 161.723C369.395 161.715 369.395 161.687 369.395 161.679C369.395 161.687 369.395 161.672 369.395 161.679C369.395 161.672 369.395 161.643 369.395 161.636C369.395 161.643 369.395 161.629 369.395 161.636C369.395 161.629 369.395 161.6 369.395 161.593C369.395 161.6 369.395 161.586 369.395 161.593C369.395 161.586 369.395 161.557 369.395 161.55C369.395 161.557 369.395 161.543 369.395 161.55L368.437 155.233C368.437 155.24 368.437 155.226 368.437 155.233C368.437 155.226 368.437 155.197 368.437 155.19C368.437 155.197 368.437 155.183 368.437 155.19C368.437 155.183 368.437 155.154 368.437 155.147C368.437 155.154 368.437 155.14 368.437 155.147C368.437 155.14 368.437 155.111 368.437 155.104C368.437 155.111 368.437 155.097 368.437 155.104C368.437 155.097 368.437 155.068 368.437 155.061C368.437 155.068 368.437 155.054 368.437 155.061C368.437 155.053 368.437 155.025 368.437 155.018C368.437 155.025 368.437 155.01 368.437 155.018C368.437 155.01 368.437 154.982 368.437 154.974C368.437 154.982 368.437 154.967 368.437 154.974C368.437 154.967 368.437 154.939 368.437 154.931C368.437 154.939 368.437 154.924 368.437 154.931C368.437 154.924 368.437 154.895 368.437 154.888C368.437 154.895 368.437 154.881 368.437 154.888C368.437 154.881 368.437 154.852 368.437 154.845C368.437 154.852 368.437 154.838 368.437 154.845L367.309 148.549C367.282 148.416 367.253 148.282 367.221 148.15L365.774 141.853C365.253 139.464 363.926 137.321 362.011 135.775C360.096 134.229 357.71 133.393 355.239 133.366ZM357.304 197.646C354.849 197.827 352.527 198.824 350.718 200.476C348.909 202.127 347.719 204.336 347.341 206.742L346.617 211.121L345.574 216.848L344.296 222.491L343.168 226.702C342.795 228.072 342.699 229.501 342.886 230.908C343.073 232.315 343.538 233.672 344.256 234.9C344.974 236.128 345.93 237.205 347.07 238.067C348.209 238.929 349.509 239.56 350.896 239.924C352.286 240.289 353.734 240.378 355.159 240.186C356.583 239.994 357.955 239.526 359.196 238.808C360.437 238.09 361.521 237.136 362.388 236.001C363.254 234.867 363.885 233.574 364.244 232.197L365.373 227.818C365.403 227.712 365.432 227.606 365.46 227.5L366.908 221.457C366.939 221.325 366.968 221.192 366.995 221.058L368.123 214.931C368.154 214.826 368.183 214.72 368.211 214.613L368.934 210.002C369.145 208.602 369.075 207.174 368.728 205.801C368.381 204.427 367.764 203.135 366.912 201.997C366.06 200.86 364.99 199.899 363.762 199.171C362.535 198.442 361.174 197.96 359.758 197.752C358.956 197.627 358.114 197.592 357.304 197.646ZM336.185 258.473C335.472 258.531 334.766 258.658 334.078 258.852C331.311 259.634 328.97 261.465 327.563 263.948L326.754 265.379L323.689 270.39L320.474 275.254L317.025 280.033L316.536 280.665C315.663 281.787 315.023 283.069 314.652 284.436C314.28 285.803 314.185 287.23 314.37 288.633C314.556 290.037 315.02 291.391 315.735 292.618C316.45 293.844 317.402 294.92 318.537 295.782C319.672 296.645 320.968 297.278 322.35 297.645C323.733 298.013 325.175 298.107 326.594 297.924C328.014 297.74 329.383 297.281 330.623 296.574C331.863 295.867 332.95 294.925 333.823 293.803L334.483 293.003C334.563 292.898 334.641 292.792 334.718 292.685L338.337 287.59C338.424 287.485 338.509 287.379 338.592 287.272L342.041 282.092C342.099 281.987 342.156 281.881 342.211 281.775L345.51 276.448C345.562 276.343 345.612 276.237 345.66 276.13L346.553 274.446C347.952 271.954 348.297 269.015 347.511 266.273C346.725 263.531 344.872 261.208 342.359 259.813C340.481 258.77 338.333 258.309 336.185 258.473ZM295.928 307.468C293.117 307.234 290.324 308.108 288.136 309.868L283.303 313.532L277.747 317.427L272.126 321.091L271.637 321.408C270.404 322.133 269.327 323.09 268.469 324.227C267.611 325.363 266.988 326.656 266.636 328.031C266.284 329.406 266.21 330.836 266.418 332.24C266.625 333.643 267.111 334.992 267.847 336.21C269.326 338.65 271.72 340.413 274.507 341.115C277.295 341.817 280.25 341.401 282.729 339.957L283.452 339.558C283.589 339.477 283.724 339.393 283.857 339.305L289.903 335.41C290.04 335.308 290.175 335.202 290.308 335.093L296.183 330.945C296.291 330.869 296.398 330.792 296.503 330.713L301.655 326.733C301.762 326.657 301.869 326.58 301.974 326.501C303.074 325.592 303.982 324.477 304.646 323.221C305.31 321.965 305.717 320.591 305.843 319.179C305.97 317.767 305.813 316.344 305.383 314.992C304.953 313.64 304.258 312.385 303.336 311.299C302.417 310.21 301.29 309.31 300.018 308.653C298.747 307.995 297.357 307.593 295.928 307.468ZM236.936 337.765C236.127 337.818 235.328 337.959 234.551 338.186L229.229 339.787L222.714 341.45L216.2 342.819L214.667 343.051C213.246 343.285 211.887 343.795 210.667 344.552C209.447 345.309 208.391 346.298 207.56 347.461C206.728 348.623 206.138 349.938 205.823 351.327C205.508 352.717 205.475 354.155 205.725 355.557C206.23 358.358 207.833 360.849 210.186 362.485C212.538 364.122 215.45 364.773 218.286 364.295L220.053 364.063C220.188 364.037 220.323 364.008 220.457 363.977L227.462 362.461C227.625 362.436 227.789 362.408 227.951 362.376L234.87 360.628C235.006 360.582 235.141 360.533 235.274 360.482L240.746 358.882C242.121 358.477 243.403 357.807 244.516 356.911C245.629 356.015 246.552 354.91 247.233 353.66C247.913 352.41 248.337 351.04 248.481 349.628C248.624 348.215 248.484 346.789 248.069 345.43C247.362 343.096 245.876 341.068 243.854 339.676C241.832 338.285 239.394 337.611 236.936 337.765Z" fill="#F1592F"/>
</svg>
