<svg width="270" height="293" viewBox="0 0 270 293" fill="none" xmlns="http://www.w3.org/2000/svg">
<path d="M107.456 246.817H65.4962C57.9057 246.817 51.7239 253.002 51.7239 260.598C51.7239 268.193 57.9057 274.379 65.4962 274.379H107.456C115.047 274.379 121.229 268.193 121.229 260.598C121.229 253.002 115.047 246.817 107.456 246.817ZM107.456 266.091H65.4962C62.4721 266.091 60.0068 263.624 60.0068 260.598C60.0068 257.572 62.4722 255.105 65.4962 255.105H107.456C110.481 255.105 112.946 257.572 112.946 260.598C112.946 263.624 110.48 266.091 107.456 266.091ZM57.3224 34.3504C57.3224 32.0656 59.1806 30.2064 61.4637 30.2064H111.477C113.76 30.2064 115.618 32.0658 115.618 34.3504C115.618 36.6351 113.76 38.4944 111.477 38.4944H61.4637C59.1805 38.4944 57.3224 36.635 57.3224 34.3504ZM269.456 146.668C269.456 92.2233 226.28 47.697 172.393 45.5068V34.3507C172.393 15.6476 157.188 0.445801 138.51 0.445801H34.4271C15.7361 0.445801 0.544189 15.661 0.544189 34.3507V258.982C0.544189 277.685 15.7495 292.887 34.4271 292.887H138.519C157.21 292.887 172.402 277.672 172.402 258.982V247.826C226.289 245.639 269.465 201.11 269.465 146.665L269.456 146.668ZM203.618 100.306C192.651 98.3737 180.749 97.3163 168.252 97.3163C155.755 97.3163 143.852 98.3736 132.886 100.306C140.088 72.6827 153.399 53.689 168.252 53.689C183.105 53.689 196.404 72.6839 203.618 100.306ZM123.776 102.165C104.053 106.759 88.0931 114.367 78.172 123.846C86.5155 90.8869 112.493 64.8811 145.443 56.5309C135.982 66.4476 128.367 82.4291 123.776 102.165ZM121.918 111.28C119.987 122.254 118.93 134.164 118.93 146.669C118.93 159.174 119.987 171.084 121.918 182.058C94.3126 174.839 75.3313 161.532 75.3313 146.669C75.3313 131.806 94.3139 118.499 121.918 111.28ZM123.776 191.173C128.367 210.91 135.982 226.889 145.443 236.807C112.505 228.458 86.5162 202.463 78.1714 169.492C88.0816 178.959 104.053 186.567 123.776 191.173ZM168.252 239.651C153.399 239.651 140.1 220.656 132.886 193.034C143.852 194.966 155.755 196.023 168.252 196.023C180.749 196.023 192.651 194.966 203.618 193.034C196.416 220.657 183.105 239.651 168.252 239.651ZM168.252 187.732C155.026 187.732 142.359 186.42 130.834 184.111C128.526 172.59 127.214 159.903 127.214 146.669C127.214 133.434 128.526 120.759 130.834 109.226C142.347 106.905 155.026 105.605 168.252 105.605C181.477 105.605 194.145 106.917 205.67 109.226C207.977 120.747 209.289 133.434 209.289 146.669C209.289 159.903 207.977 172.578 205.67 184.111C194.156 186.432 181.477 187.732 168.252 187.732ZM214.583 111.28C242.189 118.499 261.17 131.806 261.17 146.669C261.17 161.532 242.187 174.839 214.583 182.058C216.514 171.084 217.571 159.174 217.571 146.669C217.571 134.164 216.514 122.254 214.583 111.28ZM258.328 123.846C248.418 114.379 232.448 106.771 212.724 102.165C208.133 82.4291 200.518 66.4498 191.057 56.5315C223.995 64.8805 249.983 90.8745 258.328 123.846ZM138.507 284.603H34.424C20.2994 284.603 8.82246 273.107 8.82246 258.985V34.3537C8.82246 20.2199 20.3115 8.73554 34.424 8.73554H138.516C152.641 8.73554 164.118 20.232 164.118 34.3537V45.5098C110.231 47.6973 67.0551 92.2263 67.0551 146.671C67.0551 201.115 110.231 245.641 164.118 247.832V258.988C164.118 273.122 152.629 284.606 138.516 284.606L138.507 284.603ZM191.057 236.807C200.518 226.891 208.133 210.91 212.723 191.174C232.447 186.58 248.407 178.972 258.328 169.493C249.984 202.452 224.007 228.457 191.057 236.807Z" fill="#F1592F"/>
</svg>
